<?xml version="1.0" encoding="utf-8"?>
<!-- Generator: Adobe Illustrator 27.6.1, SVG Export Plug-In . SVG Version: 6.00 Build 0)  -->
<svg version="1.2" baseProfile="tiny" id="g-psychics-Prancheta_1-interactions-img"
	 xmlns="http://www.w3.org/2000/svg" xmlns:xlink="http://www.w3.org/1999/xlink" x="0px" y="0px" viewBox="0 0 1356 720"
	 overflow="visible" xml:space="preserve">
<g>
	<g id="cat4_00000089554542567676468470000009994675309252607928_">
		<path d="M0.5,348.25c0,0,10.766-3.583,23.089-2.661c0,0,15.141-9.854,21.693-6.615c6.552,3.24-4.734,26.099-4.734,26.099
			s10.74,20.703,7.281,33.484c0,0,18.031,16.724,15.068,23.354c-1.073,2.401-26.516,1.849-26.516,1.849s-9.359,15.885-35.88,12.339
			V348.25"/>
		<path fill="#FF9E15" d="M10.016,368.87c0,0,15.13,10.089,0,19.385C10.016,388.255-2.151,378.276,10.016,368.87"/>
		<path fill="#FF9E15" d="M27.802,417.286c0,0-7.849,4.13-11.188-2.75c-0.776-1.599-1.307-3.792-1.443-6.771
			c0-0.062-0.005-0.13-0.005-0.193c0,0,0.094-0.031,0.266-0.078c1.047-0.297,4.99-1.266,8.188-0.161
			C26.484,408.323,28.75,410.984,27.802,417.286"/>
		<path d="M13.984,377.156c0.375,1.771-1.167,3.583-3.432,4.052c-2.266,0.464-4.411-0.594-4.781-2.359
			c-0.37-1.771,1.167-3.583,3.432-4.052C11.474,374.333,13.615,375.391,13.984,377.156"/>
		<path d="M25.146,412.429c0,1.576-2.115,2.852-4.723,2.852c-0.937,0-1.835-0.148-2.568-0.436c-0.662-0.97-1.24-2.347-1.355-4.15
			c0.071-0.057,0.107-0.205,0.182-0.259c0.897-0.18,4.434-0.651,7.162,0.022C24.653,410.97,25.146,411.668,25.146,412.429"/>
	</g>
	<g id="cat3_00000145043526857171615070000009101123256533826211_">
		<path d="M910.159-0.409l105.51-0.005c0,0-1.323,6.375,0.495,17.156c2.531,14.995,7.63,36.167-0.49,39.74
			c-13.958,6.146-31.302-20.62-31.302-20.62s-22.63,9.359-40.557-0.875c0,0-22.781,29.109-32.625,23.99
			c-5.828-3.031-1.672-26.766-0.125-42.786C912.133,5.138,910.159-0.409,910.159-0.409"/>
		<path fill="#FF9E15" d="M975.258,2.367c0-0.995,0.281-1.938,0.792-2.781h15.323c0.505,0.844,0.786,1.786,0.786,2.776
			c0,3.635-3.781,6.583-8.448,6.583C979.044,8.945,975.258,6.002,975.258,2.367"/>
		<path fill="#FF9E15" d="M934.768,2.367c0-0.995,0.281-1.932,0.786-2.776l15.323-0.005c0.505,0.844,0.792,1.786,0.792,2.781
			c0,3.635-3.786,6.583-8.453,6.583C938.55,8.95,934.768,6.002,934.768,2.367"/>
		<path d="M983.638-0.414h1.005c1.104,3.406-0.932,5.427-0.932,5.427C982.185,2.831,982.961,0.732,983.638-0.414"/>
		<path d="M942.039-0.414h1.443c1.833,3.135,0.125,5.792,0.125,5.792C941.31,3.377,941.576,1.002,942.039-0.414"/>
	</g>
	<g id="cat2_00000060709482735796570460000000317644980419986068_">
		<path d="M1355.873,337.768v99.875c-63.724,1.932-57.255-40.594-57.255-40.594c-23.286-21.266-16.818-36.083-16.818-36.083
			c4.849-2.578,35.26,0,35.26,0c5.495-3.865,26.198-10.953,26.198-10.953C1346.815,348.081,1355.873,337.768,1355.873,337.768"/>
		<path fill="#FF9E15" d="M1330.237,400.674c0,0-7.042-11.526-17.599,0.474C1312.638,401.148,1321.232,414.294,1330.237,400.674"/>
		<path d="M1321.435,397.575c0,0-1.151,4.516,2.37,5.526C1323.805,403.101,1324.956,399.732,1321.435,397.575"/>
		<path fill="#FF9E15" d="M1355.873,383.206v13.557c-1.406,0.151-4.547,0.198-8.109-1.682
			C1347.763,395.081,1344.779,386.784,1355.873,383.206"/>
		<path d="M1355.873,389.101v2.948c-2.714-1.01-2.422-4.99-2.422-4.99C1354.628,387.492,1355.388,388.273,1355.873,389.101"/>
		<path d="M1327.216,429.122c0,0-0.568,0.37-1.542,1.057c-0.484,0.344-1.073,0.766-1.74,1.266c-0.672,0.49-1.417,1.057-2.224,1.682
			c-0.812,0.63-1.677,1.323-2.578,2.068c-0.906,0.75-1.849,1.542-2.807,2.391c-0.964,0.844-1.932,1.74-2.906,2.667
			c-0.49,0.458-0.969,0.938-1.453,1.411c-0.474,0.49-0.964,0.969-1.427,1.464c-0.464,0.5-0.943,0.984-1.391,1.495
			c-0.224,0.255-0.453,0.51-0.677,0.76s-0.438,0.51-0.661,0.766c-0.214,0.255-0.427,0.51-0.646,0.766
			c-0.208,0.26-0.417,0.516-0.62,0.771c-0.417,0.51-0.802,1.036-1.188,1.547c-0.766,1.021-1.453,2.047-2.078,3.036
			c-0.167,0.245-0.307,0.495-0.448,0.74c-0.146,0.25-0.286,0.49-0.427,0.729c-0.141,0.234-0.266,0.474-0.391,0.714
			c-0.12,0.234-0.24,0.464-0.359,0.693c-0.057,0.115-0.12,0.224-0.177,0.333c-0.052,0.115-0.104,0.229-0.151,0.339
			c-0.104,0.224-0.203,0.443-0.297,0.651c-0.099,0.214-0.198,0.417-0.281,0.625c-0.078,0.203-0.156,0.406-0.229,0.599
			c-0.073,0.193-0.146,0.38-0.219,0.562c-0.031,0.089-0.068,0.177-0.099,0.266c-0.031,0.089-0.057,0.177-0.083,0.266
			c-0.109,0.339-0.208,0.656-0.297,0.943c-0.094,0.281-0.146,0.542-0.203,0.766c-0.052,0.229-0.094,0.422-0.135,0.573
			c-0.073,0.312-0.109,0.479-0.109,0.479s0.036-0.167,0.104-0.479c0.031-0.156,0.073-0.349,0.12-0.573
			c0.052-0.229,0.099-0.495,0.193-0.776c0.083-0.286,0.177-0.604,0.276-0.953c0.026-0.083,0.052-0.172,0.078-0.26
			c0.031-0.089,0.062-0.182,0.099-0.271c0.068-0.182,0.135-0.375,0.208-0.568c0.068-0.198,0.141-0.401,0.219-0.609
			c0.078-0.203,0.177-0.411,0.266-0.625c0.094-0.214,0.188-0.438,0.286-0.661c0.047-0.109,0.099-0.224,0.151-0.339
			c0.052-0.115,0.109-0.229,0.167-0.344c0.115-0.229,0.234-0.464,0.349-0.703c0.12-0.24,0.24-0.484,0.38-0.724
			c0.135-0.24,0.271-0.484,0.411-0.734s0.276-0.505,0.438-0.75c0.604-1.01,1.281-2.052,2.031-3.094
			c0.375-0.521,0.755-1.057,1.167-1.573c0.198-0.26,0.401-0.526,0.609-0.786c0.208-0.26,0.422-0.521,0.635-0.781
			c0.214-0.26,0.427-0.526,0.646-0.786c0.219-0.255,0.443-0.516,0.667-0.771c0.443-0.521,0.911-1.021,1.37-1.531
			c0.458-0.505,0.938-1,1.406-1.495c0.479-0.49,0.953-0.974,1.432-1.448c0.964-0.948,1.922-1.87,2.87-2.734
			c0.948-0.87,1.885-1.688,2.776-2.453c0.896-0.766,1.755-1.479,2.557-2.125c0.797-0.646,1.542-1.229,2.203-1.74
			c0.667-0.51,1.25-0.948,1.734-1.302c0.964-0.714,1.536-1.104,1.536-1.104L1327.216,429.122"/>
		<path d="M1326.617,430.867c0,0-0.042,0.026-0.115,0.083c-0.078,0.052-0.188,0.135-0.333,0.24
			c-0.292,0.219-0.714,0.547-1.245,0.969c-0.531,0.432-1.172,0.953-1.88,1.583c-0.365,0.307-0.734,0.651-1.13,1.005
			c-0.391,0.365-0.802,0.745-1.224,1.151c-0.417,0.406-0.854,0.828-1.292,1.281c-0.448,0.448-0.896,0.922-1.349,1.411
			c-0.464,0.49-0.911,1.01-1.385,1.531c-0.224,0.266-0.458,0.536-0.688,0.812c-0.234,0.271-0.469,0.547-0.693,0.833
			c-0.229,0.286-0.464,0.573-0.693,0.865c-0.234,0.292-0.453,0.594-0.682,0.891c-0.458,0.594-0.896,1.219-1.339,1.849
			c-0.224,0.307-0.432,0.63-0.646,0.953c-0.208,0.323-0.422,0.651-0.635,0.974c-0.203,0.333-0.401,0.667-0.604,0.995
			c-0.198,0.339-0.411,0.667-0.594,1.01c-0.37,0.682-0.766,1.354-1.099,2.057c-0.172,0.349-0.349,0.693-0.521,1.042
			c-0.156,0.349-0.312,0.703-0.469,1.052c-0.151,0.354-0.323,0.693-0.458,1.052c-0.135,0.354-0.276,0.703-0.411,1.057
			c-0.068,0.172-0.135,0.349-0.203,0.521c-0.068,0.177-0.12,0.354-0.182,0.531c-0.115,0.349-0.229,0.703-0.344,1.047
			c-0.057,0.177-0.12,0.344-0.172,0.521c-0.047,0.172-0.094,0.349-0.141,0.521c-0.094,0.344-0.188,0.688-0.281,1.026
			c-0.047,0.172-0.099,0.339-0.135,0.51s-0.068,0.339-0.104,0.505c-0.073,0.339-0.146,0.672-0.214,1
			c-0.036,0.161-0.068,0.323-0.104,0.484c-0.021,0.167-0.047,0.328-0.073,0.49c-0.047,0.323-0.094,0.641-0.141,0.948
			c-0.115,0.625-0.151,1.234-0.203,1.818c-0.026,0.292-0.052,0.573-0.073,0.854c-0.026,0.281-0.021,0.552-0.031,0.818
			c-0.01,0.536-0.021,1.042-0.031,1.516c0.021,0.479,0.036,0.922,0.057,1.333c0.021,0.411,0.021,0.792,0.057,1.13
			c0.156,1.359,0.245,2.135,0.245,2.135s-0.104-0.776-0.276-2.13c-0.047-0.344-0.052-0.719-0.078-1.13s-0.052-0.859-0.083-1.333
			c0.005-0.479,0.01-0.984,0.01-1.521c0.005-0.271-0.005-0.542,0.016-0.823c0.021-0.281,0.042-0.568,0.062-0.859
			c0.042-0.589,0.073-1.198,0.172-1.823c0.042-0.318,0.083-0.635,0.13-0.958c0.021-0.167,0.042-0.328,0.062-0.49
			c0.031-0.167,0.062-0.328,0.094-0.495c0.068-0.333,0.13-0.667,0.198-1.005c0.036-0.167,0.068-0.339,0.099-0.51
			c0.036-0.172,0.089-0.344,0.125-0.516c0.089-0.339,0.177-0.688,0.266-1.036c0.047-0.177,0.094-0.354,0.135-0.526
			c0.052-0.177,0.109-0.349,0.161-0.526c0.115-0.354,0.224-0.708,0.333-1.062c0.062-0.177,0.109-0.359,0.177-0.536
			c0.062-0.177,0.13-0.354,0.193-0.531c0.135-0.354,0.266-0.708,0.401-1.068c0.125-0.365,0.292-0.708,0.438-1.068
			c0.156-0.354,0.307-0.714,0.458-1.068c0.172-0.354,0.339-0.703,0.51-1.057c0.323-0.714,0.708-1.396,1.073-2.094
			c0.182-0.349,0.385-0.682,0.583-1.026c0.198-0.339,0.396-0.677,0.589-1.016c0.214-0.328,0.422-0.661,0.63-0.99
			c0.208-0.328,0.411-0.656,0.635-0.974c0.438-0.641,0.865-1.276,1.318-1.885c0.224-0.302,0.443-0.615,0.672-0.911
			c0.229-0.292,0.458-0.589,0.682-0.88c0.224-0.292,0.453-0.573,0.688-0.854c0.229-0.281,0.458-0.557,0.682-0.828
			c0.469-0.536,0.911-1.068,1.37-1.568c0.453-0.5,0.896-0.99,1.339-1.448c0.438-0.464,0.87-0.896,1.286-1.312
			c0.417-0.422,0.828-0.807,1.219-1.182c0.396-0.365,0.76-0.719,1.125-1.036c0.708-0.646,1.349-1.188,1.875-1.63
			c0.531-0.443,0.958-0.781,1.255-1.01c0.146-0.115,0.26-0.198,0.339-0.26c0.078-0.052,0.115-0.083,0.115-0.083L1326.617,430.867"/>
		<path d="M1323.966,423.518c0,0-0.151,0.031-0.427,0.099c-0.276,0.068-0.682,0.172-1.198,0.312c-1.031,0.292-2.5,0.74-4.219,1.385
			c-1.724,0.651-3.703,1.495-5.734,2.568c-1.016,0.542-2.047,1.135-3.057,1.792s-2.01,1.37-2.958,2.146
			c-0.948,0.776-1.854,1.604-2.682,2.484c-0.823,0.88-1.568,1.802-2.214,2.75c-0.646,0.953-1.193,1.922-1.63,2.88
			c-0.438,0.958-0.766,1.901-1.005,2.786c-0.24,0.891-0.396,1.719-0.49,2.464c-0.047,0.37-0.083,0.719-0.109,1.042
			c-0.016,0.323-0.036,0.62-0.042,0.891c-0.005,0.266-0.005,0.505-0.01,0.714c0.005,0.214,0.016,0.391,0.016,0.531
			c0.01,0.292,0.016,0.443,0.016,0.443s-0.005-0.151-0.021-0.443c-0.01-0.141-0.021-0.318-0.026-0.526
			c-0.005-0.214-0.005-0.453-0.01-0.719c0-0.271,0.016-0.568,0.026-0.896c0.021-0.323,0.047-0.672,0.083-1.047
			c0.083-0.745,0.224-1.583,0.443-2.484c0.224-0.901,0.536-1.854,0.958-2.833c0.422-0.974,0.953-1.969,1.589-2.943
			c0.635-0.974,1.37-1.927,2.188-2.833c0.818-0.906,1.714-1.766,2.661-2.573c0.943-0.802,1.943-1.547,2.953-2.234
			s2.042-1.307,3.057-1.875c2.036-1.13,4.021-2.026,5.75-2.719c1.729-0.688,3.208-1.177,4.25-1.49
			c0.526-0.156,0.938-0.276,1.219-0.349c0.286-0.073,0.443-0.109,0.443-0.109L1323.966,423.518"/>
		<path d="M1334.149,432.185c0,0-0.141,0.536-0.349,1.505c-0.214,0.964-0.484,2.349-0.745,4.026c-0.13,0.839-0.26,1.745-0.37,2.714
			c-0.12,0.964-0.214,1.984-0.297,3.042c-0.073,1.057-0.135,2.151-0.161,3.266c-0.005,0.276-0.01,0.557-0.021,0.839
			c0,0.276,0,0.557,0,0.839c-0.005,0.568,0.016,1.13,0.031,1.698c0.01,0.562,0.057,1.13,0.078,1.693
			c0.042,0.562,0.089,1.12,0.141,1.677c0.068,0.552,0.115,1.099,0.198,1.641c0.036,0.271,0.078,0.536,0.12,0.807
			c0.016,0.13,0.036,0.266,0.057,0.396c0.026,0.13,0.047,0.26,0.073,0.391c0.099,0.521,0.182,1.036,0.307,1.536
			c0.115,0.495,0.214,0.984,0.349,1.453c0.245,0.943,0.536,1.818,0.818,2.62c0.151,0.396,0.297,0.776,0.438,1.135
			c0.156,0.354,0.307,0.693,0.448,1.01c0.135,0.318,0.286,0.604,0.422,0.87c0.141,0.266,0.266,0.505,0.38,0.729
			c0.25,0.427,0.458,0.76,0.594,0.99s0.208,0.349,0.208,0.349s-0.073-0.12-0.219-0.344c-0.141-0.229-0.354-0.552-0.609-0.979
			c-0.125-0.219-0.255-0.458-0.401-0.724c-0.141-0.26-0.302-0.542-0.443-0.859c-0.151-0.312-0.307-0.651-0.474-1
			c-0.146-0.359-0.302-0.74-0.464-1.135c-0.302-0.797-0.609-1.672-0.875-2.609c-0.151-0.469-0.26-0.958-0.391-1.458
			c-0.135-0.495-0.229-1.01-0.344-1.536c-0.026-0.13-0.052-0.26-0.078-0.391c-0.026-0.135-0.047-0.266-0.073-0.401
			c-0.042-0.266-0.089-0.536-0.135-0.807c-0.094-0.542-0.156-1.094-0.234-1.651c-0.068-0.557-0.125-1.115-0.177-1.682
			c-0.042-0.568-0.094-1.135-0.12-1.703c-0.026-0.568-0.057-1.135-0.068-1.703c-0.005-0.286-0.01-0.568-0.016-0.854
			c0-0.281,0-0.562,0-0.844c-0.005-1.12,0.036-2.224,0.089-3.292c0.062-1.068,0.13-2.099,0.229-3.073
			c0.089-0.974,0.203-1.896,0.307-2.745c0.229-1.693,0.474-3.099,0.661-4.083c0.193-0.979,0.328-1.542,0.328-1.542L1334.149,432.185
			"/>
		<path d="M1329.253,431.982c0,0-0.281,0.63-0.74,1.771c-0.458,1.135-1.089,2.771-1.776,4.766c-0.344,0.99-0.698,2.078-1.062,3.224
			c-0.354,1.156-0.724,2.375-1.073,3.641c-0.354,1.271-0.688,2.589-1.01,3.932c-0.156,0.672-0.307,1.354-0.458,2.036
			c-0.135,0.682-0.292,1.37-0.417,2.057c-0.13,0.693-0.266,1.38-0.375,2.073c-0.057,0.344-0.115,0.688-0.172,1.031
			c-0.052,0.344-0.104,0.688-0.151,1.031c-0.052,0.344-0.104,0.682-0.146,1.021c-0.042,0.339-0.083,0.677-0.125,1.016
			c-0.089,0.672-0.151,1.339-0.214,1.995c-0.073,0.651-0.109,1.297-0.156,1.932c-0.052,0.63-0.073,1.25-0.099,1.854
			c-0.036,0.604-0.042,1.188-0.047,1.76c-0.005,0.281-0.01,0.562-0.01,0.833c0,0.276,0.005,0.547,0.01,0.807
			c0.016,0.526,0.01,1.031,0.036,1.516c0.026,0.479,0.047,0.932,0.073,1.359c0.052,0.854,0.135,1.599,0.188,2.214
			c0.156,1.219,0.245,1.917,0.245,1.917s-0.099-0.698-0.281-1.917c-0.062-0.609-0.156-1.354-0.229-2.208
			c-0.026-0.427-0.062-0.88-0.094-1.365c-0.036-0.479-0.042-0.984-0.062-1.51c-0.01-0.266-0.026-0.536-0.031-0.807
			c0-0.276,0-0.557,0-0.844c-0.005-0.568-0.01-1.156,0.01-1.76c0.021-0.604,0.026-1.229,0.068-1.865
			c0.036-0.635,0.062-1.281,0.125-1.943c0.052-0.656,0.099-1.328,0.177-2c0.036-0.339,0.068-0.682,0.104-1.021
			c0.036-0.344,0.083-0.688,0.13-1.031c0.042-0.344,0.089-0.688,0.13-1.036c0.052-0.344,0.104-0.693,0.156-1.036
			c0.099-0.698,0.219-1.391,0.339-2.089c0.115-0.693,0.255-1.385,0.38-2.073c0.141-0.693,0.281-1.375,0.427-2.052
			c0.302-1.359,0.609-2.688,0.948-3.969c0.323-1.281,0.672-2.51,1.005-3.677c0.349-1.161,0.682-2.26,1.016-3.266
			c0.651-2.016,1.255-3.672,1.698-4.828c0.438-1.156,0.719-1.812,0.719-1.812L1329.253,431.982"/>
		<path d="M1328.378,431.607c0,0-0.042,0.026-0.109,0.078c-0.073,0.052-0.177,0.13-0.318,0.24c-0.276,0.214-0.677,0.531-1.172,0.964
			c-0.495,0.432-1.083,0.969-1.734,1.615c-0.661,0.641-1.359,1.401-2.109,2.245c-0.359,0.432-0.755,0.87-1.125,1.354
			c-0.193,0.234-0.38,0.479-0.578,0.729c-0.188,0.25-0.375,0.505-0.568,0.766c-0.198,0.255-0.385,0.526-0.573,0.802
			c-0.188,0.271-0.38,0.547-0.568,0.828c-0.359,0.578-0.755,1.151-1.099,1.766c-0.177,0.307-0.359,0.615-0.536,0.922
			c-0.172,0.318-0.344,0.635-0.516,0.958c-0.083,0.156-0.167,0.318-0.255,0.479c-0.078,0.167-0.161,0.328-0.24,0.495
			c-0.161,0.333-0.318,0.667-0.479,1c-0.604,1.354-1.182,2.75-1.641,4.182l-0.349,1.078c-0.099,0.365-0.198,0.724-0.297,1.089
			l-0.151,0.542l-0.073,0.271l-0.062,0.276c-0.078,0.365-0.161,0.724-0.24,1.089c-0.312,1.453-0.531,2.901-0.677,4.307
			c-0.021,0.177-0.042,0.354-0.062,0.526c-0.01,0.177-0.021,0.349-0.031,0.521c-0.026,0.349-0.047,0.693-0.068,1.031
			c-0.057,0.682-0.047,1.349-0.057,2c-0.005,0.323-0.01,0.641-0.01,0.958c0.005,0.318,0.021,0.625,0.036,0.932
			c0.01,0.302,0.021,0.604,0.036,0.901c0.016,0.292,0.016,0.583,0.047,0.865c0.052,0.562,0.104,1.104,0.151,1.62
			c0.031,0.26,0.047,0.51,0.078,0.75c0.036,0.245,0.073,0.479,0.104,0.708c0.141,0.911,0.234,1.714,0.38,2.359
			c0.26,1.297,0.411,2.042,0.411,2.042s-0.161-0.74-0.443-2.036c-0.161-0.646-0.266-1.443-0.422-2.354
			c-0.036-0.229-0.078-0.464-0.115-0.703c-0.042-0.245-0.057-0.495-0.094-0.755c-0.057-0.51-0.115-1.057-0.177-1.62
			c-0.042-0.281-0.042-0.573-0.062-0.87c-0.021-0.292-0.036-0.594-0.057-0.901c-0.016-0.307-0.036-0.62-0.047-0.932
			c-0.005-0.318-0.005-0.641-0.005-0.964c-0.005-0.656-0.026-1.323,0.026-2.01c0.016-0.339,0.031-0.688,0.047-1.036
			c0.005-0.172,0.016-0.349,0.026-0.526c0.016-0.177,0.031-0.349,0.052-0.526c0.125-1.422,0.318-2.88,0.604-4.349
			c0.078-0.37,0.151-0.74,0.229-1.104l0.057-0.281l0.068-0.271l0.141-0.552c0.094-0.365,0.188-0.734,0.281-1.104l0.339-1.089
			c0.438-1.458,1-2.88,1.583-4.26c0.156-0.339,0.318-0.677,0.474-1.016c0.078-0.172,0.151-0.339,0.229-0.505
			c0.089-0.167,0.172-0.328,0.255-0.495c0.167-0.323,0.333-0.651,0.5-0.974c0.177-0.318,0.354-0.63,0.531-0.943
			c0.339-0.63,0.729-1.219,1.083-1.807c0.182-0.292,0.375-0.573,0.562-0.854c0.188-0.276,0.37-0.557,0.562-0.818
			c0.193-0.271,0.38-0.531,0.568-0.792c0.193-0.255,0.385-0.505,0.573-0.75c0.37-0.495,0.76-0.948,1.12-1.391
			c0.745-0.875,1.448-1.656,2.104-2.318c0.651-0.667,1.245-1.229,1.745-1.677c0.5-0.448,0.911-0.786,1.193-1.016
			c0.141-0.109,0.25-0.198,0.328-0.255s0.115-0.089,0.115-0.089L1328.378,431.607"/>
	</g>
	<g id="five-star-dots_00000048459035507702452730000012157123717108845992_">
		<g id="dot29_00000067956678774684465540000002538833911001742988_" transform="translate(258, 376)">
			<g id="svg-id-m8-svg_00000014600747033566249430000011466800549383525820_" transform="translate(-6.3, -6.3)">
				<path fill="#998FCD" stroke="#483B56" stroke-miterlimit="10" d="M170.718,135.599c-0.03,1.223-1.045,2.19-2.267,2.16
					c-1.223-0.03-2.19-1.045-2.16-2.267s1.045-2.19,2.267-2.16C169.781,133.361,170.748,134.376,170.718,135.599z"/>
			</g>
		</g>
		<g id="dot28_00000121264266760618341750000000995954028789483193_" transform="translate(261, 370)">
			<g id="svg-id-m7-svg_00000057841621667205163850000010323072763868210310_" transform="translate(-6.3, -6.3)">
				<path fill="#998FCD" stroke="#483B56" stroke-miterlimit="10" d="M171.787,133.93c-0.03,1.223-1.045,2.19-2.267,2.16
					c-1.223-0.03-2.19-1.045-2.16-2.267c0.03-1.223,1.045-2.19,2.267-2.16C170.85,131.692,171.817,132.707,171.787,133.93z"/>
			</g>
		</g>
		<g id="dot27_00000036956768710346375790000016495352313224868498_" transform="translate(278, 401)">
			<g id="svg-id-m5-svg_00000070097934586516929360000002890041456318516133_" transform="translate(-6.3, -6.3)">
				<path fill="#998FCD" stroke="#483B56" stroke-miterlimit="10" d="M175.812,143.57c-0.03,1.223-1.045,2.19-2.267,2.16
					c-1.223-0.03-2.19-1.045-2.16-2.267c0.03-1.223,1.045-2.19,2.267-2.16C174.875,141.332,175.842,142.347,175.812,143.57z"/>
			</g>
		</g>
		<g id="dot26_00000166656123645543347680000009341860714059970455_" transform="translate(207, 416)">
			<g id="svg-id-m29-svg_00000182505346670668664060000008287854295197555379_" transform="translate(-6.3, -6.3)">
				<path fill="#998FCD" stroke="#483B56" stroke-miterlimit="10" d="M154.094,145.484c-0.03,1.223-1.045,2.19-2.267,2.16
					c-1.223-0.03-2.19-1.045-2.16-2.267c0.03-1.223,1.045-2.19,2.267-2.16C153.156,143.246,154.123,144.261,154.094,145.484z"/>
			</g>
		</g>
		<g id="dot25_00000034050342166258819040000011155385919621148846_" transform="translate(212, 393)">
			<g id="svg-id-m28-svg_00000119820809481251729370000011845314911658624938_" transform="translate(-6.3, -6.3)">
				<path fill="#998FCD" stroke="#483B56" stroke-miterlimit="10" d="M156.671,139.154c-0.03,1.223-1.045,2.19-2.267,2.16
					c-1.223-0.03-2.19-1.045-2.16-2.267c0.03-1.223,1.045-2.19,2.267-2.16C155.734,136.917,156.701,137.932,156.671,139.154z"/>
			</g>
		</g>
		<g id="dot24_00000118368845917593891470000001397995563960346811_" transform="translate(246, 313)">
			<g id="svg-id-m27-svg_00000164474664334362153350000009967821438506472576_" transform="translate(-6.3, -6.3)">
				<path fill="#998FCD" stroke="#483B56" stroke-miterlimit="10" d="M169.164,116.714c-0.03,1.223-1.045,2.19-2.267,2.16
					s-2.19-1.045-2.16-2.267c0.03-1.223,1.045-2.19,2.267-2.16S169.193,115.491,169.164,116.714z"/>
			</g>
		</g>
		<g id="dot23_00000119831851543189307980000013854354256568256699_" transform="translate(267, 414)">
			<g id="svg-id-m25-svg_00000084491364501239971100000012844995503713520536_" transform="translate(-6.3, -6.3)">
				<path fill="#998FCD" stroke="#483B56" stroke-miterlimit="10" d="M172.204,145.78c-0.03,1.223-1.045,2.19-2.267,2.16
					c-1.223-0.03-2.19-1.045-2.16-2.267c0.03-1.223,1.045-2.19,2.267-2.16C171.267,143.542,172.234,144.557,172.204,145.78z"/>
			</g>
		</g>
		<g id="dot22_00000160898318804475887450000000844640031376226229_" transform="translate(270, 221)">
			<g id="svg-id-m24-svg_00000084530368841354808740000010532039574168170421_" transform="translate(-6.3, -6.3)">
				<path fill="#998FCD" stroke="#483B56" stroke-miterlimit="10" d="M179.093,90.435c-0.03,1.223-1.045,2.19-2.267,2.16
					s-2.19-1.045-2.16-2.267c0.03-1.223,1.045-2.19,2.267-2.16S179.123,89.212,179.093,90.435z"/>
			</g>
		</g>
		<g id="dot21_00000122695043323842984610000002052736003028395168_" transform="translate(280, 391)">
			<g id="svg-id-m23-svg_00000075852280121842039950000009847600583682097599_" transform="translate(-6.3, -6.3)">
				<path fill="#998FCD" stroke="#483B56" stroke-miterlimit="10" d="M176.713,140.694c-0.03,1.223-1.045,2.19-2.267,2.16
					c-1.223-0.03-2.19-1.045-2.16-2.267c0.03-1.223,1.045-2.19,2.267-2.16C175.775,138.457,176.742,139.472,176.713,140.694z"/>
			</g>
		</g>
		<g id="dot20_00000029753262506471473370000006074296466368108479_" transform="translate(291, 292)">
			<g id="svg-id-m22-svg_00000101078338100532151670000014467011194068869036_" transform="translate(-6.3, -6.3)">
				<path fill="#998FCD" stroke="#483B56" stroke-miterlimit="10" d="M183.042,111.952c-0.03,1.223-1.045,2.19-2.267,2.16
					s-2.19-1.045-2.16-2.267c0.03-1.223,1.045-2.19,2.267-2.16S183.071,110.729,183.042,111.952z"/>
			</g>
		</g>
		<g id="dot19_00000120526081270922982340000007949192592173507770_" transform="translate(276, 364)">
			<g id="svg-id-m21-svg_00000083785480388000464750000007015273554021464963_" transform="translate(-6.3, -6.3)">
				<path fill="#998FCD" stroke="#483B56" stroke-miterlimit="10" d="M176.382,132.636c-0.03,1.223-1.045,2.19-2.267,2.16
					c-1.223-0.03-2.19-1.045-2.16-2.267c0.03-1.223,1.045-2.19,2.267-2.16C175.445,130.399,176.412,131.414,176.382,132.636z"/>
			</g>
		</g>
		<g id="dot18_00000043447677584764827140000005426555805045033359_" transform="translate(262, 289)">
			<g id="svg-id-m20-svg_00000012452496921372546220000014064898352500351364_" transform="translate(-6.3, -6.3)">
				<path fill="#998FCD" stroke="#483B56" stroke-miterlimit="10" d="M174.615,110.163c-0.03,1.223-1.045,2.19-2.267,2.16
					c-1.223-0.03-2.19-1.045-2.16-2.267c0.03-1.223,1.045-2.19,2.267-2.16S174.645,108.941,174.615,110.163z"/>
			</g>
		</g>
		<g id="dot17_00000023967215656186386800000008003548844677632128_" transform="translate(239, 376)">
			<g id="svg-id-m19-svg_00000001635104242789181210000010215372890592590485_" transform="translate(-6.3, -6.3)">
				<path fill="#998FCD" stroke="#483B56" stroke-miterlimit="10" d="M165.136,135.004c-0.03,1.223-1.045,2.19-2.267,2.16
					c-1.223-0.03-2.19-1.045-2.16-2.267c0.03-1.223,1.045-2.19,2.267-2.16C164.199,132.767,165.166,133.782,165.136,135.004z"/>
			</g>
		</g>
		<g id="dot16_00000072997142413512726770000007738024884845243014_" transform="translate(362, 454)">
			<g id="svg-id-m18-svg_00000109710796817094379730000006734208524796689550_" transform="translate(-6.3, -6.3)">
				<path fill="#998FCD" stroke="#483B56" stroke-miterlimit="10" d="M198.748,167.17c-0.03,1.223-1.045,2.19-2.267,2.16
					c-1.223-0.03-2.19-1.045-2.16-2.267c0.03-1.223,1.045-2.19,2.267-2.16C197.81,164.933,198.777,165.948,198.748,167.17z"/>
			</g>
		</g>
		<g id="dot15_00000156550280404066940280000011380881706110332080_" transform="translate(205, 367)">
			<g id="svg-id-m17-svg_00000012464783112506490560000012641795103341736626_" transform="translate(-6.3, -6.3)">
				<path fill="#998FCD" stroke="#483B56" stroke-miterlimit="10" d="M155.428,131.296c-0.03,1.223-1.045,2.19-2.267,2.16
					c-1.223-0.03-2.19-1.045-2.16-2.267c0.03-1.223,1.045-2.19,2.267-2.16C154.491,129.059,155.458,130.074,155.428,131.296z"/>
			</g>
		</g>
		<g id="dot14_00000029724086506933078220000007771283683326781828_" transform="translate(254, 419)">
			<g id="svg-id-m16-svg_00000128456581460885042120000013654770921773062281_" transform="translate(-6.3, -6.3)">
				<path fill="#998FCD" stroke="#483B56" stroke-miterlimit="10" d="M166.3,148.061c-0.03,1.223-1.045,2.19-2.267,2.16
					c-1.223-0.03-2.19-1.045-2.16-2.267c0.03-1.223,1.045-2.19,2.267-2.16C165.363,145.824,166.33,146.839,166.3,148.061z"/>
			</g>
		</g>
		<g id="dot13_00000030462149927949359010000014519497382949838748_" transform="translate(243, 357)">
			<g id="svg-id-m15-svg_00000153700123459579804560000011411336630012980876_" transform="translate(-6.3, -6.3)">
				<path fill="#998FCD" stroke="#483B56" stroke-miterlimit="10" d="M166.906,129.547c-0.03,1.223-1.045,2.19-2.267,2.16
					c-1.223-0.03-2.19-1.045-2.16-2.267c0.03-1.223,1.045-2.19,2.267-2.16C165.968,127.31,166.935,128.325,166.906,129.547z"/>
			</g>
		</g>
		<g id="dot12_00000029003850885787131550000011811839500980148869_" transform="translate(266, 315)">
			<g id="svg-id-m14-svg_00000007386765609208895320000004579800110202113668_" transform="translate(-6.3, -6.3)">
				<path fill="#998FCD" stroke="#483B56" stroke-miterlimit="10" d="M174.977,117.927c-0.03,1.223-1.045,2.19-2.267,2.16
					s-2.19-1.045-2.16-2.267c0.03-1.223,1.045-2.19,2.267-2.16S175.007,116.705,174.977,117.927z"/>
			</g>
		</g>
		<g id="dot11_00000131365242682351885300000006302063380713679245_" transform="translate(229, 412)">
			<g id="svg-id-m13-svg_00000176037417913530348550000007840211306718214301_" transform="translate(-6.3, -6.3)">
				<path fill="#998FCD" stroke="#483B56" stroke-miterlimit="10" d="M161.072,145.268c-0.03,1.223-1.045,2.19-2.267,2.16
					c-1.223-0.03-2.19-1.045-2.16-2.267c0.03-1.223,1.045-2.19,2.267-2.16C160.134,143.031,161.101,144.046,161.072,145.268z"/>
			</g>
		</g>
		<g id="dot10_00000016054221946208015700000002712578959274272447_" transform="translate(259, 354)">
			<g id="svg-id-m12-svg_00000166667116010495294200000010913543369258327427_" transform="translate(-6.3, -6.3)">
				<path fill="#998FCD" stroke="#483B56" stroke-miterlimit="10" d="M171.7,129.166c-0.03,1.223-1.045,2.19-2.267,2.16
					c-1.223-0.03-2.19-1.045-2.16-2.267c0.03-1.223,1.045-2.19,2.267-2.16S171.73,127.944,171.7,129.166z"/>
			</g>
		</g>
		<g id="dot9_00000082353765390786883430000014998411856474347700_" transform="translate(266, 311)">
			<g id="svg-id-m11-svg_00000052068246704456840530000002072656181448335489_" transform="translate(-6.3, -6.3)">
				<path fill="#998FCD" stroke="#483B56" stroke-miterlimit="10" d="M175.102,116.752c-0.03,1.223-1.045,2.19-2.267,2.16
					c-1.223-0.03-2.19-1.045-2.16-2.267c0.03-1.223,1.045-2.19,2.267-2.16S175.132,115.529,175.102,116.752z"/>
			</g>
		</g>
		<g id="dot8_00000067198115749134622290000016265855792018191798_" transform="translate(367, 216)">
			<g id="svg-id-m10-svg_00000023266550721103286720000005108329537847664822_" transform="translate(-6.3, -6.3)">
				<path fill="#998FCD" stroke="#483B56" stroke-miterlimit="10" d="M207.749,92.001c-0.03,1.223-1.045,2.19-2.267,2.16
					c-1.223-0.03-2.19-1.045-2.16-2.267c0.03-1.223,1.045-2.19,2.267-2.16S207.778,90.778,207.749,92.001z"/>
			</g>
		</g>
		<g id="dot7_00000142895172998566032600000016453956796784603274_" transform="translate(302, 293)">
			<g id="svg-id-m2-svg_00000074409573143551779570000008206150968814367124_" transform="translate(-6.3, -6.3)">
				<path fill="#998FCD" stroke="#483B56" stroke-miterlimit="10" d="M186.242,112.59c-0.03,1.223-1.045,2.19-2.267,2.16
					s-2.19-1.045-2.16-2.267c0.03-1.223,1.045-2.19,2.267-2.16S186.272,111.367,186.242,112.59z"/>
			</g>
		</g>
		<g id="dot6_00000059290394076385284270000013298444212052406426_" transform="translate(190, 466)">
			<g id="svg-id-m1-svg_00000075145760204567002010000011986547133945014715_" transform="translate(-6.3, -6.3)">
				<path fill="#998FCD" stroke="#483B56" stroke-miterlimit="10" d="M148.624,168.151c-0.03,1.223-1.045,2.19-2.267,2.16
					c-1.223-0.03-2.19-1.045-2.16-2.267c0.03-1.223,1.045-2.19,2.267-2.16C147.686,165.914,148.653,166.929,148.624,168.151z"/>
			</g>
		</g>
		<g id="dot5_00000139994336756859480670000008076691195057228175_" transform="translate(264, 426)">
			<g id="svg-id-m0-svg_00000175316115308620060160000002809212117204283318_" transform="translate(-6.3, -6.3)">
				<path fill="#998FCD" stroke="#483B56" stroke-miterlimit="10" d="M170.917,150.477c-0.03,1.223-1.045,2.19-2.267,2.16
					c-1.223-0.03-2.19-1.045-2.16-2.267c0.03-1.223,1.045-2.19,2.267-2.16C169.979,148.239,170.946,149.254,170.917,150.477z"/>
			</g>
		</g>
		<g id="dot4_00000117640493024588685860000006539465891182206605_" transform="translate(253, 382)">
			<g id="lisa-dot_00000003092452279961206610000013451719585098721928_" transform="translate(-6.3, -6.3)">
				<path fill="#998FCD" stroke="#483B56" stroke-miterlimit="10" d="M169.062,137.205c-0.03,1.223-1.045,2.19-2.267,2.16
					s-2.19-1.045-2.16-2.267c0.03-1.223,1.045-2.19,2.267-2.16C168.124,134.968,169.091,135.983,169.062,137.205z"/>
			</g>
		</g>
		<g id="dot3_00000167361247435290905570000013093504875056099257_" transform="translate(-6.3, -6.3)">
			<path fill="#998FCD" stroke="#483B56" stroke-miterlimit="10" d="M504.736,205.332c-0.03,1.223-1.045,2.19-2.267,2.16
				c-1.223-0.03-2.19-1.045-2.16-2.267s1.045-2.19,2.267-2.16C503.799,203.094,504.766,204.109,504.736,205.332z"/>
		</g>
		<g id="dot2_00000001645216510008273870000007409112194853004183_" transform="translate(-6.3, -6.3)">
			<path fill="#998FCD" stroke="#483B56" stroke-miterlimit="10" d="M597.544,61.291c-0.03,1.223-1.045,2.19-2.267,2.16
				s-2.19-1.045-2.16-2.267c0.03-1.223,1.045-2.19,2.267-2.16S597.573,60.068,597.544,61.291z"/>
		</g>
		<g id="dot1_00000181057785105425058010000010997005768955472297_" transform="translate(270, 221)">
			<g id="svg-id-m24-svg_00000148624621057959335960000010793285803200292771_" transform="translate(-6.3, -6.3)">
				<path fill="#998FCD" stroke="#483B56" stroke-miterlimit="10" d="M174.845,148.145c-0.03,1.223-1.045,2.19-2.267,2.16
					c-1.223-0.03-2.19-1.045-2.16-2.267c0.03-1.223,1.045-2.19,2.267-2.16C173.907,145.907,174.874,146.922,174.845,148.145z"/>
			</g>
		</g>
	</g>
	<g id="gender_00000013177334594462645860000001439964796523602059_">
		<g id="h4_00000032624192401322313680000012832201898269471666_" transform="translate(261, 370)">
			<g id="svg-id-m7-svg_00000017486220594504689030000017096453754561908918_" transform="translate(-6.3, -6.3)">
				<path fill="#DD221C" stroke="#722B2B" stroke-miterlimit="10" d="M171.74,134.449c-0.029,1.218-1.046,2.181-2.27,2.151
					s-2.193-1.041-2.163-2.259c0.029-1.218,1.046-2.181,2.27-2.151S171.769,133.231,171.74,134.449z"/>
			</g>
		</g>
		<g id="h3_00000144306624816764513140000018058801276033499318_" transform="translate(-6.3, -6.3)">
			<path fill="#DD221C" stroke="#722B2B" stroke-miterlimit="10" d="M504.742,206.028c-0.029,1.218-1.046,2.181-2.27,2.151
				s-2.193-1.041-2.163-2.259c0.029-1.218,1.046-2.181,2.27-2.151S504.771,204.81,504.742,206.028z"/>
		</g>
		<g id="h2_00000068636244192801987290000017050901648773950388_" transform="translate(-6.3, -6.3)">
			<path fill="#DD221C" stroke="#722B2B" stroke-miterlimit="10" d="M597.648,63.562c-0.029,1.218-1.046,2.181-2.27,2.151
				c-1.224-0.03-2.193-1.041-2.163-2.259c0.029-1.218,1.046-2.181,2.27-2.151C596.709,61.333,597.677,62.344,597.648,63.562z"/>
		</g>
		<g id="h1_00000121964234613600021550000004324828150549631137_" transform="translate(261, 370)">
			<g id="svg-id-m7-svg_00000127764947818501996970000002072926291530727569_" transform="translate(-6.3, -6.3)">
				<path fill="#DD221C" stroke="#722B2B" stroke-miterlimit="10" d="M78.096,264.644c-0.029,1.218-1.046,2.181-2.27,2.151
					c-1.224-0.03-2.193-1.041-2.163-2.259c0.029-1.218,1.046-2.181,2.27-2.151S78.126,263.426,78.096,264.644z"/>
			</g>
		</g>
		<g id="m21_00000176751863964113374320000006112006914967306123_" transform="translate(254, 419)">
			<g id="svg-id-m16-svg_00000066478584236649167460000018136940628211007923_" transform="translate(-6.3, -6.3)">
				<path fill="#99DAC6" stroke="#598476" stroke-miterlimit="10" d="M166.245,148.332c-0.029,1.218-1.046,2.181-2.27,2.151
					c-1.224-0.03-2.193-1.041-2.163-2.259c0.029-1.218,1.046-2.181,2.27-2.151S166.274,147.114,166.245,148.332z"/>
			</g>
		</g>
		<g id="m23_00000065786486397829919710000010299148448754684058_" transform="translate(243, 357)">
			<g id="svg-id-m15-svg_00000022524921967879578730000001665057849519880879_" transform="translate(-6.3, -6.3)">
				<path fill="#99DAC6" stroke="#598476" stroke-miterlimit="10" d="M166.827,130.131c-0.029,1.218-1.046,2.181-2.27,2.151
					c-1.224-0.03-2.193-1.041-2.163-2.259c0.029-1.218,1.046-2.181,2.27-2.151S166.856,128.914,166.827,130.131z"/>
			</g>
		</g>
		<g id="m22_00000028287697748916675420000005270082288188187059_" transform="translate(259, 354)">
			<g id="svg-id-m12-svg_00000034068638809946282510000013805506858603854481_" transform="translate(-6.3, -6.3)">
				<path fill="#99DAC6" stroke="#598476" stroke-miterlimit="10" d="M171.647,129.766c-0.029,1.218-1.046,2.181-2.27,2.151
					s-2.193-1.041-2.163-2.259c0.029-1.218,1.046-2.181,2.27-2.151C170.708,127.537,171.677,128.549,171.647,129.766z"/>
			</g>
		</g>
		<g id="m20_00000129888509156299121160000007620832451422901675_" transform="translate(278, 401)">
			<g id="svg-id-m5-svg_00000152961578945182950910000017356460891423249836_" transform="translate(-6.3, -6.3)">
				<path fill="#99DAC6" stroke="#598476" stroke-miterlimit="10" d="M175.796,143.932c-0.029,1.218-1.046,2.181-2.27,2.151
					s-2.193-1.041-2.163-2.259c0.029-1.218,1.046-2.181,2.27-2.151S175.825,142.714,175.796,143.932z"/>
			</g>
		</g>
		<g id="m19_00000015332569738312186670000016356815943411044523_" transform="translate(264, 426)">
			<g id="svg-id-m0-svg_00000062186567088813678630000005864218273674768573_" transform="translate(-6.3, -6.3)">
				<path fill="#99DAC6" stroke="#598476" stroke-miterlimit="10" d="M170.881,150.712c-0.029,1.218-1.046,2.181-2.27,2.151
					s-2.193-1.041-2.163-2.259c0.029-1.218,1.046-2.181,2.27-2.151C169.942,148.483,170.91,149.494,170.881,150.712z"/>
			</g>
		</g>
		<g id="m18_00000019673612229910058270000018068864427135490969_" transform="translate(270, 221)">
			<g id="svg-id-m24-svg_00000033331729995123434460000001057388034543292598_" transform="translate(-6.3, -6.3)">
				<path fill="#99DAC6" stroke="#598476" stroke-miterlimit="10" d="M174.795,149.193c-0.029,1.218-1.046,2.181-2.27,2.151
					s-2.193-1.041-2.163-2.259c0.029-1.218,1.046-2.181,2.27-2.151C173.856,146.964,174.825,147.975,174.795,149.193z"/>
			</g>
		</g>
		<g id="m17_00000100367025943334045240000013664567795377020051_" transform="translate(261, 370)">
			<g id="svg-id-m7-svg_00000015318747484660332290000016406024169971348391_" transform="translate(-6.3, -6.3)">
				<path fill="#99DAC6" stroke="#598476" stroke-miterlimit="10" d="M178.096,189.644c-0.029,1.218-1.046,2.181-2.27,2.151
					c-1.224-0.03-2.193-1.041-2.163-2.259c0.029-1.218,1.046-2.181,2.27-2.151S178.126,188.426,178.096,189.644z"/>
			</g>
		</g>
		<g id="m16_00000008832405924942579420000006718224472030796465_" transform="translate(261, 370)">
			<g id="svg-id-m7-svg_00000051362657394714703930000008118123681051510935_" transform="translate(-6.3, -6.3)">
				<path fill="#99DAC6" stroke="#598476" stroke-miterlimit="10" d="M196.096,161.644c-0.029,1.218-1.046,2.181-2.27,2.151
					c-1.224-0.03-2.193-1.041-2.163-2.259c0.029-1.218,1.046-2.181,2.27-2.151S196.126,160.426,196.096,161.644z"/>
			</g>
		</g>
		<g id="m15_00000167383147895796467520000006850024111548097702_" transform="translate(261, 370)">
			<g id="svg-id-m7-svg_00000118380698456988021870000016818414270954003609_" transform="translate(-6.3, -6.3)">
				<path fill="#99DAC6" stroke="#598476" stroke-miterlimit="10" d="M300.096,251.644c-0.029,1.218-1.046,2.181-2.27,2.151
					c-1.224-0.03-2.193-1.041-2.163-2.259c0.029-1.218,1.046-2.181,2.27-2.151S300.126,250.426,300.096,251.644z"/>
			</g>
		</g>
		<g id="m14_00000094607424288597263320000017425412023601969324_" transform="translate(261, 370)">
			<g id="svg-id-m7-svg_00000063591940630935673030000014907169064083406231_" transform="translate(-6.3, -6.3)">
				<path fill="#99DAC6" stroke="#598476" stroke-miterlimit="10" d="M143.096,140.644c-0.029,1.218-1.046,2.181-2.27,2.151
					c-1.224-0.03-2.193-1.041-2.163-2.259c0.029-1.218,1.046-2.181,2.27-2.151S143.126,139.426,143.096,140.644z"/>
			</g>
		</g>
		<g id="m13_00000116214011550217872090000013113421419417184679_" transform="translate(261, 370)">
			<g id="svg-id-m7-svg_00000095337657994747664330000018275117957637261723_" transform="translate(-6.3, -6.3)">
				<path fill="#99DAC6" stroke="#598476" stroke-miterlimit="10" d="M129.096,187.644c-0.029,1.218-1.046,2.181-2.27,2.151
					c-1.224-0.03-2.193-1.041-2.163-2.259c0.029-1.218,1.046-2.181,2.27-2.151S129.126,186.426,129.096,187.644z"/>
			</g>
		</g>
		<g id="m12_00000031912698566237247660000016312822227560549251_" transform="translate(261, 370)">
			<g id="svg-id-m7-svg_00000016056225423476732710000017347147354230829965_" transform="translate(-6.3, -6.3)">
				<path fill="#99DAC6" stroke="#598476" stroke-miterlimit="10" d="M108.096,162.644c-0.029,1.218-1.046,2.181-2.27,2.151
					c-1.224-0.03-2.193-1.041-2.163-2.259c0.029-1.218,1.046-2.181,2.27-2.151S108.126,161.426,108.096,162.644z"/>
			</g>
		</g>
		<g id="m11_00000052825268710672517420000007977709683930058113_" transform="translate(261, 370)">
			<g id="svg-id-m7-svg_00000149370746263754056020000018205875734277051805_" transform="translate(-6.3, -6.3)">
				<path fill="#99DAC6" stroke="#598476" stroke-miterlimit="10" d="M99.096,128.644c-0.029,1.218-1.046,2.181-2.27,2.151
					c-1.224-0.03-2.193-1.041-2.163-2.259c0.029-1.218,1.046-2.181,2.27-2.151S99.126,127.426,99.096,128.644z"/>
			</g>
		</g>
		<g id="m10_00000075871463112516092930000006381310427127082909_" transform="translate(261, 370)">
			<g id="svg-id-m7-svg_00000084506735814068390010000015972384599470459282_" transform="translate(-6.3, -6.3)">
				<path fill="#99DAC6" stroke="#598476" stroke-miterlimit="10" d="M180.096,62.644c-0.029,1.218-1.046,2.181-2.27,2.151
					s-2.193-1.041-2.163-2.259s1.046-2.181,2.27-2.151S180.126,61.426,180.096,62.644z"/>
			</g>
		</g>
		<g id="m9_00000141441980723093456380000000184466448270120072_" transform="translate(261, 370)">
			<g id="svg-id-m7-svg_00000088092851704070368600000009536718002956079243_" transform="translate(-6.3, -6.3)">
				<path fill="#99DAC6" stroke="#598476" stroke-miterlimit="10" d="M180.096,57.644c-0.029,1.218-1.046,2.181-2.27,2.151
					s-2.193-1.041-2.163-2.259s1.046-2.181,2.27-2.151S180.126,56.426,180.096,57.644z"/>
			</g>
		</g>
		<g id="m8_00000109025620917626881230000015523928162582516875_" transform="translate(261, 370)">
			<g id="svg-id-m7-svg_00000171714173326986262710000012040124331996460191_" transform="translate(-6.3, -6.3)">
				<path fill="#99DAC6" stroke="#598476" stroke-miterlimit="10" d="M227.096,35.644c-0.029,1.218-1.046,2.181-2.27,2.151
					s-2.193-1.041-2.163-2.259s1.046-2.181,2.27-2.151S227.126,34.426,227.096,35.644z"/>
			</g>
		</g>
		<g id="m25_00000070082417818903692870000005229945572152903562_" transform="translate(291, 292)">
			<g id="svg-id-m22-svg_00000154400633980033675040000017976674102571608227_" transform="translate(-6.3, -6.3)">
				<path fill="#99DAC6" stroke="#598476" stroke-miterlimit="10" d="M183.034,111.867c-0.029,1.218-1.046,2.181-2.27,2.151
					c-1.224-0.03-2.193-1.041-2.163-2.259s1.046-2.181,2.27-2.151S183.063,110.649,183.034,111.867z"/>
			</g>
		</g>
		<g id="m7_00000119825929463685042370000010916064745747568769_" transform="translate(243, 357)">
			<g id="svg-id-m15-svg_00000088813766026608386660000000720432810731720354_" transform="translate(-6.3, -6.3)">
				<path fill="#99DAC6" stroke="#598476" stroke-miterlimit="10" d="M172.096,72.644c-0.029,1.218-1.046,2.181-2.27,2.151
					s-2.193-1.041-2.163-2.259s1.046-2.181,2.27-2.151S172.126,71.426,172.096,72.644z"/>
			</g>
		</g>
		<g id="m6_00000096755578713083604040000004051219229698649477_" transform="translate(243, 357)">
			<g id="svg-id-m15-svg_00000124130266567346355350000014352635463604322700_" transform="translate(-6.3, -6.3)">
				<path fill="#99DAC6" stroke="#598476" stroke-miterlimit="10" d="M194.096,42.644c-0.029,1.218-1.046,2.181-2.27,2.151
					s-2.193-1.041-2.163-2.259s1.046-2.181,2.27-2.151S194.126,41.426,194.096,42.644z"/>
			</g>
		</g>
		<g id="m5_00000114043300232781231220000016070052613428839344_" transform="translate(291, 292)">
			<g id="svg-id-m22-svg_00000107551837237950847380000003011119381338539667_" transform="translate(-6.3, -6.3)">
				<path fill="#99DAC6" stroke="#598476" stroke-miterlimit="10" d="M158.436,19.704c-0.029,1.218-1.046,2.181-2.27,2.151
					c-1.224-0.03-2.193-1.041-2.163-2.259s1.046-2.181,2.27-2.151S158.466,18.486,158.436,19.704z"/>
			</g>
		</g>
		<g id="m4_00000167392145950232794390000007677695316820864905_" transform="translate(367, 216)">
			<g id="svg-id-m10-svg_00000053514732418076847630000005003712558411464336_" transform="translate(-6.3, -6.3)">
				<path fill="#99DAC6" stroke="#598476" stroke-miterlimit="10" d="M207.855,92.304c-0.029,1.218-1.046,2.181-2.27,2.151
					s-2.193-1.041-2.163-2.259s1.046-2.181,2.27-2.151C206.916,90.075,207.884,91.086,207.855,92.304z"/>
			</g>
		</g>
		<g id="m3_00000081641174047736809700000008473674324201857471_" transform="translate(258, 376)">
			<g id="svg-id-m8-svg_00000093166165484701049850000005634830500674847361_" transform="translate(-6.3, -6.3)">
				<path fill="#99DAC6" stroke="#598476" stroke-miterlimit="10" d="M170.666,136.087c-0.029,1.218-1.046,2.181-2.27,2.151
					s-2.193-1.041-2.163-2.259c0.029-1.218,1.046-2.181,2.27-2.151C169.727,133.858,170.696,134.869,170.666,136.087z"/>
			</g>
		</g>
		<g id="m2_00000129172790953978766730000009048359668419186612_" transform="translate(253, 382)">
			<g id="lisa-dot_00000017487953931335198770000001244053969971025323_" transform="translate(-6.3, -6.3)">
				<path fill="#99DAC6" stroke="#598476" stroke-miterlimit="10" d="M169.002,137.663c-0.029,1.218-1.046,2.181-2.27,2.151
					s-2.193-1.041-2.163-2.259c0.029-1.218,1.046-2.181,2.27-2.151S169.032,136.445,169.002,137.663z"/>
			</g>
		</g>
		<g id="m1_00000109745828765526708530000006989280285287941531_" transform="translate(261, 370)">
			<g id="svg-id-m7-svg_00000068676489410331610050000010468950103957944982_" transform="translate(-6.3, -6.3)">
				<path fill="#99DAC6" stroke="#598476" stroke-miterlimit="10" d="M99.996,191.184c-0.029,1.218-1.046,2.181-2.27,2.151
					c-1.224-0.03-2.193-1.041-2.163-2.259c0.029-1.218,1.046-2.181,2.27-2.151S100.026,189.966,99.996,191.184z"/>
			</g>
		</g>
		<g id="na2_00000092416368600832478420000016931824094378423441_" transform="translate(280, 391)">
			<g id="svg-id-m23-svg_00000004518214579498003670000017007931064274031240_" transform="translate(-6.3, -6.3)">
				<path fill="#7F7F7F" stroke="#4C4C4C" stroke-miterlimit="10" d="M176.699,141.107c-0.029,1.218-1.046,2.181-2.27,2.151
					s-2.193-1.041-2.163-2.259c0.029-1.218,1.046-2.181,2.27-2.151S176.728,139.89,176.699,141.107z"/>
			</g>
		</g>
		<g id="na1_00000112613618423605531000000015652279739691466915_" transform="translate(276, 364)">
			<g id="svg-id-m21-svg_00000121975708089152403670000018035504053782185394_" transform="translate(-6.3, -6.3)">
				<path fill="#7F7F7F" stroke="#4C4C4C" stroke-miterlimit="10" d="M176.358,133.186c-0.029,1.218-1.046,2.181-2.27,2.151
					s-2.193-1.041-2.163-2.259c0.029-1.218,1.046-2.181,2.27-2.151S176.388,131.968,176.358,133.186z"/>
			</g>
		</g>
	</g>
	<g id="buildings_00000178900677081288579370000011378803907913207698_">
		<g id="one-world_00000046309026620591480590000002882795578012119449_">
			<path fill="#334C4B" d="M323.483,546.255h0.352v6.852h-0.352V546.255z"/>
			<path fill="#121212" d="M322.35,557.612c0.399-1.327,0.779-2.659,1.141-3.997c0.028-0.106-0.205-0.078-0.231,0.019
				c-0.362,1.338-0.742,2.67-1.141,3.997C322.089,557.735,322.321,557.708,322.35,557.612z"/>
			<path fill="#121212" d="M326.04,557.591c-0.654-1.356-1.327-2.702-2.019-4.036c-0.044-0.088-0.264,0-0.209,0.098
				c0.685,1.323,1.35,2.656,1.998,3.999C325.858,557.749,326.083,557.681,326.04,557.591z"/>
			<path fill="#334C4B" d="M323.333,558.191l-0.159-5.459h0.988l0.356,5.459H323.333z"/>
			<path fill="#121212" d="M326.016,557.452v-0.793h-0.261v0.206l-1.108,0.046v-0.252h-0.312v0.266l-0.881,0.035v-0.301h-0.286
				v0.312l-0.982,0.041l-0.029-0.353h-0.369l0.135,0.929l-0.519,0.017v0.767l4.89-0.218v-0.711L326.016,557.452z M325.756,557.183
				v0.279l-1.108,0.035v-0.295L325.756,557.183z M324.329,557.207v0.299l-0.881,0.028v-0.312L324.329,557.207z M322.198,557.242
				l0.964-0.017v0.318l-0.936,0.03L322.198,557.242z"/>
			<path fill="#8BC3D2" d="M320.046,558.16v34.778l7.696,0.011l-0.419-34.789H320.046z"/>
			<path d="M325.306,591.739c0-0.041-0.065-0.054-0.095-0.056l-2.69-0.174c-0.063,0-0.2,0.029-0.207,0.112
				c-0.052,0.49-0.102,0.979-0.153,1.47c-0.002,0.015,0.001,0.028,0.009,0.041c0.01,0.021,0.027,0.032,0.05,0.034
				c0.019,0.004,0.038,0.004,0.057,0l2.954,0.137c0.078,0,0.216-0.037,0.207-0.135C325.395,592.689,325.351,592.214,325.306,591.739
				z"/>
			<path fill="#4E9291" d="M320.755,558.892h6.258v29.465l-5.928,0.275L320.755,558.892z"/>
			<path fill="#8BC7D2" d="M327.266,581.046c0.039,0,0.185-0.06,0.143-0.064c-0.141-0.015-0.281-0.026-0.421-0.037l-0.013-0.819
				h0.105c0.037,0,0.185-0.071,0.111-0.073h-0.218l-0.011-0.667h0.33c0.102,0,0.129-0.132,0.015-0.134h-0.347
				c0-0.26,0-0.522-0.013-0.784v-0.14h0.059c0.037,0,0.185-0.067,0.111-0.068h-0.172l-0.016-1.086h0.321
				c0.1,0,0.127-0.13,0.013-0.134h-0.336c0-0.186,0-0.372-0.009-0.557l0.294-0.03c0.094-0.011,0.133-0.137,0.015-0.124
				c-0.119,0.013-0.207,0.022-0.311,0.031c0-0.273-0.009-0.544-0.013-0.816h0.227c0.094,0,0.137-0.115,0.019-0.113h-0.248
				c0-0.243,0-0.487-0.013-0.728c0.057-0.017,0.135-0.058,0.07-0.065h-0.07l-0.017-0.974h0.133c0.035,0,0.194-0.063,0.113-0.065
				h-0.246c0-0.372-0.013-0.743-0.019-1.115h0.399c0.1,0,0.127-0.132,0.013-0.136h-0.414c0-0.26-0.009-0.52-0.013-0.78l0.393,0.035
				c0.039,0,0.185-0.059,0.14-0.063c-0.185-0.019-0.357-0.034-0.535-0.049c0-0.269,0-0.539-0.013-0.81h0.222
				c0.037,0,0.194-0.071,0.11-0.073h-0.334l-0.01-0.669l0.445,0.011c0.101,0,0.129-0.13,0.013-0.134l-0.462-0.011
				c0-0.307,0-0.611-0.014-0.918h0.175c0.035,0,0.185-0.067,0.111-0.069h-0.286l-0.013-0.71h0.185c0.102,0,0.129-0.132,0.013-0.134
				h-0.201c0-0.186,0-0.385,0-0.576l0.159-0.015c0.094-0.013,0.133-0.139,0.017-0.125l-0.185,0.017c0-0.267,0-0.535-0.013-0.804
				h0.094c0.092,0,0.135-0.117,0.019-0.115h-0.114l-0.028-1.767c0.035,0,0.185-0.062,0.111-0.064h-0.113
				c0-0.372-0.007-0.743-0.019-1.115h0.264c0.102,0,0.129-0.132,0.013-0.134h-0.279l-0.013-0.756v-0.014l0.258,0.022
				c0.039,0,0.185-0.059,0.143-0.064l-0.401-0.035c0-0.273-0.009-0.546-0.014-0.819h0.086c0.039,0,0.196-0.068,0.111-0.07h-0.197
				l-0.013-0.68h0.312c0.099,0,0.127-0.132,0.013-0.134h-0.327l-0.011-0.645v-0.262h0.061c0.061,0,0.185-0.088,0.068-0.089h-0.131
				c0-0.135,0-0.273,0-0.411c0.022-0.133,0.022-0.266,0-0.4c-0.002-0.016-0.002-0.033,0-0.05c0-0.056-0.173-0.022-0.171,0.044
				c0,0.271,0.009,0.542,0.013,0.812l-1.178-0.022c-0.001-0.169-0.017-0.336-0.046-0.502c-0.004-0.04-0.004-0.081,0-0.121
				c0-0.026-0.174,0-0.172,0.045l0.041,0.574l-0.96-0.019v-0.198c0.024-0.18,0.024-0.361,0-0.541c-0.004-0.025-0.004-0.049,0-0.073
				c0-0.034-0.171,0-0.171,0.044l0.013,0.765l-0.973-0.019v-0.327c0.019-0.134,0.019-0.268,0-0.402c-0.002-0.017-0.002-0.034,0-0.05
				c0-0.08-0.174-0.046-0.172,0.019l0.011,0.756l-0.973-0.019v-0.32c0.02-0.133,0.02-0.266,0-0.4c0-0.011,0-0.037,0-0.05
				c0-0.013-0.171,0-0.171,0.044l0.011,0.721l-1.077-0.02c-0.059,0-0.185,0.088-0.068,0.089l1.147,0.022l0.013,0.88l-1.119-0.026
				c-0.1,0-0.128,0.13-0.013,0.134l1.134,0.028l0.011,0.743c-0.321,0-0.643,0-0.966,0c-0.037,0-0.185,0.07-0.111,0.07h1.078
				c0,0.099,0,0.199,0,0.297c0,0.156,0,0.314,0,0.472c-0.358,0.017-0.716,0.04-1.073,0.067c-0.042,0-0.185,0.073-0.076,0.064
				c0.382-0.03,0.767-0.052,1.15-0.071l0.011,0.786l-1.276-0.022c-0.099,0-0.128,0.13-0.013,0.134l1.293,0.025l0.017,1.085
				l-0.89-0.022c-0.034,0-0.185,0.061-0.113,0.063l1.003,0.026c0,0.316,0,0.632,0.014,0.948c-0.361,0.013-0.723,0.032-1.084,0.056
				c-0.048,0-0.185,0.078-0.074,0.071c0.385-0.026,0.771-0.046,1.157-0.058c0,0.294,0,0.587,0.015,0.881l-1.108-0.015
				c-0.076,0-0.185,0.112-0.061,0.113c0.388,0.008,0.776,0.013,1.163,0.017c0,0.197,0,0.394,0,0.591
				c-0.331-0.013-0.661-0.017-0.992,0c-0.098,0-0.132,0.128-0.016,0.125c0.337-0.015,0.674-0.011,1.01,0c0,0.269,0,0.541,0.013,0.81
				c-0.358,0.013-0.716,0.024-1.075,0.041c-0.1,0-0.129,0.14-0.013,0.134c0.369-0.017,0.726-0.03,1.09-0.041
				c0,0.186,0,0.388,0,0.582l-0.91-0.017c-0.034,0-0.185,0.065-0.111,0.067l1.021,0.019v0.143l0.011,0.743l-0.971-0.024
				c-0.102,0-0.129,0.132-0.013,0.134l0.986,0.024l0.011,0.753h-0.818c-0.037,0-0.185,0.073-0.111,0.073c0.31,0,0.62,0,0.923,0
				l0.011,0.774c-0.309,0.017-0.619,0.035-0.924,0.062c-0.042,0-0.185,0.073-0.076,0.063c0.334-0.026,0.67-0.046,1.005-0.065
				l0.011,0.779l-1.129-0.023c-0.101,0-0.129,0.132-0.013,0.134l1.143,0.022l0.016,1.083l-0.738-0.019
				c-0.033,0-0.185,0.063-0.113,0.065l0.857,0.02c0,0.319,0.011,0.639,0.014,0.958c-0.312,0.013-0.626,0.028-0.938,0.05
				c-0.046,0-0.185,0.078-0.074,0.071c0.338-0.025,0.676-0.039,1.014-0.054l0.013,0.875c-0.319,0-0.637,0-0.955-0.015
				c-0.076,0-0.185,0.113-0.063,0.115l1.02,0.015c0,0.186,0,0.39,0,0.587c-0.281,0-0.554-0.01-0.846,0
				c-0.096,0-0.133,0.13-0.015,0.125c0.288-0.011,0.577-0.011,0.863,0c0,0.273,0,0.546,0.013,0.819
				c-0.309,0.013-0.619,0.022-0.924,0.037c-0.099,0-0.129,0.139-0.013,0.134c0.313-0.015,0.628-0.024,0.942-0.037
				c0,0.091,0,0.186,0,0.269l0.011,0.68l-1.012-0.019c-0.037,0-0.185,0.067-0.113,0.069l1.124,0.022c0,0.297,0,0.593,0.013,0.89
				l-1.075-0.026c-0.102,0-0.129,0.13-0.013,0.134l1.092,0.026l0.011,0.743h-0.924c-0.037,0-0.194,0.073-0.111,0.073
				c0.345,0,0.691,0,1.035,0l0.011,0.769c-0.343,0.017-0.687,0.039-1.03,0.065c-0.043,0-0.185,0.074-0.074,0.065
				c0.369-0.029,0.738-0.053,1.108-0.068l0.011,0.782l-1.232-0.022c-0.1,0-0.128,0.132-0.013,0.134l1.247,0.024l0.016,1.083
				l-0.848-0.02c-0.033,0-0.185,0.064-0.113,0.065l0.963,0.024c0,0.316,0,0.634,0.013,0.949c-0.347,0.015-0.694,0.032-1.041,0.056
				c-0.046,0-0.185,0.078-0.074,0.071c0.369-0.026,0.739-0.044,1.108-0.058c0,0.294,0,0.585,0.013,0.879
				c-0.352,0-0.705,0-1.058-0.015c-0.076,0-0.185,0.114-0.063,0.116c0.369,0,0.739,0.011,1.123,0.014c0,0.197,0,0.394,0,0.589
				c-0.317-0.009-0.633-0.013-0.951,0c-0.096,0-0.131,0.13-0.015,0.125c0.323-0.013,0.644,0,0.968,0l0.011,0.812
				c-0.343,0.013-0.687,0.024-1.03,0.041c-0.099,0-0.129,0.139-0.013,0.134c0.349-0.017,0.697-0.028,1.045-0.041
				c0,0.217,0,0.435,0.009,0.652v0.091c-0.369,0.013-0.759,0.026-1.137,0.043c-0.1,0-0.129,0.141-0.013,0.135
				c0.384-0.019,0.768-0.031,1.153-0.046c0,0.186,0,0.372,0,0.542c-0.023,0.134-0.023,0.267,0,0.402c0.002,0.017,0.002,0.034,0,0.05
				c0,0.028,0.171,0,0.171-0.046l-0.015-0.953c0.326-0.011,0.649-0.019,0.972-0.025v0.557c-0.018,0.133-0.018,0.267,0,0.4
				c0.002,0.017,0.002,0.035,0,0.052c0,0.078,0.171,0.044,0.171-0.019c0-0.333-0.011-0.665-0.014-0.996
				c0.46-0.01,0.923-0.015,1.381-0.015c0.02,0.281,0.039,0.557,0.058,0.842c0,0.06,0.009,0.117,0.013,0.177s0.174,0,0.17-0.047
				c-0.02-0.325-0.043-0.648-0.065-0.973h0.456l-0.017,0.539c-0.032,0.207-0.04,0.415-0.02,0.625c0.004,0.029,0.004,0.058,0,0.087
				c0,0.019,0.17,0,0.172-0.046l0.038-1.204c0.44,0,0.881,0,1.321,0.02c0,0.186,0,0.381,0.009,0.572c-0.02,0.134-0.02,0.267,0,0.402
				c0.003,0.016,0.003,0.033,0,0.05c0,0.054,0.174,0.02,0.172-0.046l-0.017-0.976h0.098c0.099,0,0.127-0.132,0.013-0.134h-0.113
				l-0.011-0.743h0.205c0.101,0,0.129-0.13,0.013-0.134h-0.219v-0.574l0.185-0.017c0.094-0.011,0.133-0.139,0.016-0.125
				l-0.197,0.019c0-0.083,0-0.169,0-0.254c0-0.186,0-0.372,0-0.557h0.125c0.094,0,0.137-0.116,0.019-0.113h-0.133l-0.028-1.768
				h0.019c0.033,0,0.185-0.063,0.111-0.065h-0.131l-0.017-1.115h0.283c0.101,0,0.129-0.132,0.013-0.134h-0.299l-0.011-0.771
				L327.266,581.046z M326.816,580.928c-0.334-0.026-0.669-0.052-1.003-0.068l0.024-0.743l0.966,0.013
				c0.002,0.262,0.002,0.532,0.013,0.801V580.928z M325.544,583.968c-0.27-0.017-0.539-0.03-0.81-0.039l-0.059-0.879l0.899,0.021
				c0,0.139-0.009,0.279-0.014,0.418C325.553,583.629,325.549,583.808,325.544,583.968z M323.389,585.551v-0.542
				c0.419,0,0.836,0,1.254,0l0.052,0.771c-0.432-0.033-0.863-0.072-1.293-0.109L323.389,585.551z M323.283,578.481
				c0-0.072,0-0.144,0-0.219l0.977,0.019c0,0.303,0.015,0.604,0.024,0.904l-0.988-0.024
				C323.296,578.935,323.296,578.7,323.283,578.481z M323.156,569.933v-0.08l0.973,0.024l0.011,0.701h-0.973L323.156,569.933z
				 M323.045,562.534v-0.186c0.323,0,0.648,0,0.971,0v0.372c0,0.164,0,0.327,0,0.492l-0.971-0.019V562.534z M325.446,564.487
				l-1.226-0.03l-0.013-0.886c0-0.071,0-0.141,0-0.212l1.165,0.023L325.446,564.487z M326.569,565.558
				c-0.292-0.028-0.586-0.052-0.879-0.073v-0.02c-0.022-0.299-0.042-0.601-0.064-0.9l0.923,0.023
				c0.007,0.318,0.013,0.641,0.019,0.964L326.569,565.558z M325.516,565.472c-0.429-0.028-0.855-0.05-1.282-0.063
				c0-0.292,0-0.586-0.013-0.879l1.23,0.032c0.019,0.297,0.041,0.602,0.061,0.905L325.516,565.472z M325.848,570.223
				c0.01,0.125,0.015,0.249,0.02,0.372c-0.518,0-1.038-0.017-1.557-0.02l-0.011-0.699l1.527,0.037
				c0.006,0.101,0.013,0.203,0.019,0.305L325.848,570.223z M325.907,572.332l-1.572-0.029c0-0.201,0-0.402,0-0.602v-0.264
				c0.526,0.01,1.052,0.031,1.579,0.062c-0.009,0.273-0.007,0.55-0.009,0.828L325.907,572.332z M325.789,576.398
				c-0.466-0.009-0.924-0.039-1.392-0.076l-0.011-0.743c0.477,0,0.953,0,1.43,0v0.186c-0.015,0.197-0.022,0.412-0.028,0.628
				L325.789,576.398z M324.452,579.185c-0.011-0.301-0.019-0.602-0.024-0.904l1.293,0.026c-0.01,0.303-0.019,0.606-0.03,0.911
				L324.452,579.185z M325.693,579.351l-0.022,0.682l-1.184-0.015c-0.011-0.232-0.02-0.465-0.029-0.698L325.693,579.351z
				 M324.426,578.21c0-0.035,0-0.071,0-0.106c0-0.316-0.009-0.632-0.013-0.948c0.45,0,0.903,0,1.353,0l-0.034,1.08L324.426,578.21z
				 M324.404,577.028c0-0.195,0-0.39,0-0.585c0.462,0.039,0.924,0.068,1.385,0.076c0,0.169-0.01,0.338-0.015,0.507
				C325.313,577.028,324.858,577.028,324.404,577.028z M324.38,575.452l-0.013-0.901c0.492,0.015,0.985,0.04,1.477,0.074
				c-0.009,0.273-0.019,0.546-0.029,0.819c-0.478,0.004-0.955,0.005-1.433,0.005L324.38,575.452z M324.365,574.477
				c0-0.294-0.009-0.586-0.013-0.879l1.525,0.037c-0.01,0.305-0.019,0.607-0.03,0.912c-0.493-0.035-0.986-0.059-1.481-0.073
				L324.365,574.477z M324.351,573.531c0-0.372-0.011-0.732-0.015-1.098l1.566,0.029c0,0.372-0.011,0.743-0.022,1.115
				L324.351,573.531z M324.319,571.366l-0.011-0.719l1.56,0.02c0.013,0.251,0.022,0.503,0.028,0.754
				c-0.524-0.031-1.048-0.05-1.575-0.058L324.319,571.366z M324.295,569.742c0-0.303,0-0.604-0.014-0.905l1.477,0.028
				c0.02,0.305,0.043,0.61,0.065,0.914L324.295,569.742z M324.281,568.766l-0.011-0.68c0.477,0,0.952,0,1.426,0l0.05,0.708
				L324.281,568.766z M324.267,567.953v-0.572c0.463,0.037,0.924,0.063,1.391,0.065c0.011,0.169,0.024,0.339,0.035,0.509
				c-0.477-0.007-0.951-0.008-1.424-0.004L324.267,567.953z M324.258,567.254l-0.011-0.762c0.445,0,0.89,0,1.335-0.009
				c0.02,0.281,0.038,0.557,0.059,0.838c-0.46-0.006-0.921-0.032-1.381-0.069L324.258,567.254z M324.245,566.377
				c0-0.299-0.009-0.598-0.014-0.897c0.43,0.014,0.858,0.039,1.292,0.068c0.019,0.273,0.037,0.557,0.058,0.821
				c-0.446,0.005-0.89,0.007-1.334,0.006L324.245,566.377z M324.197,563.218c0-0.29,0-0.578-0.013-0.866
				c0.369,0,0.738,0.02,1.108,0.039c0.02,0.282,0.039,0.557,0.059,0.848L324.197,563.218z M324.185,562.289l-0.011-0.719
				c0.355,0,0.711,0,1.066,0.013c0.016,0.247,0.035,0.494,0.052,0.743c-0.367-0.015-0.735-0.028-1.104-0.034L324.185,562.289z
				 M324.171,561.497c0-0.234,0-0.466-0.009-0.698l1.023,0.026c0.017,0.228,0.032,0.457,0.048,0.686
				c-0.351-0.002-0.705-0.008-1.06-0.01L324.171,561.497z M323.999,561.497h-0.971l-0.011-0.719l0.973,0.025
				c0.004,0.228,0.007,0.463,0.011,0.695H323.999z M323.999,561.57l0.011,0.719c-0.325,0-0.648,0-0.973,0l-0.011-0.721
				L323.999,561.57z M324.026,563.355l0.016,1.098l-0.971-0.024l-0.017-1.093L324.026,563.355z M324.044,564.521
				c0,0.294,0,0.585,0.013,0.879c-0.325,0-0.648-0.013-0.973-0.013c0-0.297-0.009-0.593-0.013-0.89L324.044,564.521z
				 M324.057,565.474c0,0.301,0.009,0.602,0.015,0.903h-0.973l-0.013-0.914c0.327-0.004,0.652,0.002,0.975,0.011H324.057z
				 M324.074,566.49l0.011,0.743l-0.975-0.086c0-0.221,0-0.444-0.01-0.665L324.074,566.49z M324.086,567.364
				c0,0.197,0,0.392,0,0.587l-0.971,0.014c0-0.228,0-0.457,0-0.686c0.325,0.028,0.65,0.058,0.975,0.086L324.086,567.364z
				 M324.086,568.085l0.011,0.678l-0.973-0.019c0-0.215,0-0.429,0-0.644L324.086,568.085z M324.098,568.828
				c0,0.301,0.009,0.602,0.014,0.903l-0.973-0.022c0-0.301,0-0.6-0.013-0.899L324.098,568.828z M324.125,570.639v0.056l0.009,0.662
				c-0.325,0-0.648,0-0.973,0c0-0.243,0-0.485,0-0.727L324.125,570.639z M324.136,571.424c0,0.288,0,0.578,0.013,0.866l-0.971-0.019
				l-0.013-0.847c0.336,0,0.661,0,0.984,0.004L324.136,571.424z M324.153,572.423c0,0.372,0,0.732,0.015,1.098l-0.972-0.024
				l-0.016-1.093L324.153,572.423z M324.17,573.588c0,0.292,0,0.586,0.013,0.877c-0.323,0-0.648-0.011-0.973,0l-0.013-0.892
				L324.17,573.588z M323.211,574.529c0.325,0,0.648,0,0.973,0.011l0.013,0.909c-0.325,0-0.648,0-0.973,0
				c0.009-0.306,0.004-0.611,0-0.916L323.211,574.529z M324.199,575.562l0.011,0.743l-0.973-0.085l-0.011-0.654L324.199,575.562z
				 M324.212,576.424c0,0.198,0,0.397,0.009,0.598c-0.325,0-0.648,0.011-0.973,0.019v-0.702L324.212,576.424z M324.223,577.156
				v0.457c0,0.197,0,0.396,0.013,0.593l-0.977-0.019c0-0.339-0.009-0.677-0.015-1.013c0.343-0.004,0.667-0.011,0.992-0.015
				L324.223,577.156z M324.271,579.315c0,0.234,0.019,0.467,0.028,0.701c-0.334,0-0.671,0-1.006,0l0.004-0.721L324.271,579.315z
				 M324.303,580.088c0.011,0.24,0.024,0.478,0.037,0.717c-0.345,0-0.69,0-1.034,0l-0.011-0.723
				c0.349,0.005,0.685,0.005,1.021,0.009L324.303,580.088z M324.344,580.874c0.011,0.186,0.02,0.357,0.031,0.535l0.024,0.331
				l-1.08-0.02c0-0.284,0-0.567-0.013-0.851c0.36,0,0.706,0.002,1.051,0.01L324.344,580.874z M324.408,581.874
				c0.024,0.372,0.048,0.743,0.074,1.1l-1.145-0.028l-0.004-1.087L324.408,581.874z M324.486,583.041l0.061,0.881
				c-0.399-0.012-0.797-0.019-1.195-0.019l-0.014-0.89L324.486,583.041z M324.55,583.996l0.061,0.898h-1.244
				c0-0.307,0-0.611-0.015-0.917c0.414,0.002,0.813,0.008,1.211,0.023L324.55,583.996z M324.681,585.904l0.037,0.557
				c-0.443,0-0.887,0.005-1.329,0.017c0-0.23,0-0.461,0-0.689c0.438,0.046,0.872,0.086,1.306,0.119L324.681,585.904z
				 M324.855,585.918c0.205,0.013,0.408,0.024,0.613,0.032l-0.017,0.516h-0.554L324.855,585.918z M324.855,585.791l-0.053-0.784
				h0.703c-0.009,0.275-0.019,0.548-0.026,0.821c-0.203-0.007-0.412-0.019-0.619-0.034L324.855,585.791z M324.794,584.892
				l-0.061-0.89c0.267,0.011,0.535,0.026,0.803,0.041l-0.028,0.848L324.794,584.892z M324.662,582.978
				c-0.016-0.26-0.035-0.52-0.052-0.779l-0.022-0.322l1.016,0.019c-0.011,0.372-0.024,0.743-0.035,1.104L324.662,582.978z
				 M324.589,581.748c-0.02-0.29-0.037-0.578-0.053-0.866c0.369,0.007,0.738,0.02,1.108,0.039l-0.028,0.845L324.589,581.748z
				 M324.53,580.819c-0.013-0.24-0.028-0.479-0.039-0.719l1.178,0.014c0,0.248-0.016,0.495-0.024,0.743
				c-0.373-0.026-0.744-0.037-1.117-0.044L324.53,580.819z M326.803,580.057l-0.962-0.013l0.022-0.68l0.923,0.022L326.803,580.057z
				 M326.79,579.252l-0.923-0.022c0.011-0.305,0.02-0.608,0.029-0.912l0.879,0.017L326.79,579.252z M326.762,577.491l0.011,0.773
				l-0.876-0.017c0.013-0.361,0.025-0.721,0.035-1.081l0.824,0.013L326.762,577.491z M326.762,577.045
				c-0.273,0-0.545-0.011-0.818-0.013l0.016-0.475v-0.032c0.264,0,0.528,0,0.792-0.024c-0.005,0.176-0.004,0.357,0,0.539
				L326.762,577.045z M326.751,576.378c-0.263,0.017-0.525,0.025-0.785,0.022c0.01-0.281,0.019-0.557,0.032-0.84h0.738
				c-0.004,0.26,0,0.539,0.005,0.812L326.751,576.378z M326.001,575.448c0.011-0.267,0.022-0.537,0.031-0.804
				c0.231,0.017,0.462,0.037,0.691,0.059c0,0.245,0,0.491,0.013,0.743L326.001,575.448z M326.722,574.624
				c-0.227-0.022-0.456-0.041-0.685-0.059c0.011-0.305,0.022-0.611,0.031-0.918l0.639,0.015c-0.004,0.314,0.002,0.634,0.005,0.951
				L326.722,574.624z M326.705,573.594l-0.635-0.017c0.011-0.372,0.019-0.743,0.02-1.105l0.598,0.011L326.705,573.594z
				 M326.687,572.349l-0.595-0.013c0-0.272,0-0.543,0-0.814v-0.01c0.196,0.013,0.391,0.026,0.587,0.043
				c-0.011,0.256-0.008,0.52-0.002,0.786L326.687,572.349z M326.672,571.48l-0.587-0.041c0-0.254-0.013-0.509-0.024-0.764h0.598
				c-0.005,0.266,0,0.532,0.004,0.797L326.672,571.48z M326.657,570.61h-0.598c-0.011-0.227-0.02-0.454-0.034-0.679l0.62,0.015
				L326.657,570.61z M326.631,568.938l0.013,0.867l-0.628-0.016c-0.017-0.305-0.037-0.61-0.059-0.915l0.672,0.013L326.631,568.938z
				 M326.631,568.818l-0.676-0.013c-0.019-0.236-0.035-0.472-0.053-0.708c0.238,0,0.478,0,0.716,0.011
				c0.002,0.228,0.002,0.465,0.002,0.703L326.631,568.818z M326.616,567.973l-0.726-0.011l-0.039-0.511
				c0.251,0,0.505-0.013,0.755-0.034c-0.007,0.178-0.004,0.364-0.002,0.548L326.616,567.973z M326.605,567.295
				c-0.255,0.02-0.509,0.03-0.764,0.032l-0.067-0.84c0.273,0,0.545,0,0.818-0.011L326.605,567.295z M325.765,566.366
				c-0.02-0.269-0.041-0.539-0.059-0.806c0.29,0.02,0.58,0.046,0.87,0.074l0.011,0.721c-0.283,0.005-0.558,0.007-0.833,0.011
				H325.765z M326.561,564.507l-0.923-0.022l-0.077-1.115l0.99,0.02c-0.013,0.383-0.005,0.755,0,1.125L326.561,564.507z
				 M326.53,563.277l-0.997-0.019c-0.02-0.281-0.041-0.557-0.059-0.84c0.347,0.02,0.696,0.046,1.044,0.076
				C326.521,562.746,326.526,563.008,326.53,563.277z M326.507,561.869c0,0.186,0,0.372,0.01,0.557
				c-0.351-0.029-0.701-0.055-1.049-0.074c-0.019-0.249-0.035-0.498-0.054-0.743l1.088,0.013L326.507,561.869z M326.507,561.538
				l-1.092-0.013c-0.016-0.229-0.033-0.456-0.048-0.684l1.129,0.028L326.507,561.538z M326.48,559.828l0.015,0.907l-1.136-0.028
				c-0.017-0.214-0.031-0.429-0.046-0.643c0-0.083,0-0.171-0.011-0.258L326.48,559.828z M325.121,559.803l0.062,0.901l-1.015-0.026
				v-0.186l-0.011-0.708L325.121,559.803z M323.981,559.78l0.013,0.894l-0.971-0.024v-0.888L323.981,559.78z M321.87,560.095v-0.355
				l0.973,0.019c0,0.296,0,0.591,0.013,0.888l-0.973-0.024c-0.013-0.186-0.017-0.36-0.019-0.537L321.87,560.095z M321.87,560.756
				l0.973,0.025l0.011,0.722h-0.973L321.87,560.756z M321.884,561.573h0.971c0,0.093,0,0.186,0,0.279c0,0.149,0,0.297,0,0.446
				c-0.323,0-0.648,0.017-0.971,0.032V561.573z M321.899,562.525v-0.132c0.325-0.014,0.648-0.024,0.973-0.029l0.011,0.845
				l-0.972-0.019c-0.004-0.23-0.007-0.453-0.009-0.674L321.899,562.525z M321.909,563.324l0.972,0.019l0.016,1.093l-0.971-0.024
				L321.909,563.324z M321.926,564.478l0.973,0.024c0,0.297,0,0.595,0.013,0.892c-0.323,0-0.648,0.011-0.972,0.022
				c-0.002-0.323-0.005-0.635-0.011-0.948L321.926,564.478z M321.94,565.483c0.326,0,0.649-0.015,0.973-0.017l0.013,0.916h-0.972
				c-0.002-0.318-0.005-0.611-0.011-0.909L321.94,565.483z M321.955,566.49h0.973c0,0.218,0,0.435,0,0.652
				c-0.323-0.028-0.649-0.052-0.973-0.067c0.011-0.198,0.007-0.397,0.004-0.595L321.955,566.49z M321.967,567.21
				c0.325,0.014,0.65,0.039,0.973,0.065l0.011,0.704c-0.325,0-0.649,0.015-0.972,0.026c0-0.267-0.005-0.541-0.009-0.804
				L321.967,567.21z M321.981,568.139c0.323-0.011,0.649-0.019,0.972-0.026c0,0.212,0,0.426,0,0.638l-0.972-0.019V568.139z
				 M321.981,568.8l0.973,0.019v0.108c0,0.262,0,0.526,0.013,0.79l-0.973-0.025L321.981,568.8z M321.998,569.915v-0.093l0.973,0.023
				l0.011,0.728h-0.973L321.998,569.915z M322.009,570.641h0.972l0.011,0.731c-0.323,0-0.646,0.019-0.971,0.035L322.009,570.641z
				 M322.022,571.468c0.323-0.015,0.646-0.026,0.971-0.032c0,0.279,0,0.557,0.013,0.838l-0.973-0.019L322.022,571.468z
				 M322.035,572.397l0.973,0.019c0,0.372,0,0.727,0.015,1.089l-0.972-0.025L322.035,572.397z M322.051,573.549l0.973,0.024
				l0.013,0.898c-0.323,0-0.648,0.013-0.971,0.024L322.051,573.549z M322.068,574.564c0.323-0.011,0.646-0.02,0.972-0.023
				c0,0.305,0,0.61,0.013,0.915l-0.971-0.01L322.068,574.564z M322.083,575.562l0.971,0.01c0,0.213,0,0.427,0,0.641
				c-0.323-0.026-0.648-0.046-0.973-0.059c0.02-0.206,0.016-0.403,0.014-0.6L322.083,575.562z M322.083,576.277
				c0.325,0.013,0.65,0.035,0.973,0.061l0.011,0.719c-0.323,0-0.649,0.017-0.972,0.028c0.019-0.279,0.015-0.548,0.01-0.818
				L322.083,576.277z M322.098,577.22c0.323-0.011,0.649-0.021,0.972-0.028c0,0.097,0,0.186,0,0.29l0.011,0.715l-0.971-0.019
				L322.098,577.22z M322.116,578.475v-0.227l0.973,0.02c0,0.297,0,0.596,0.013,0.896l-0.971-0.024L322.116,578.475z
				 M322.129,579.276l0.971,0.025l0.011,0.723h-0.972L322.129,579.276z M322.14,580.094h0.973c0,0.242,0,0.485,0.009,0.727
				c-0.323,0-0.646,0.019-0.971,0.034L322.14,580.094z M322.153,580.916c0.323-0.013,0.648-0.025,0.971-0.03
				c0,0.281,0,0.557,0.013,0.843l-0.973-0.019L322.153,580.916z M322.166,581.845l0.973,0.019l0.017,1.092l-0.973-0.024
				L322.166,581.845z M322.184,582.999l0.972,0.024l0.013,0.894c-0.323,0-0.646,0.011-0.971,0.022L322.184,582.999z
				 M322.199,584.007c0.323-0.011,0.648-0.019,0.971-0.02c0,0.297,0,0.595,0.013,0.89v0.026h-0.972
				c0.019-0.314,0.013-0.61,0.01-0.905L322.199,584.007z M322.222,585.548c0-0.186,0-0.358,0-0.537h0.971v0.649
				c-0.323-0.026-0.648-0.05-0.971-0.063V585.548z M322.222,585.734c0.323,0.015,0.648,0.037,0.971,0.065l0.011,0.708
				c-0.323,0-0.649,0.016-0.972,0.028L322.222,585.734z M322.246,587.406l-0.011-0.743c0.325-0.011,0.649-0.019,0.972-0.026
				l0.011,0.673v0.073c-0.29-0.004-0.62,0.002-0.945,0.013L322.246,587.406z M323.389,587.378l-0.011-0.743
				c0.447-0.008,0.893-0.014,1.337-0.016c0.016,0.249,0.033,0.497,0.052,0.743c-0.434-0.01-0.892-0.004-1.352,0.005L323.389,587.378
				z M324.94,587.362c-0.017-0.248-0.034-0.496-0.052-0.743h0.554c0,0.087,0,0.173,0,0.26l-0.017,0.487
				c-0.146-0.017-0.303-0.015-0.468-0.015L324.94,587.362z M326.893,587.322v0.058c-0.438-0.01-0.875-0.017-1.315-0.019
				c0-0.249,0.016-0.498,0.024-0.743c0.426,0,0.853,0.009,1.28,0.019L326.893,587.322z M326.88,586.499
				c-0.424,0-0.849-0.017-1.274-0.019l0.016-0.509c0.417,0.013,0.833,0.004,1.249-0.028c0.028,0.175,0.031,0.359,0.035,0.545
				L326.88,586.499z M326.869,585.821c-0.414,0.031-0.828,0.04-1.243,0.026l0.028-0.831c0.4,0,0.801-0.009,1.2-0.014
				c0.032,0.262,0.035,0.535,0.041,0.808L326.869,585.821z M325.658,584.903l0.017-0.5v-0.333c0.386,0.026,0.771,0.056,1.157,0.095
				l0.011,0.722L325.658,584.903z M326.84,584.083c-0.384-0.037-0.768-0.067-1.153-0.093l0.028-0.903l1.108,0.026
				c0.033,0.312,0.039,0.635,0.043,0.959L326.84,584.083z M326.823,583.047l-1.108-0.026c0.011-0.372,0.023-0.74,0.035-1.106
				l1.053,0.02L326.823,583.047z M326.803,581.8l-1.045-0.019l0.028-0.838c0.334,0.019,0.67,0.044,1.004,0.073
				c0.032,0.251,0.035,0.513,0.039,0.773L326.803,581.8z"/>
			<path fill="#E5E6E6" d="M327.864,587.678c0-0.01,0-0.017-0.016-0.021c-0.058-2.077-0.172-4.164-0.124-6.242
				c0.035-1.577,0.037-3.159,0.032-4.734c0-1.645-0.022-3.29-0.059-4.932c-0.044-1.934-0.019-3.869-0.065-5.803
				c-0.062-2.581-0.17-5.162-0.115-7.743c0-0.059-0.057-0.071-0.103-0.071h-7.306c-0.042,0-0.127,0.037-0.127,0.089l0.017,2.928
				l0.037,7.033l0.046,8.514l0.041,7.396c0,0.81,0.004,1.619,0.013,2.426c0,0.251,0,0.5,0,0.743c0,0.088-0.015,0.199-0.011,0.297
				c-0.05,0-0.26,0.095-0.147,0.096h0.168c0.001,0.017,0.001,0.035,0,0.052c0,0.018,0.006,0.034,0.019,0.047
				c0.013,0.013,0.028,0.02,0.046,0.02c0.336,1.388,1.008,2.672,1.268,4.088h-0.541l-0.946-0.013c-0.072,0-0.248,0.108-0.094,0.11
				l1.612,0.02c0.043,0.022,0.087,0.022,0.131,0l4.432,0.056c0.017,0.019,0.08,0.017,0.135,0h0.328l0.948,0.011
				c0.072,0,0.246-0.106,0.094-0.108l-1.267-0.017c0.396-1.382,0.885-2.732,1.464-4.047c0.04-0.015,0.076-0.043,0.074-0.08
				c-0.002-0.037,0-0.059,0-0.088L327.864,587.678z M326.04,591.412c-0.331-1.199-0.669-2.397-1.047-3.581
				c-0.015-0.043-0.063-0.054-0.111-0.049c0-0.019,0-0.039,0-0.058l1.215,0.015C325.882,588.956,326.109,590.188,326.04,591.412z
				 M323.941,587.737c0.002-0.008,0.002-0.016,0-0.025l0.738,0.01c-0.143,1.279-0.42,2.527-0.829,3.746
				C323.922,590.227,323.951,588.983,323.941,587.737z M323.618,591.364l-0.854-3.592l0.015-0.062l0.949,0.013
				c-0.01,0.013-0.014,0.027-0.015,0.043C323.723,588.962,323.691,590.161,323.618,591.364z M322.545,587.722l-0.738,3.031
				c-0.049-1.022-0.097-2.045-0.146-3.068l0.896,0.011C322.55,587.704,322.546,587.712,322.545,587.722z M321.607,591.355
				c-0.31-1.255-0.89-2.416-1.187-3.685l1.03,0.013c-0.011,0.009-0.017,0.02-0.017,0.035
				C321.491,588.932,321.548,590.144,321.607,591.355z M321.817,591.641c0.02-0.011,0.031-0.028,0.031-0.05v-0.061
				c0.264-1.089,0.529-2.178,0.794-3.269c0.286,1.211,0.573,2.423,0.863,3.635l-1.74-0.023L321.817,591.641z M324.838,588.131
				c0.395,1.25,0.738,2.516,1.095,3.779c0,0,0,0.011,0.011,0.017l-2.031-0.026C324.357,590.678,324.665,589.421,324.838,588.131z
				 M326.332,587.742h0.285l0.947,0.013c0.019-0.002,0.038-0.007,0.056-0.013v0.015c-0.52,1.171-0.969,2.37-1.346,3.595
				C326.334,590.151,326.111,588.939,326.332,587.742z M326.474,558.292h0.812c-0.046,2.298,0.034,4.599,0.094,6.897
				c0.056,2.022,0.02,4.044,0.072,6.063c0.086,3.241,0.103,6.484,0.05,9.73c-0.041,2.23,0.053,4.46,0.114,6.68h-0.249
				c0.026-0.015,0.044-0.034,0.041-0.056c-0.338-2.085-0.739-4.17-0.979-6.27c-0.176-1.563-0.384-3.124-0.6-4.681
				c-0.224-1.61-0.463-3.221-0.715-4.831c-0.296-1.867-0.5-3.74-0.713-5.619l-0.881-7.816c0-0.022-0.035-0.03-0.074-0.028
				c0.005-0.025-0.004-0.043-0.026-0.056L326.474,558.292z M320.225,558.292h3.071c-0.042,0.009-0.07,0.034-0.082,0.076
				c-0.554,3.302-0.86,6.652-1.156,9.987c-0.343,3.914-0.654,7.827-1.06,11.735c-0.199,1.916-0.412,3.831-0.639,5.745v-1.061
				l-0.038-7.033l-0.05-8.518l-0.038-7.397c0-0.808-0.004-1.617-0.013-2.427v-0.743
				C320.233,558.535,320.235,558.413,320.225,558.292z M321.808,574.141c0.315-3.483,0.554-6.97,0.938-10.447
				c0.17-1.583,0.358-3.159,0.605-4.737l0.726,6.439c0.225,2.005,0.414,4.015,0.738,6.007c0.51,3.159,0.96,6.318,1.333,9.499
				c0.264,2.262,0.671,4.506,1.035,6.754l-0.883-0.011c-0.028-0.007-0.055-0.007-0.083,0l-5.148-0.064h-0.677
				C320.927,583.107,321.399,578.626,321.808,574.141z"/>
			<path fill="#121212" d="M323.097,553.921c0.128,0.27,0.421,0.297,0.687,0.273c0.229-0.02,0.524-0.106,0.538-0.383
				c0-0.102-0.225-0.061-0.229,0.026c-0.017,0.344-0.658,0.254-0.768,0.022C323.283,553.773,323.06,553.843,323.097,553.921z"/>
		</g>
		<g id="flat-iron_00000109716661461304931690000006906071427706284206_">
			<path fill="#88654A" d="M419.749,440.367h-10.061l-0.566-0.649l3.8-3.798c0,0,1.769-1.836,3.777,0l3.8,3.798L419.749,440.367"/>
			<g>
				<g>
					<path fill="#8E7A6C" d="M416.379,437.061l3.371,3.306v20.398h-3.371V437.061"/>
				</g>
				<path fill="#AA9D94" d="M416.367,437.061v23.704h-6.679v-20.398l3.371-3.306c0,0,0.508-0.907,1.676-0.907
					C415.902,436.153,416.367,437.061,416.367,437.061"/>
			</g>
			<path fill="#D9D4E2" d="M414.241,460.138h0.919v-1.423h-0.919V460.138z M414.241,457.995h0.919v-1.423h-0.919V457.995z
				 M414.241,455.891h0.919v-1.423h-0.919V455.891z M414.241,453.748h0.919v-1.423h-0.919V453.748z M414.241,451.585h0.919v-1.423
				h-0.919V451.585z M414.241,449.441h0.919v-1.423h-0.919V449.441z M414.241,446.484h0.919v-1.423h-0.919V446.484z
				 M414.241,442.812h0.919v-2.876h-0.919V442.812z M414.241,437.885h0.919v-0.919h-0.919V437.885z M418.401,445.544l0.674,0.735
				v-2.668l-0.674-0.735V445.544z M417.071,444.254l0.674,0.735v-2.668l-0.674-0.735V444.254z M418.401,458.435l0.674,0.735v-0.919
				l-0.674-0.735V458.435z M417.071,457.145l0.674,0.735v-0.919l-0.674-0.735V457.145z M418.401,456.322l0.674,0.735v-0.919
				l-0.674-0.735V456.322z M417.071,455.032l0.674,0.735v-0.919l-0.674-0.735V455.032z M418.401,454.179l0.674,0.735v-0.918
				l-0.674-0.735V454.179z M417.071,452.889l0.674,0.735v-0.919l-0.674-0.735V452.889z M418.401,452.066l0.674,0.735v-0.919
				l-0.674-0.735V452.066z M417.071,450.776l0.674,0.735v-0.919l-0.674-0.735V450.776z M418.401,449.035l0.674,0.735v-0.919
				l-0.674-0.735V449.035z M417.071,447.745l0.674,0.735v-0.919l-0.674-0.735V447.745z M418.401,439.64v0.919l0.674,0.735v-0.919
				L418.401,439.64z M417.071,439.269l0.674,0.735v-0.919l-0.674-0.735V439.269z M410.478,446.278l0.675-0.735v-2.669l-0.675,0.735
				V446.278z M411.809,444.988l0.674-0.735v-2.669l-0.674,0.735V444.988z M410.478,459.17l0.675-0.735v-0.918l-0.675,0.735V459.17z
				 M411.809,457.88l0.674-0.735v-0.918l-0.674,0.735V457.88z M410.478,457.057l0.675-0.735v-0.919l-0.675,0.735V457.057z
				 M411.809,455.768l0.674-0.735v-0.918l-0.674,0.735V455.768z M410.478,454.914l0.675-0.735v-0.919l-0.675,0.735V454.914z
				 M411.809,453.624l0.674-0.735v-0.919l-0.674,0.735V453.624z M410.478,452.801l0.675-0.735v-0.919l-0.675,0.735V452.801z
				 M411.809,451.511l0.674-0.735v-0.919l-0.674,0.735V451.511z M410.478,449.77l0.675-0.735v-0.919l-0.675,0.735V449.77z
				 M411.809,448.48l0.674-0.735v-0.918l-0.674,0.735V448.48z M410.478,441.294l0.675-0.735v-0.919l-0.675,0.735V441.294z
				 M411.809,439.085l0.674-0.735v0.919l-0.674,0.735V439.085"/>
			<path fill="#88654A" d="M419.758,451.263l-4.108-4.128c-0.935-0.867-1.826,0-1.826,0l-4.108,4.128v0.73l4.108-4.128
				c0,0,0.89-0.867,1.826,0l4.108,4.128V451.263z M419.758,448.02l-4.108-4.128c-0.935-0.866-1.826,0-1.826,0l-4.108,4.128v0.73
				l4.108-4.128c0,0,0.89-0.867,1.826,0l4.108,4.128V448.02z M419.758,443.663l-4.108-4.128c-0.935-0.867-1.826,0-1.826,0
				l-4.108,4.128v-0.73l4.108-4.128c0,0,0.89-0.867,1.826,0l4.108,4.128V443.663"/>
			<path fill="#AC9686" d="M409.123,438.395l3.8-3.798c0,0,1.769-1.836,3.777,0l3.8,3.798v1.323l-3.8-3.798
				c-2.008-1.836-3.777,0-3.777,0l-3.8,3.798V438.395"/>
		</g>
		<g id="empire-state_00000170254857856731121630000017294318494832185745_">
			<path fill="#D3C28C" d="M427.584,379.624c-0.151,0-0.273,0.122-0.273,0.273v2.333c0,0.151,0.122,0.273,0.273,0.273
				c0.151,0,0.273-0.122,0.273-0.273v-2.333C427.856,379.746,427.734,379.624,427.584,379.624z"/>
			<path fill="#EEDC9A" d="M444.289,402.212c-0.292-0.398-0.819-0.535-1.267-0.327c0.284-0.393,0.281-0.931,0-1.316
				c-0.289-0.398-0.816-0.535-1.264-0.328c-0.172-0.843-0.802-1.496-1.581-1.643c-0.904-0.172-1.843,0.368-2.212,1.313
				c-0.486-0.404-1.163-0.388-1.581,0c-0.338,0.317-0.461,0.835-0.317,1.316c-0.03-0.03-0.579-0.535-1.264-0.328
				c-0.538,0.161-0.928,0.69-0.947,1.313c-0.461-0.142-0.953-0.016-1.267,0.328c-0.358,0.396-0.322,0.903-0.314,0.988h12.014
				C444.57,403.135,444.57,402.597,444.289,402.212z"/>
			<path fill="#EEDC9A" d="M431.333,392.731h-0.527v-1.512h11.184c0.008-0.093,0.05-0.653-0.349-1.092
				c-0.347-0.382-0.89-0.521-1.398-0.363c-0.024-0.688-0.456-1.275-1.051-1.455c-0.756-0.226-1.366,0.333-1.398,0.363
				c0.161-0.532,0.022-1.105-0.349-1.455c-0.464-0.431-1.213-0.448-1.751,0c-0.41-1.042-1.45-1.643-2.449-1.452
				c-0.86,0.161-1.556,0.884-1.747,1.817c-0.494-0.232-1.079-0.076-1.401,0.363c-0.15,0.205-0.229,0.453-0.232,0.702h-0.404V386.9
				c-0.167-0.082-0.459-0.254-0.705-0.584c0-0.003-0.003-0.005-0.005-0.008c-0.194-0.267-0.287-0.595-0.287-0.925v-2.276
				c0-0.483-0.393-0.876-0.879-0.876c-0.483,0-0.876,0.393-0.876,0.876v1.299h-0.003c-0.696,0.281-1.291,0.862-1.6,1.648
				c-0.661-0.554-1.587-0.532-2.157,0c-0.459,0.428-0.628,1.135-0.431,1.793c-0.038-0.041-0.789-0.731-1.723-0.45
				c-0.734,0.221-1.264,0.947-1.294,1.793c-0.628-0.194-1.3-0.022-1.725,0.448c-0.489,0.54-0.44,1.23-0.431,1.345h7.023v1.749
				h-0.527v3.401c-0.107-0.063-0.221-0.112-0.342-0.147c-0.868-0.262-1.567,0.379-1.605,0.418c0.186-0.611,0.027-1.269-0.401-1.67
				c-0.53-0.494-1.39-0.513-2.007,0c-0.47-1.198-1.66-1.886-2.81-1.668c-0.986,0.186-1.786,1.015-2.007,2.085
				c-0.565-0.265-1.234-0.087-1.606,0.418c-0.355,0.486-0.358,1.171,0,1.667c-0.565-0.262-1.234-0.087-1.605,0.418
				c-0.355,0.486-0.358,1.171,0,1.668h12.383v10.333h-0.939v4.086h9.371v-4.086h-0.936V392.731z"/>
			<path fill="#7FBBBF" d="M444.289,402.212c0.281,0.385,0.281,0.922,0,1.316h-12.014c-0.008-0.085-0.044-0.592,0.314-0.988
				c0.314-0.344,0.806-0.469,1.267-0.328c0.019-0.622,0.409-1.151,0.947-1.313c0.686-0.207,1.234,0.298,1.264,0.328
				c-0.145-0.481-0.022-0.999,0.317-1.316c0.418-0.388,1.095-0.404,1.581,0c0.368-0.944,1.308-1.485,2.212-1.313
				c0.779,0.147,1.409,0.799,1.581,1.643c0.448-0.207,0.975-0.071,1.264,0.328c0.281,0.385,0.284,0.922,0,1.316
				C443.47,401.678,443.997,401.814,444.289,402.212z"/>
			<path fill="#7FBBBF" d="M423.837,396.132v3.187h-12.383c-0.358-0.497-0.355-1.182,0-1.668c0.371-0.505,1.041-0.68,1.605-0.418
				c-0.358-0.497-0.355-1.181,0-1.667c0.371-0.505,1.041-0.683,1.606-0.418c0.221-1.07,1.021-1.9,2.007-2.085
				c1.15-0.219,2.34,0.469,2.81,1.668c0.617-0.513,1.477-0.494,2.007,0c0.429,0.401,0.587,1.059,0.401,1.67
				c0.038-0.038,0.737-0.68,1.605-0.418C423.616,396.02,423.73,396.069,423.837,396.132z"/>
			<path fill="#7FBBBF" d="M441.641,390.128c0.399,0.439,0.358,0.999,0.349,1.092h-11.184v-1.695h-0.587v-0.876h-0.355
				c0.003-0.249,0.082-0.497,0.232-0.702c0.322-0.439,0.906-0.595,1.401-0.363c0.191-0.933,0.887-1.657,1.747-1.817
				c0.999-0.191,2.039,0.409,2.449,1.452c0.538-0.448,1.286-0.431,1.751,0c0.371,0.349,0.511,0.922,0.349,1.455
				c0.033-0.03,0.642-0.589,1.398-0.363c0.595,0.18,1.027,0.767,1.051,1.455C440.75,389.607,441.294,389.746,441.641,390.128z"/>
			<path fill="#7FBBBF" d="M426.707,384.405v0.977c0,0.33-0.093,0.658-0.289,0.925c-0.003,0.003-0.003,0.006-0.006,0.008
				c-0.243,0.33-0.538,0.502-0.702,0.584v1.749h-0.762v0.876h-0.584v1.457h-7.023c-0.008-0.115-0.057-0.805,0.431-1.345
				c0.426-0.47,1.098-0.642,1.725-0.448c0.03-0.846,0.56-1.572,1.294-1.793c0.934-0.281,1.685,0.409,1.723,0.45
				c-0.197-0.658-0.027-1.365,0.431-1.793c0.57-0.532,1.496-0.554,2.157,0c0.309-0.786,0.904-1.367,1.6-1.648H426.707z"/>
			<path fill="#B29576" d="M429.926,413.738h-7.028v-4.086h9.371v4.086H429.926z"/>
			<path fill="#B29576" d="M429.926,392.731h-5.562v-3.207h6.441v3.207H429.926z"/>
			<path fill="#D6B85A" d="M424.948,388.649h5.27v0.876h-5.27V388.649z"/>
			<path fill="#B29576" d="M425.71,387.773h3.749v0.876h-3.749V387.773z"/>
			<path fill="#D6B85A" d="M425.71,386.9h3.749v0.873h-3.749V386.9z"/>
			<path fill="#B29576" d="M428.463,383.106h-1.756c0-0.483,0.393-0.876,0.876-0.876C428.07,382.23,428.463,382.623,428.463,383.106
				z"/>
			<path fill="#E0CE92" d="M430.806,392.731h-0.587c0,0,0.071,2.557-0.292,5.606c-0.21,1.768-0.568,3.698-1.171,5.39
				c-0.317,0.892-0.702,1.717-1.171,2.418c-0.344,0.516-0.732,0.966-1.171,1.321c-0.355,0.292-0.746,0.524-1.171,0.68
				c-0.429,0.161-0.895,0.248-1.403,0.248v1.258h7.495v-16.921H430.806z"/>
			<path fill="#D3C28C" d="M427.584,383.403c-0.151,0-0.273,0.122-0.273,0.273v2.459c0,0.151,0.122,0.273,0.273,0.273
				c0.151,0,0.273-0.122,0.273-0.273v-2.459C427.856,383.525,427.734,383.403,427.584,383.403z"/>
			<path fill="#A0846B" d="M427.584,390.125c-0.151,0-0.273,0.122-0.273,0.273v1.85c0,0.151,0.122,0.273,0.273,0.273
				c0.151,0,0.273-0.122,0.273-0.273v-1.85C427.856,390.247,427.734,390.125,427.584,390.125z"/>
			<path fill="#A0846B" d="M428.755,390.125c-0.151,0-0.273,0.122-0.273,0.273v1.85c0,0.151,0.122,0.273,0.273,0.273
				c0.151,0,0.273-0.122,0.273-0.273v-1.85C429.028,390.247,428.906,390.125,428.755,390.125z"/>
			<path fill="#A0846B" d="M425.24,390.125c-0.151,0-0.273,0.122-0.273,0.273v1.85c0,0.151,0.122,0.273,0.273,0.273
				c0.151,0,0.273-0.122,0.273-0.273v-1.85C425.514,390.247,425.392,390.125,425.24,390.125z"/>
			<path fill="#A0846B" d="M426.412,390.125c-0.151,0-0.273,0.122-0.273,0.273v1.85c0,0.151,0.122,0.273,0.273,0.273
				c0.151,0,0.273-0.122,0.273-0.273v-1.85C426.685,390.247,426.563,390.125,426.412,390.125z"/>
			<path fill="#A0846B" d="M429.926,390.125c-0.151,0-0.273,0.122-0.273,0.273v1.85c0,0.151,0.122,0.273,0.273,0.273
				c0.151,0,0.273-0.122,0.273-0.273v-1.85C430.2,390.247,430.077,390.125,429.926,390.125z"/>
			<path fill="#D3C28C" d="M427.584,393.919c-0.151,0-0.273,0.122-0.273,0.273v14.93c0,0.151,0.122,0.273,0.273,0.273
				c0.151,0,0.273-0.122,0.273-0.273v-14.93C427.856,394.041,427.734,393.919,427.584,393.919z"/>
			<path fill="#D3C28C" d="M428.755,393.919c-0.151,0-0.273,0.122-0.273,0.273v14.93c0,0.151,0.122,0.273,0.273,0.273
				c0.151,0,0.273-0.122,0.273-0.273v-14.93C429.028,394.041,428.906,393.919,428.755,393.919z"/>
			<path fill="#D3C28C" d="M425.24,393.919c-0.151,0-0.273,0.122-0.273,0.273v14.93c0,0.151,0.122,0.273,0.273,0.273
				c0.151,0,0.273-0.122,0.273-0.273v-14.93C425.514,394.041,425.392,393.919,425.24,393.919z"/>
			<path fill="#D3C28C" d="M426.412,393.919c-0.151,0-0.273,0.122-0.273,0.273v14.93c0,0.151,0.122,0.273,0.273,0.273
				c0.151,0,0.273-0.122,0.273-0.273v-14.93C426.685,394.041,426.563,393.919,426.412,393.919z"/>
			<path fill="#D3C28C" d="M429.926,393.919c-0.151,0-0.273,0.122-0.273,0.273v14.93c0,0.151,0.122,0.273,0.273,0.273
				c0.151,0,0.273-0.122,0.273-0.273v-14.93C430.2,394.041,430.077,393.919,429.926,393.919z"/>
			<path fill="#7F5D46" d="M427.584,410.547c-0.151,0-0.273,0.122-0.273,0.273v2.496c0,0.151,0.122,0.273,0.273,0.273
				c0.151,0,0.273-0.122,0.273-0.273v-2.496C427.856,410.669,427.734,410.547,427.584,410.547z"/>
			<path fill="#7F5D46" d="M428.755,410.547c-0.151,0-0.273,0.122-0.273,0.273v2.496c0,0.151,0.122,0.273,0.273,0.273
				c0.151,0,0.273-0.122,0.273-0.273v-2.496C429.028,410.669,428.906,410.547,428.755,410.547z"/>
			<path fill="#7F5D46" d="M425.24,410.547c-0.151,0-0.273,0.122-0.273,0.273v2.496c0,0.151,0.122,0.273,0.273,0.273
				c0.151,0,0.273-0.122,0.273-0.273v-2.496C425.514,410.669,425.392,410.547,425.24,410.547z"/>
			<path fill="#7F5D46" d="M424.069,410.547c-0.151,0-0.273,0.122-0.273,0.273v2.496c0,0.151,0.122,0.273,0.273,0.273
				c0.151,0,0.273-0.122,0.273-0.273v-2.496C424.342,410.669,424.22,410.547,424.069,410.547z"/>
			<path fill="#7F5D46" d="M431.098,410.547c-0.151,0-0.273,0.122-0.273,0.273v2.496c0,0.151,0.122,0.273,0.273,0.273
				c0.151,0,0.273-0.122,0.273-0.273v-2.496C431.371,410.669,431.248,410.547,431.098,410.547z"/>
			<path fill="#7F5D46" d="M426.412,410.547c-0.151,0-0.273,0.122-0.273,0.273v2.496c0,0.151,0.122,0.273,0.273,0.273
				c0.151,0,0.273-0.122,0.273-0.273v-2.496C426.685,410.669,426.563,410.547,426.412,410.547z"/>
			<path fill="#7F5D46" d="M429.926,410.547c-0.151,0-0.273,0.122-0.273,0.273v2.496c0,0.151,0.122,0.273,0.273,0.273
				c0.151,0,0.273-0.122,0.273-0.273v-2.496C430.2,410.669,430.077,410.547,429.926,410.547z"/>
		</g>
	</g>
</g>
<style>
#g-psychics-Prancheta_1-interactions-img rect, #g-psychics-Prancheta_1-interactions-img circle, #g-psychics-Prancheta_1-interactions-img path, #g-psychics-Prancheta_1-interactions-img line, #g-psychics-Prancheta_1-interactions-img polyline, #g-psychics-Prancheta_1-interactions-img polygon { vector-effect: non-scaling-stroke; }
</style>
</svg>

