<?xml version="1.0" encoding="utf-8"?>
<!-- Generator: Adobe Illustrator 27.6.1, SVG Export Plug-In . SVG Version: 6.00 Build 0)  -->
<svg version="1.2" baseProfile="tiny" id="g-psychics-Prancheta_1-interactions-img"
	 xmlns="http://www.w3.org/2000/svg" xmlns:xlink="http://www.w3.org/1999/xlink" x="0px" y="0px" viewBox="0 0 975 620.5"
	 overflow="visible" xml:space="preserve">
<g>
	<g id="_x35_-star-dots_00000048461884926491878710000005535968454281440941_">
		<g id="_x32_6_00000074418925084635105960000013095120229097567641_" transform="translate(207, 416)">
			<g id="svg-id-m29-svg_00000137090308351147221980000014081804272824808611_" transform="translate(-6.3, -6.3)">
				<path fill="#998FCD" stroke="#483B56" stroke-miterlimit="10" d="M65.83,92.656c0,1.143-0.927,2.07-2.07,2.07
					s-2.07-0.927-2.07-2.07c0-1.143,0.927-2.07,2.07-2.07S65.83,91.512,65.83,92.656z"/>
			</g>
		</g>
		<g id="_x32_5_00000056426497244624570490000010813615614063379635_" transform="translate(212, 393)">
			<g id="svg-id-m28-svg_00000157999256261850912750000006942727202010189477_" transform="translate(-6.3, -6.3)">
				<path fill="#998FCD" stroke="#483B56" stroke-miterlimit="10" d="M66.88,87.828c0,1.143-0.927,2.07-2.07,2.07
					c-1.143,0-2.07-0.927-2.07-2.07c0-1.143,0.927-2.07,2.07-2.07C65.953,85.757,66.88,86.684,66.88,87.828z"/>
			</g>
		</g>
		<g id="_x32_4_00000062880612643436335260000004813356282654555823_" transform="translate(246, 313)">
			<g id="svg-id-m27-svg_00000085208457005322273640000013227398863574310057_" transform="translate(-6.3, -6.3)">
				<path fill="#998FCD" stroke="#483B56" stroke-miterlimit="10" d="M74.017,71.034c0,1.143-0.927,2.07-2.07,2.07
					c-1.143,0-2.07-0.927-2.07-2.07c0-1.143,0.927-2.07,2.07-2.07C73.09,68.964,74.017,69.891,74.017,71.034z"/>
			</g>
		</g>
		<g id="_x32_3_00000018917283944173275190000010560690426707943835_" transform="translate(267, 414)">
			<g id="svg-id-m25-svg_00000145035697213698755870000009073993302913685137_" transform="translate(-6.3, -6.3)">
				<path fill="#998FCD" stroke="#483B56" stroke-miterlimit="10" d="M78.425,91.053c0,1.143-0.927,2.07-2.07,2.07
					c-1.143,0-2.07-0.927-2.07-2.07c0-1.143,0.927-2.07,2.07-2.07C77.498,88.983,78.425,89.91,78.425,91.053z"/>
			</g>
		</g>
		<g id="_x32_2_00000116920433686015877010000012205839750008090257_" transform="translate(270, 221)">
			<g id="svg-id-m24-svg_00000079462405798306686580000013013003174744074910_" transform="translate(-6.3, -6.3)">
				<path fill="#998FCD" stroke="#483B56" stroke-miterlimit="10" d="M79.055,51.722c0,1.143-0.927,2.07-2.07,2.07
					c-1.143,0-2.07-0.927-2.07-2.07c0-1.143,0.927-2.07,2.07-2.07C78.128,49.652,79.055,50.579,79.055,51.722z"/>
			</g>
		</g>
		<g id="_x32_1_00000005945996073956781710000014777981667322456963_" transform="translate(280, 391)">
			<g id="svg-id-m23-svg_00000029736556108072269020000014010433996547199134_" transform="translate(-6.3, -6.3)">
				<path fill="#998FCD" stroke="#483B56" stroke-miterlimit="10" d="M81.154,87.408c0,1.143-0.927,2.07-2.07,2.07
					c-1.143,0-2.07-0.927-2.07-2.07c0-1.143,0.927-2.07,2.07-2.07C80.227,85.338,81.154,86.264,81.154,87.408z"/>
			</g>
		</g>
		<g id="_x32_0_00000128468850722230055120000016684858841751835057_" transform="translate(291, 292)">
			<g id="svg-id-m22-svg_00000128476829036653529580000017001483242607546242_" transform="translate(-6.3, -6.3)">
				<path fill="#998FCD" stroke="#483B56" stroke-miterlimit="10" d="M83.463,66.626c0,1.143-0.927,2.07-2.07,2.07
					c-1.143,0-2.07-0.927-2.07-2.07c0-1.143,0.927-2.07,2.07-2.07C82.536,64.556,83.463,65.483,83.463,66.626z"/>
			</g>
		</g>
		<g id="_x31_9_00000064315933783593674080000011100956042056603298_" transform="translate(276, 364)">
			<g id="svg-id-m21-svg_00000090994384978077050450000013474013048059383743_" transform="translate(-6.3, -6.3)">
				<path fill="#998FCD" stroke="#483B56" stroke-miterlimit="10" d="M80.314,81.74c0,1.143-0.927,2.07-2.07,2.07
					s-2.07-0.927-2.07-2.07s0.927-2.07,2.07-2.07S80.314,80.597,80.314,81.74z"/>
			</g>
		</g>
		<g id="_x31_8_00000135673237862127125600000001826888913868351882_" transform="translate(262, 289)">
			<g id="svg-id-m20-svg_00000025409225283682698920000013888645954461803668_" transform="translate(-6.3, -6.3)">
				<path fill="#998FCD" stroke="#483B56" stroke-miterlimit="10" d="M77.376,65.996c0,1.143-0.927,2.07-2.07,2.07
					c-1.143,0-2.07-0.927-2.07-2.07c0-1.143,0.927-2.07,2.07-2.07C76.449,63.926,77.376,64.853,77.376,65.996z"/>
			</g>
		</g>
		<g id="_x31_7_00000128485279212013720930000004684623142416781452_" transform="translate(239, 376)">
			<g id="svg-id-m19-svg_00000036935283692068234100000011651120097405693846_" transform="translate(-6.3, -6.3)">
				<path fill="#998FCD" stroke="#483B56" stroke-miterlimit="10" d="M72.548,84.259c0,1.143-0.927,2.07-2.07,2.07
					c-1.143,0-2.07-0.927-2.07-2.07c0-1.143,0.927-2.07,2.07-2.07C71.621,82.189,72.548,83.116,72.548,84.259z"/>
			</g>
		</g>
		<g id="_x31_6_00000097459155491198243090000017962578342439727791_" transform="translate(362, 454)">
			<g id="svg-id-m18-svg_00000079476762784050592060000010288210704308707752_" transform="translate(-6.3, -6.3)">
				<path fill="#998FCD" stroke="#483B56" stroke-miterlimit="10" d="M98.409,105.682c0,1.143-0.927,2.07-2.07,2.07
					c-1.143,0-2.07-0.927-2.07-2.07c0-1.143,0.927-2.07,2.07-2.07C97.482,103.612,98.409,104.539,98.409,105.682z"/>
			</g>
		</g>
		<g id="_x31_5_00000115472509794534807170000000884637906765967024_" transform="translate(205, 367)">
			<g id="svg-id-m17-svg_00000039104728145698675190000007272338987288240773_" transform="translate(-6.3, -6.3)">
				<path fill="#998FCD" stroke="#483B56" stroke-miterlimit="10" d="M65.41,82.37c0,1.143-0.927,2.07-2.07,2.07
					s-2.07-0.927-2.07-2.07s0.927-2.07,2.07-2.07S65.41,81.226,65.41,82.37z"/>
			</g>
		</g>
		<g id="_x31_4_00000114042102185321450070000002663548289771162548_" transform="translate(254, 419)">
			<g id="svg-id-m16-svg_00000018955453845712400850000006154954094588976034_" transform="translate(-6.3, -6.3)">
				<path fill="#998FCD" stroke="#483B56" stroke-miterlimit="10" d="M73.922,93.285c0,1.143-0.927,2.07-2.07,2.07
					s-2.07-0.927-2.07-2.07c0-1.143,0.927-2.07,2.07-2.07S73.922,92.142,73.922,93.285z"/>
			</g>
		</g>
		<g id="_x31_3_00000033343881980781931890000005555036150520922047_" transform="translate(243, 357)">
			<g id="svg-id-m15-svg_00000003811390903500230290000012018006528456879753_" transform="translate(-6.3, -6.3)">
				<path fill="#998FCD" stroke="#483B56" stroke-miterlimit="10" d="M73.387,80.271c0,1.143-0.927,2.07-2.07,2.07
					c-1.143,0-2.07-0.927-2.07-2.07c0-1.143,0.927-2.07,2.07-2.07C72.46,78.2,73.387,79.127,73.387,80.271z"/>
			</g>
		</g>
		<g id="_x31_2_00000113343527158667707420000008599125326296413570_" transform="translate(266, 315)">
			<g id="svg-id-m14-svg_00000104702204506364626340000017515582507736835743_" transform="translate(-6.3, -6.3)">
				<path fill="#998FCD" stroke="#483B56" stroke-miterlimit="10" d="M78.215,71.454c0,1.143-0.927,2.07-2.07,2.07
					c-1.143,0-2.07-0.927-2.07-2.07c0-1.143,0.927-2.07,2.07-2.07C77.288,69.384,78.215,70.311,78.215,71.454z"/>
			</g>
		</g>
		<g id="_x31_1_00000032606759103381285200000005372886941742536072_" transform="translate(229, 412)">
			<g id="svg-id-m13-svg_00000016798079672793395700000005912392924560589962_" transform="translate(-6.3, -6.3)">
				<path fill="#998FCD" stroke="#483B56" stroke-miterlimit="10" d="M70.448,91.816c0,1.143-0.927,2.07-2.07,2.07
					c-1.143,0-2.07-0.927-2.07-2.07c0-1.143,0.927-2.07,2.07-2.07C69.522,89.746,70.448,90.673,70.448,91.816z"/>
			</g>
		</g>
		<g id="_x31_0_00000070811935812687642390000012374703007522300310_" transform="translate(259, 354)">
			<g id="svg-id-m12-svg_00000053518968185278756860000000908693450518045881_" transform="translate(-6.3, -6.3)">
				<path fill="#998FCD" stroke="#483B56" stroke-miterlimit="10" d="M76.746,79.641c0,1.143-0.927,2.07-2.07,2.07
					c-1.143,0-2.07-0.927-2.07-2.07c0-1.143,0.927-2.07,2.07-2.07C75.819,77.571,76.746,78.498,76.746,79.641z"/>
			</g>
		</g>
		<g id="_x39__00000178165975582088644320000000316948206628274575_" transform="translate(266, 311)">
			<g id="svg-id-m11-svg_00000054985334431916989290000013968052605228424377_" transform="translate(-6.3, -6.3)">
				<path fill="#998FCD" stroke="#483B56" stroke-miterlimit="10" d="M78.215,70.615c0,1.143-0.927,2.07-2.07,2.07
					c-1.143,0-2.07-0.927-2.07-2.07c0-1.143,0.927-2.07,2.07-2.07C77.288,68.544,78.215,69.471,78.215,70.615z"/>
			</g>
		</g>
		<g id="_x38__00000092440850048542782150000017062677892484730017_" transform="translate(367, 216)">
			<g id="svg-id-m10-svg_00000176746006800975354430000017818103444178969240_" transform="translate(-6.3, -6.3)">
				<path fill="#998FCD" stroke="#483B56" stroke-miterlimit="10" d="M99.417,50.673c0,1.143-0.927,2.07-2.07,2.07
					c-1.143,0-2.07-0.927-2.07-2.07s0.927-2.07,2.07-2.07C98.49,48.603,99.417,49.529,99.417,50.673z"/>
			</g>
		</g>
		<g id="_x37__00000073700255163873964600000007840846035212424602_" transform="translate(243, 351)">
			<g id="svg-id-m9-svg_00000119078019045726913010000003001683738443601081_" transform="translate(-6.3, -6.3)">
				<path fill="#998FCD" stroke="#483B56" stroke-miterlimit="10" d="M73.387,79.011c0,1.143-0.927,2.07-2.07,2.07
					c-1.143,0-2.07-0.927-2.07-2.07c0-1.143,0.927-2.07,2.07-2.07C72.46,76.941,73.387,77.868,73.387,79.011z"/>
			</g>
		</g>
		<g id="_x36__00000060747250121813303130000012635908686919579274_" transform="translate(258, 376)">
			<g id="svg-id-m8-svg_00000014599690013141661500000016465477345548004484_" transform="translate(-6.3, -6.3)">
				<path fill="#998FCD" stroke="#483B56" stroke-miterlimit="10" d="M76.536,84.259c0,1.143-0.927,2.07-2.07,2.07
					c-1.143,0-2.07-0.927-2.07-2.07c0-1.143,0.927-2.07,2.07-2.07C75.609,82.189,76.536,83.116,76.536,84.259z"/>
			</g>
		</g>
		<g id="_x35__00000172438327295589308720000011928237592588505737_" transform="translate(261, 370)">
			<g id="svg-id-m7-svg_00000131332190872008478480000005530362826338210471_" transform="translate(-6.3, -6.3)">
				<path fill="#998FCD" stroke="#483B56" stroke-miterlimit="10" d="M77.166,82.999c0,1.143-0.927,2.07-2.07,2.07
					c-1.143,0-2.07-0.927-2.07-2.07c0-1.143,0.927-2.07,2.07-2.07C76.239,80.929,77.166,81.856,77.166,82.999z"/>
			</g>
		</g>
		<g id="_x34__00000074443673742261612020000007315501697499255218_" transform="translate(278, 401)">
			<g id="svg-id-m5-svg_00000044175956185036738950000015322349992787560334_" transform="translate(-6.3, -6.3)">
				<path fill="#998FCD" stroke="#483B56" stroke-miterlimit="10" d="M80.734,89.507c0,1.143-0.927,2.07-2.07,2.07
					c-1.143,0-2.07-0.927-2.07-2.07c0-1.143,0.927-2.07,2.07-2.07C79.807,87.437,80.734,88.364,80.734,89.507z"/>
			</g>
		</g>
		<g id="_x33__00000043444988235563538900000008620851832122157189_" transform="translate(302, 293)">
			<g id="svg-id-m2-svg_00000016760909531329262300000013327052268150877830_" transform="translate(-6.3, -6.3)">
				<path fill="#998FCD" stroke="#483B56" stroke-miterlimit="10" d="M85.772,66.836c0,1.143-0.927,2.07-2.07,2.07
					c-1.143,0-2.07-0.927-2.07-2.07c0-1.143,0.927-2.07,2.07-2.07C84.845,64.766,85.772,65.693,85.772,66.836z"/>
			</g>
		</g>
		<g id="_x32__00000008831752988180442190000015686995804343908226_" transform="translate(190, 466)">
			<g id="svg-id-m1-svg_00000175309636655125185200000006660833208929389963_" transform="translate(-6.3, -6.3)">
				<path fill="#998FCD" stroke="#483B56" stroke-miterlimit="10" d="M63.102,110.835c0,1.143-0.927,2.07-2.07,2.07
					c-1.143,0-2.07-0.927-2.07-2.07c0-1.143,0.927-2.07,2.07-2.07C62.175,108.764,63.102,109.691,63.102,110.835z"/>
			</g>
		</g>
		<g id="_x31__00000007419619798536722640000006456868971503281287_" transform="translate(264, 426)">
			<g id="svg-id-m0-svg_00000039829259167047455400000003660572098783107256_" transform="translate(-6.3, -6.3)">
				<path fill="#998FCD" stroke="#483B56" stroke-miterlimit="10" d="M77.795,94.755c0,1.143-0.927,2.07-2.07,2.07
					c-1.143,0-2.07-0.927-2.07-2.07s0.927-2.07,2.07-2.07C76.869,92.685,77.795,93.611,77.795,94.755z"/>
			</g>
		</g>
		<g id="lisa-dot_00000106105606514588603550000002626934997840022705_" transform="translate(253, 382)">
			<g id="lisa-dot_00000016767129431202434280000018173994228633990032_" transform="translate(-6.3, -6.3)">
				<path fill="#998FCD" stroke="#483B56" stroke-miterlimit="10" d="M75.486,85.518c0,1.143-0.927,2.07-2.07,2.07
					s-2.07-0.927-2.07-2.07c0-1.143,0.927-2.07,2.07-2.07S75.486,84.375,75.486,85.518z"/>
			</g>
		</g>
		<g id="derek-dot_00000085948090260869897790000012214180279549893549_" transform="translate(-6.3, -6.3)">
			<path fill="#998FCD" stroke="#483B56" stroke-miterlimit="10" d="M398.661,172.299c0,1.143-0.927,2.07-2.07,2.07
				c-1.143,0-2.07-0.927-2.07-2.07s0.927-2.07,2.07-2.07C397.735,170.229,398.661,171.156,398.661,172.299z"/>
		</g>
		<g id="drew-dot_00000133488207210936457580000010016300792958110605_" transform="translate(-6.3, -6.3)">
			<path fill="#998FCD" stroke="#483B56" stroke-miterlimit="10" d="M482.146,35.579c0,1.143-0.927,2.07-2.07,2.07
				s-2.07-0.927-2.07-2.07s0.927-2.07,2.07-2.07S482.146,34.436,482.146,35.579z"/>
		</g>
		<g id="sarah-dot_00000120540029059944126530000006951799170603403683_" transform="translate(270, 221)">
			<g id="svg-id-m24-svg_00000165925712790982108710000008779310231078365319_" transform="translate(-6.3, -6.3)">
				<path fill="#998FCD" stroke="#483B56" stroke-miterlimit="10" d="M76.388,105.755c0,1.143-0.927,2.07-2.07,2.07
					c-1.143,0-2.07-0.927-2.07-2.07c0-1.143,0.927-2.07,2.07-2.07C75.461,103.685,76.388,104.612,76.388,105.755z"/>
			</g>
		</g>
	</g>
	<g id="hand_00000092438732260558467500000016049267612436382856_">
		<g id="derek-hand_00000096745806241917852610000016113667002453330876_">
			<path fill="#998FCD" d="M474.774,29.572c0.073-0.016,0.146-0.028,0.217-0.037c2.005-0.235,2.736,0.978,2.938,1.434
				c-0.156-0.535-0.267-1.88-0.158-2.883c0.087-0.799,0.072-1.319,0.063-1.837c-0.004-0.219,0.108-0.472,0.096-0.678
				c-0.039-0.695-0.134-2.812-0.204-3.53c-0.059-0.598,0.028-1.975-0.516-2.371c-0.109-0.081-0.244-0.121-0.412-0.107
				c-0.219,0.018-0.382,0.064-0.503,0.137c-0.429,0.257-0.337,0.839-0.405,1.613c-0.088,0.993-0.157,2.123-0.271,2.923
				s-0.093,1.974-0.246,3.312c-0.137,1.206-0.297,1.755-0.611,1.87L474.774,29.572"/>
			<path fill="#998FCD" d="M473.25,19.067c0.014,0.447,0.077,2.654-0.133,3.33c-0.21,0.676-0.054,1.585-0.092,2.223
				c-0.038,0.638-0.261,1.173-0.204,1.96c0.056,0.775-0.022,2.32-0.234,2.346l0.038,0.489c0.937-0.416,1.855-0.7,2.585-0.68
				l0.024-0.153c-0.036,0.004-0.073,0.003-0.111-0.004c-0.384-0.068-0.116-0.766-0.107-1.379c0.008-0.613,0.357-2.893,0.195-3.747
				c-0.162-0.855,0.06-2.45-0.093-3.387c-0.122-0.75-0.283-1.536-0.682-1.801c-0.1-0.067-0.215-0.1-0.348-0.092
				c-0.266,0.015-0.45,0.083-0.576,0.18C473.275,18.535,473.243,18.823,473.25,19.067"/>
			<path fill="#998FCD" d="M470.132,23.23c0.058,0.509-0.074,1.779-0.043,2.284c0.031,0.506,0.062,2.468,0.195,3.349
				c0.113,0.754,0.201,1.494-0.014,1.796c0.741-0.452,1.587-0.923,2.418-1.291l-0.038-0.489c-0.003,0.001-0.007,0.001-0.01,0
				c-0.22-0.023-0.404-3.084-0.514-3.626c-0.111-0.542-0.223-2.144-0.227-3.177c-0.004-0.881,0.105-2.056-0.599-2.302
				c-0.121-0.043-0.266-0.058-0.44-0.039c-0.162,0.017-0.294,0.086-0.402,0.193C469.776,20.599,470.081,22.791,470.132,23.23"/>
			<path fill="#998FCD" d="M467.406,25.98c0.078,0.894,0.146,1.773,0.231,2.061c0.131,0.446,0.567,2.638,0.646,3.405
				c0.013-0.01,0.967-0.676,2.162-1.419c-0.225-0.001-0.218-0.608-0.429-1.262c-0.239-0.741-0.527-1.639-0.692-2.458
				c-0.099-0.489-0.092-0.963-0.174-1.321c-0.201-0.888-0.241-1.76-0.865-1.801c-0.036-0.003-0.074-0.002-0.114,0.001
				c-0.254,0.021-0.428,0.059-0.555,0.187c-0.148,0.149-0.232,0.42-0.306,0.928C467.251,24.72,467.352,25.357,467.406,25.98"/>
			<path fill="#998FCD" d="M484.093,30.288c-0.049-0.011-0.097-0.022-0.146-0.031c-0.418-0.08-0.885-0.058-1.956,0.405
				c-1.197,0.517-2.458,1.641-2.626,2.182s-0.726,1.348-0.938,1.242c-0.212-0.106-0.41-2.75-0.511-3.123
				c-0.004-0.013-0.007-0.027-0.009-0.042c-0.004-0.023-0.007-0.048-0.009-0.076v-0.001c-0.002-0.019-0.003-0.039-0.004-0.06
				c-0.01-0.06-0.026-0.132-0.049-0.214c-0.139-0.502-0.551-1.351-1.755-1.728c-0.211-0.066-0.445-0.117-0.707-0.15
				c-0.053-0.007-0.106-0.012-0.161-0.017c-0.009-0.001-0.018-0.002-0.026-0.003c0,0,0,0-0.001,0c-0.474-0.037-1.008,0-1.572,0.104
				c-0.199,0.037-0.401,0.082-0.605,0.135c-0.119,0.031-0.238,0.065-0.357,0.101c-0.022,0.007-0.043,0.013-0.065,0.02
				c-0.292,0.091-0.586,0.197-0.877,0.319c-0.026,0.011-0.053,0.022-0.079,0.033c-0.083,0.036-0.166,0.072-0.248,0.111
				c-0.139,0.064-0.278,0.131-0.415,0.201c-0.09,0.046-0.179,0.094-0.268,0.144c-0.078,0.043-0.156,0.088-0.233,0.134
				c-0.022,0.013-0.044,0.026-0.066,0.04c-0.003,0.002-0.005,0.003-0.007,0.004c-0.01,0.007-0.021,0.013-0.031,0.019
				c-0.031,0.044-0.104,0.03-0.149,0.054c-0.04,0.022-0.066,0.054-0.094,0.054c-0.599,0.373-1.065,0.653-1.381,0.842
				c-0.026,0.015-0.051,0.03-0.074,0.044c-0.236,0.14-0.375,0.22-0.407,0.24c-0.004,0.003-0.007,0.004-0.008,0.005
				c0.008,0.074,0.012,0.136,0.012,0.18c0.003,0.503,0.134,2.797,0.146,3.217c0.012,0.42,0.368,2.035,0.69,2.682
				c0.081,0.163,0.215,0.392,0.37,0.646c0.085,0.14,0.177,0.287,0.27,0.434c0.343,0.541,0.701,1.077,0.806,1.234
				c0.003,0.004,0.005,0.008,0.007,0.011c0.016,0.022,0.024,0.034,0.024,0.034c0.025,0.028,0.053,0.054,0.082,0.077
				c0.18,0.142,0.678,0.515,1.261,0.576c0.072,0.008,0.145,0.01,0.218,0.008c0.343-0.013,0.701-0.06,1.016-0.102
				c0.178-0.023,0.345-0.045,0.49-0.058c0.001,0,0.001,0,0.002-0.001c0.025-0.002,0.051-0.004,0.076-0.006
				c0.001,0,0.002-0.001,0.003-0.001c0.144-0.01,0.259-0.009,0.332,0.013c0.296,0.088,1.202-0.183,1.241-0.192l0.067-0.014
				c1.305-0.217,1.545-0.488,1.835-0.793c0.001,0,0.001,0,0.001,0c0.386-0.538,1.057-0.848,1.799-1.307
				c1.044-0.644,1.419-0.772,1.555-1.54c0.135-0.767,0.92-1.606,1.37-2.174c0.41-0.517,1.347-1.63,2.109-2.31
				c0.012-0.011,0.025-0.022,0.037-0.033c0.06-0.053,0.12-0.103,0.178-0.15c0.102-0.083,0.183-0.166,0.245-0.248
				C484.918,30.901,484.496,30.384,484.093,30.288"/>
			<path fill="#351231" d="M467.73,26.567c-0.016-0.002-0.03-0.012-0.035-0.028c-0.008-0.022,0.004-0.045,0.026-0.053l0.713-0.242
				c0.022-0.007,0.045,0.004,0.053,0.026c0.008,0.022-0.004,0.045-0.026,0.053l-0.713,0.242
				C467.742,26.567,467.736,26.567,467.73,26.567"/>
			<path fill="#351231" d="M470.437,23.134c-0.02-0.002-0.035-0.017-0.037-0.037c-0.002-0.023,0.014-0.043,0.037-0.045l1.015-0.099
				c0.023-0.003,0.043,0.014,0.045,0.037c0.002,0.023-0.014,0.043-0.037,0.045l-1.015,0.099
				C470.443,23.135,470.44,23.135,470.437,23.134"/>
			<path fill="#351231" d="M473.746,21.303c-0.021-0.002-0.037-0.02-0.037-0.041c-0.001-0.023,0.018-0.042,0.041-0.042l0.787-0.011
				c0.023,0,0.042,0.018,0.042,0.041c0.001,0.023-0.018,0.042-0.041,0.042l-0.787,0.011
				C473.749,21.303,473.748,21.303,473.746,21.303"/>
			<path fill="#351231" d="M477.299,22.479c-0.003,0.001-0.007,0.001-0.01,0l-0.824-0.132c-0.023-0.004-0.038-0.025-0.035-0.048
				c0.004-0.023,0.025-0.038,0.047-0.034l0.824,0.132c0.023,0.004,0.038,0.025,0.035,0.048
				C477.333,22.463,477.318,22.477,477.299,22.479"/>
			<path fill="#351231" d="M477.355,25.614c-0.004,0.001-0.007,0-0.011-0.001l-1.017-0.171c-0.023-0.004-0.038-0.025-0.035-0.048
				c0.004-0.023,0.025-0.038,0.048-0.034l1.018,0.171c0.023,0.004,0.038,0.025,0.034,0.048
				C477.389,25.598,477.373,25.612,477.355,25.614"/>
			<path fill="#351231" d="M473.529,24.332c-0.022-0.003-0.038-0.021-0.037-0.043c0.001-0.023,0.02-0.041,0.043-0.04l0.982,0.028
				c0.024,0.001,0.041,0.02,0.041,0.043c-0.001,0.023-0.02,0.041-0.043,0.04l-0.983-0.028
				C473.531,24.332,473.53,24.332,473.529,24.332"/>
			<path fill="#351231" d="M470.621,26.186c-0.017-0.002-0.031-0.014-0.036-0.031c-0.005-0.022,0.008-0.045,0.03-0.051l0.897-0.223
				c0.022-0.006,0.044,0.008,0.05,0.03s-0.008,0.045-0.03,0.05l-0.897,0.223C470.631,26.186,470.626,26.187,470.621,26.186"/>
			<path fill="#351231" d="M469.077,28.093c-0.035-0.003-0.244,0.061-0.469,0.135c-0.034,0.011-0.069,0.023-0.104,0.035
				c-0.104,0.035-0.206,0.069-0.29,0.098c-0.022,0.008-0.034,0.031-0.026,0.053c0.005,0.016,0.019,0.026,0.035,0.028
				c0.006,0.001,0.011,0,0.018-0.002c0.075-0.026,0.151-0.052,0.226-0.077c0.034-0.011,0.067-0.022,0.1-0.033
				c0.251-0.083,0.467-0.15,0.503-0.153c0.001,0,0.001,0,0.001,0c0.022,0.002,0.042-0.015,0.044-0.037
				C469.117,28.116,469.1,28.096,469.077,28.093"/>
			<path fill="#351231" d="M468.629,30.752c-0.012-0.001-0.024-0.008-0.031-0.019c-0.012-0.02-0.006-0.045,0.013-0.057
				c0.359-0.224,1.012-0.411,1.039-0.419c0.022-0.006,0.045,0.007,0.052,0.029c0.006,0.022-0.007,0.045-0.028,0.051
				c-0.007,0.002-0.669,0.192-1.018,0.409C468.647,30.751,468.639,30.753,468.629,30.752"/>
			<path fill="#351231" d="M471.004,29.436c-0.009-0.001-0.018-0.005-0.025-0.012c-0.016-0.017-0.016-0.043,0.001-0.059
				c0.315-0.308,0.968-0.426,0.995-0.431c0.023-0.004,0.044,0.011,0.048,0.034c0.004,0.023-0.011,0.044-0.034,0.049
				c-0.007,0.001-0.654,0.118-0.952,0.408C471.028,29.433,471.016,29.437,471.004,29.436"/>
			<path fill="#351231" d="M473.196,28.427c-0.019-0.002-0.035-0.017-0.037-0.037c-0.003-0.023,0.013-0.043,0.037-0.046
				c0.497-0.057,1.064-0.02,1.069-0.02c0.023,0.002,0.04,0.022,0.039,0.044s-0.022,0.04-0.044,0.039
				c-0.006-0.001-0.565-0.037-1.054,0.019C473.201,28.427,473.198,28.427,473.196,28.427"/>
			<path fill="#351231" d="M477.072,28.963c-0.009,0.001-0.019-0.002-0.027-0.007c-0.226-0.157-1.11-0.264-1.119-0.265
				c-0.023-0.003-0.039-0.023-0.036-0.046c0.003-0.023,0.023-0.039,0.046-0.037c0.037,0.005,0.913,0.11,1.157,0.279
				c0.019,0.013,0.024,0.039,0.01,0.058C477.096,28.957,477.084,28.962,477.072,28.963"/>
			<path fill="#351231" d="M480.991,34.45c-0.008-0.001-0.015-0.004-0.022-0.009c-0.464-0.365-0.98-1.159-1.002-1.193
				c-0.012-0.02-0.007-0.045,0.013-0.058c0.019-0.012,0.045-0.007,0.057,0.012c0.005,0.008,0.53,0.816,0.983,1.173
				c0.018,0.014,0.021,0.04,0.007,0.058C481.019,34.446,481.004,34.451,480.991,34.45"/>
			<g id="eye_00000119107700135171525590000004602931629672885393_">
				<path fill="#FFFFFF" d="M469.413,34.556c0,0,1.43-1.898,3.446-2.073c2.922-0.253,4.645,2.073,4.645,2.073
					s-1.348,1.308-4.22,1.431C471.012,36.085,469.413,34.556,469.413,34.556"/>
				<path fill="#998FCD" d="M475.204,34.105c0,0.953-0.781,1.725-1.745,1.725s-1.746-0.772-1.746-1.725
					c0-0.953,0.782-1.725,1.746-1.725S475.204,33.152,475.204,34.105"/>
				<path fill="#351231" d="M474.128,34.105c0,0.365-0.299,0.661-0.669,0.661s-0.67-0.296-0.67-0.661c0-0.366,0.3-0.661,0.67-0.661
					S474.128,33.739,474.128,34.105"/>
				<path fill="#351231" d="M469.413,34.556c0,0,1.124-2.233,4.045-2.326s4.045,2.326,4.045,2.326s-1.691-2.092-4.045-1.961
					C470.937,32.736,469.413,34.556,469.413,34.556"/>
				<path fill="#351231" d="M473.458,31.954c-0.026,0-0.048-0.021-0.048-0.048v-2.39c0-0.026,0.022-0.048,0.048-0.048
					s0.048,0.021,0.048,0.048v2.39C473.506,31.933,473.485,31.954,473.458,31.954"/>
				<path fill="#351231" d="M472.411,32.126c-0.019,0-0.037-0.011-0.044-0.03l-0.758-1.918c-0.009-0.024,0.003-0.052,0.027-0.061
					c0.025-0.01,0.052,0.002,0.062,0.026l0.758,1.918c0.01,0.024-0.003,0.052-0.027,0.061
					C472.423,32.125,472.417,32.126,472.411,32.126"/>
				<path fill="#351231" d="M471.353,32.512c-0.015,0-0.03-0.007-0.039-0.021l-0.907-1.344c-0.015-0.022-0.009-0.052,0.013-0.067
					c0.022-0.014,0.052-0.009,0.066,0.013l0.907,1.345c0.014,0.022,0.009,0.051-0.013,0.066
					C471.372,32.509,471.362,32.512,471.353,32.512"/>
				<path fill="#351231" d="M474.641,32.078c-0.006,0-0.012-0.001-0.018-0.004c-0.024-0.009-0.036-0.037-0.027-0.062l0.758-1.917
					c0.01-0.024,0.038-0.037,0.062-0.027c0.025,0.01,0.037,0.038,0.027,0.062l-0.758,1.917
					C474.678,32.067,474.66,32.078,474.641,32.078"/>
				<path fill="#351231" d="M475.556,32.416c-0.009,0-0.018-0.003-0.026-0.008c-0.022-0.014-0.028-0.044-0.013-0.066l0.907-1.345
					c0.014-0.022,0.044-0.027,0.066-0.012c0.022,0.014,0.027,0.044,0.013,0.066l-0.907,1.344
					C475.586,32.409,475.571,32.416,475.556,32.416"/>
				<path fill="#351231" d="M476.366,32.893c-0.01,0-0.021-0.004-0.029-0.01c-0.021-0.017-0.024-0.046-0.008-0.067l0.706-0.891
					c0.016-0.021,0.046-0.024,0.067-0.008c0.021,0.017,0.024,0.046,0.008,0.067l-0.706,0.891
					C476.394,32.887,476.38,32.893,476.366,32.893"/>
				<path fill="#351231" d="M470.542,32.989c-0.014,0-0.028-0.006-0.038-0.019l-0.706-0.891c-0.017-0.021-0.013-0.051,0.008-0.067
					c0.021-0.017,0.051-0.013,0.067,0.008l0.706,0.891c0.016,0.021,0.013,0.051-0.008,0.067
					C470.563,32.985,470.552,32.989,470.542,32.989"/>
				<path fill="#351231" d="M473.45,38.951c-0.026,0-0.048-0.022-0.048-0.048v-2.389c0-0.027,0.022-0.048,0.048-0.048
					c0.026,0,0.048,0.021,0.048,0.048v2.389C473.498,38.929,473.476,38.951,473.45,38.951"/>
				<path fill="#351231" d="M475.255,38.307c-0.019,0-0.037-0.011-0.044-0.03l-0.758-1.917c-0.009-0.024,0.003-0.052,0.027-0.062
					c0.024-0.01,0.052,0.002,0.062,0.027l0.758,1.917c0.01,0.025-0.003,0.053-0.027,0.062
					C475.267,38.306,475.26,38.307,475.255,38.307"/>
				<path fill="#351231" d="M476.462,37.348c-0.016,0-0.03-0.007-0.04-0.021l-0.907-1.344c-0.014-0.022-0.009-0.052,0.013-0.066
					c0.022-0.015,0.051-0.009,0.066,0.012l0.907,1.345c0.015,0.022,0.009,0.051-0.012,0.066
					C476.481,37.346,476.471,37.348,476.462,37.348"/>
				<path fill="#351231" d="M471.509,38.355c-0.006,0-0.012-0.001-0.018-0.004c-0.025-0.009-0.037-0.037-0.027-0.061l0.758-1.918
					c0.01-0.024,0.037-0.036,0.062-0.026c0.024,0.009,0.036,0.037,0.027,0.061l-0.758,1.918
					C471.546,38.343,471.528,38.355,471.509,38.355"/>
				<path fill="#351231" d="M470.445,37.444c-0.009,0-0.019-0.003-0.027-0.008c-0.022-0.015-0.027-0.044-0.012-0.066l0.907-1.345
					c0.015-0.022,0.044-0.027,0.067-0.013c0.022,0.015,0.027,0.044,0.012,0.066l-0.907,1.345
					C470.475,37.437,470.46,37.444,470.445,37.444"/>
				<path fill="#351231" d="M469.836,36.514c-0.01,0-0.021-0.004-0.029-0.011c-0.021-0.016-0.024-0.046-0.008-0.067l0.706-0.891
					c0.017-0.021,0.046-0.024,0.067-0.008c0.021,0.016,0.024,0.046,0.008,0.067l-0.706,0.891
					C469.864,36.507,469.85,36.514,469.836,36.514"/>
				<path fill="#351231" d="M477.072,36.418c-0.014,0-0.028-0.006-0.037-0.018l-0.706-0.891c-0.017-0.021-0.013-0.051,0.008-0.067
					c0.021-0.017,0.051-0.013,0.067,0.008l0.706,0.891c0.017,0.021,0.013,0.051-0.008,0.067
					C477.094,36.415,477.083,36.418,477.072,36.418"/>
			</g>
		</g>
		<g id="drew-hand_00000003790008826618648230000014780855977422790055_">
			<path fill="#998FCD" d="M391.59,160.965c0.073-0.016,0.146-0.028,0.217-0.037c2.005-0.235,2.736,0.978,2.938,1.434
				c-0.156-0.535-0.267-1.88-0.158-2.883c0.087-0.799,0.072-1.319,0.063-1.837c-0.004-0.219,0.108-0.472,0.096-0.678
				c-0.039-0.695-0.134-2.812-0.204-3.53c-0.059-0.598,0.028-1.975-0.516-2.371c-0.109-0.081-0.244-0.121-0.412-0.107
				c-0.219,0.018-0.382,0.064-0.503,0.137c-0.429,0.257-0.337,0.839-0.405,1.613c-0.088,0.993-0.157,2.123-0.271,2.923
				c-0.114,0.8-0.093,1.974-0.246,3.312c-0.137,1.206-0.297,1.755-0.611,1.87L391.59,160.965"/>
			<path fill="#998FCD" d="M390.067,150.46c0.014,0.447,0.077,2.654-0.133,3.33c-0.21,0.676-0.054,1.585-0.092,2.223
				c-0.038,0.638-0.261,1.173-0.204,1.96c0.056,0.775-0.022,2.32-0.234,2.346l0.038,0.489c0.937-0.416,1.855-0.7,2.585-0.68
				l0.024-0.153c-0.036,0.004-0.073,0.003-0.111-0.004c-0.384-0.068-0.116-0.766-0.107-1.379c0.008-0.613,0.357-2.893,0.195-3.747
				c-0.162-0.855,0.06-2.45-0.093-3.387c-0.122-0.75-0.283-1.536-0.682-1.801c-0.1-0.067-0.215-0.1-0.348-0.092
				c-0.266,0.015-0.45,0.083-0.576,0.18C390.091,149.928,390.059,150.216,390.067,150.46"/>
			<path fill="#998FCD" d="M386.948,154.623c0.058,0.509-0.074,1.779-0.043,2.284c0.031,0.506,0.062,2.468,0.195,3.349
				c0.113,0.754,0.201,1.494-0.014,1.796c0.741-0.452,1.587-0.923,2.418-1.291l-0.038-0.489c-0.003,0.001-0.007,0.001-0.01,0
				c-0.22-0.023-0.404-3.084-0.514-3.626c-0.111-0.542-0.223-2.144-0.227-3.177c-0.004-0.881,0.105-2.056-0.599-2.302
				c-0.121-0.043-0.266-0.058-0.44-0.039c-0.162,0.017-0.294,0.086-0.402,0.193C386.592,151.992,386.897,154.184,386.948,154.623"/>
			<path fill="#998FCD" d="M384.222,157.373c0.078,0.894,0.146,1.773,0.231,2.061c0.131,0.446,0.567,2.638,0.646,3.405
				c0.013-0.01,0.967-0.676,2.162-1.419c-0.225-0.001-0.218-0.608-0.429-1.262c-0.239-0.741-0.527-1.639-0.692-2.458
				c-0.099-0.489-0.092-0.963-0.174-1.321c-0.201-0.888-0.241-1.76-0.865-1.801c-0.036-0.003-0.074-0.002-0.114,0.001
				c-0.254,0.021-0.428,0.059-0.555,0.187c-0.148,0.149-0.232,0.42-0.306,0.928C384.068,156.113,384.168,156.75,384.222,157.373"/>
			<path fill="#998FCD" d="M400.909,161.681c-0.049-0.011-0.097-0.022-0.146-0.031c-0.418-0.08-0.885-0.058-1.956,0.405
				c-1.197,0.517-2.458,1.641-2.626,2.182c-0.168,0.541-0.726,1.348-0.938,1.242c-0.212-0.106-0.41-2.75-0.511-3.123
				c-0.004-0.013-0.007-0.027-0.009-0.042c-0.004-0.023-0.007-0.048-0.009-0.076v-0.001c-0.002-0.019-0.003-0.039-0.004-0.06
				c-0.01-0.06-0.026-0.132-0.049-0.214c-0.139-0.502-0.551-1.351-1.755-1.728c-0.211-0.066-0.445-0.117-0.707-0.15
				c-0.053-0.007-0.106-0.012-0.161-0.017c-0.009-0.001-0.018-0.002-0.026-0.003c0,0,0,0-0.001,0c-0.474-0.037-1.008,0-1.572,0.104
				c-0.199,0.037-0.401,0.082-0.605,0.135c-0.119,0.031-0.238,0.065-0.357,0.101c-0.022,0.007-0.043,0.013-0.065,0.02
				c-0.292,0.091-0.586,0.197-0.877,0.319c-0.026,0.011-0.053,0.022-0.079,0.033c-0.083,0.036-0.166,0.072-0.248,0.111
				c-0.139,0.064-0.278,0.131-0.415,0.201c-0.09,0.046-0.179,0.094-0.268,0.144c-0.078,0.043-0.156,0.088-0.233,0.134
				c-0.022,0.013-0.044,0.026-0.066,0.04c-0.003,0.002-0.005,0.003-0.007,0.004c-0.01,0.007-0.021,0.013-0.031,0.019
				c-0.031,0.044-0.104,0.03-0.149,0.054c-0.04,0.022-0.066,0.054-0.094,0.054c-0.599,0.373-1.065,0.653-1.381,0.842
				c-0.026,0.015-0.051,0.03-0.074,0.044c-0.236,0.14-0.375,0.22-0.407,0.24c-0.004,0.003-0.007,0.004-0.008,0.005
				c0.008,0.074,0.012,0.136,0.012,0.18c0.003,0.503,0.134,2.797,0.146,3.217s0.368,2.035,0.69,2.682
				c0.081,0.163,0.215,0.392,0.37,0.646c0.085,0.14,0.177,0.287,0.27,0.434c0.343,0.541,0.701,1.077,0.806,1.234
				c0.003,0.004,0.005,0.008,0.007,0.011c0.016,0.022,0.024,0.034,0.024,0.034c0.025,0.028,0.053,0.054,0.082,0.077
				c0.18,0.142,0.678,0.515,1.261,0.576c0.072,0.008,0.145,0.01,0.218,0.008c0.343-0.013,0.701-0.06,1.016-0.102
				c0.178-0.023,0.345-0.045,0.49-0.058c0.001,0,0.001,0,0.002-0.001c0.025-0.002,0.051-0.004,0.076-0.006
				c0.001,0,0.002-0.001,0.003-0.001c0.144-0.01,0.259-0.009,0.332,0.013c0.296,0.088,1.202-0.183,1.241-0.192l0.067-0.014
				c1.305-0.217,1.545-0.488,1.835-0.793c0.001,0,0.001,0,0.001,0c0.386-0.538,1.057-0.848,1.799-1.307
				c1.044-0.644,1.419-0.772,1.555-1.54c0.135-0.767,0.92-1.606,1.37-2.174c0.41-0.517,1.347-1.63,2.109-2.31
				c0.012-0.011,0.025-0.022,0.037-0.033c0.06-0.053,0.12-0.103,0.178-0.15c0.102-0.083,0.183-0.166,0.245-0.248
				C401.735,162.294,401.312,161.777,400.909,161.681"/>
			<path fill="#351231" d="M384.547,157.96c-0.016-0.002-0.03-0.012-0.035-0.028c-0.008-0.022,0.004-0.045,0.026-0.053l0.713-0.242
				c0.022-0.007,0.045,0.004,0.053,0.026c0.008,0.022-0.004,0.045-0.026,0.053l-0.713,0.242
				C384.558,157.96,384.552,157.96,384.547,157.96"/>
			<path fill="#351231" d="M387.253,154.527c-0.02-0.002-0.035-0.017-0.037-0.037c-0.002-0.023,0.014-0.043,0.037-0.045l1.015-0.099
				c0.023-0.003,0.043,0.014,0.045,0.037c0.002,0.023-0.014,0.043-0.037,0.045l-1.015,0.099
				C387.259,154.528,387.256,154.528,387.253,154.527"/>
			<path fill="#351231" d="M390.562,152.696c-0.021-0.002-0.037-0.02-0.037-0.041c-0.001-0.023,0.018-0.042,0.041-0.042l0.787-0.011
				c0.023,0,0.042,0.018,0.042,0.041c0.001,0.023-0.018,0.042-0.041,0.042l-0.787,0.011
				C390.565,152.696,390.564,152.696,390.562,152.696"/>
			<path fill="#351231" d="M394.115,153.872c-0.003,0.001-0.007,0.001-0.01,0l-0.824-0.132c-0.023-0.004-0.038-0.025-0.035-0.048
				c0.004-0.023,0.025-0.038,0.047-0.034l0.824,0.132c0.023,0.004,0.038,0.025,0.035,0.048
				C394.149,153.856,394.134,153.87,394.115,153.872"/>
			<path fill="#351231" d="M394.172,157.007c-0.004,0.001-0.007,0-0.011-0.001l-1.017-0.171c-0.023-0.004-0.038-0.025-0.035-0.048
				c0.004-0.023,0.025-0.038,0.048-0.034l1.018,0.171c0.023,0.004,0.038,0.025,0.034,0.048
				C394.205,156.991,394.19,157.005,394.172,157.007"/>
			<path fill="#351231" d="M390.345,155.725c-0.022-0.003-0.038-0.021-0.037-0.043c0.001-0.023,0.02-0.041,0.043-0.04l0.982,0.028
				c0.024,0.001,0.041,0.02,0.041,0.043c-0.001,0.023-0.02,0.041-0.043,0.04l-0.983-0.028
				C390.347,155.725,390.346,155.725,390.345,155.725"/>
			<path fill="#351231" d="M387.437,157.579c-0.017-0.002-0.031-0.014-0.036-0.031c-0.005-0.022,0.008-0.045,0.03-0.051l0.897-0.223
				c0.022-0.006,0.044,0.008,0.05,0.03s-0.008,0.045-0.03,0.05l-0.897,0.223C387.447,157.579,387.442,157.58,387.437,157.579"/>
			<path fill="#351231" d="M385.893,159.486c-0.035-0.003-0.244,0.061-0.469,0.135c-0.034,0.011-0.069,0.023-0.104,0.035
				c-0.104,0.035-0.206,0.069-0.29,0.098c-0.022,0.008-0.034,0.032-0.026,0.053c0.005,0.016,0.019,0.026,0.035,0.028
				c0.006,0.001,0.011,0,0.018-0.002c0.075-0.026,0.151-0.052,0.226-0.077c0.034-0.011,0.067-0.022,0.1-0.033
				c0.251-0.083,0.467-0.15,0.503-0.153c0.001,0,0.001,0,0.001,0c0.022,0.002,0.042-0.015,0.044-0.037
				C385.933,159.51,385.917,159.489,385.893,159.486"/>
			<path fill="#351231" d="M385.446,162.145c-0.012-0.001-0.024-0.008-0.031-0.019c-0.012-0.02-0.006-0.045,0.013-0.057
				c0.359-0.224,1.012-0.411,1.039-0.419c0.022-0.006,0.045,0.007,0.052,0.029s-0.007,0.045-0.028,0.051
				c-0.007,0.002-0.669,0.192-1.018,0.409C385.464,162.144,385.455,162.146,385.446,162.145"/>
			<path fill="#351231" d="M387.82,160.829c-0.009-0.001-0.018-0.005-0.025-0.012c-0.016-0.017-0.016-0.043,0.001-0.059
				c0.315-0.308,0.968-0.426,0.995-0.431c0.023-0.004,0.044,0.011,0.048,0.034c0.004,0.023-0.011,0.044-0.034,0.049
				c-0.007,0.001-0.654,0.118-0.952,0.408C387.844,160.826,387.832,160.83,387.82,160.829"/>
			<path fill="#351231" d="M390.012,159.82c-0.019-0.002-0.035-0.017-0.037-0.037c-0.003-0.023,0.013-0.043,0.037-0.046
				c0.497-0.057,1.064-0.02,1.069-0.02c0.023,0.002,0.04,0.022,0.039,0.044s-0.022,0.04-0.044,0.039
				c-0.006-0.001-0.565-0.037-1.054,0.019C390.017,159.82,390.014,159.82,390.012,159.82"/>
			<path fill="#351231" d="M393.889,160.356c-0.009,0.001-0.019-0.002-0.027-0.007c-0.226-0.157-1.11-0.264-1.119-0.265
				c-0.023-0.003-0.039-0.023-0.036-0.046c0.003-0.023,0.023-0.039,0.046-0.037c0.037,0.005,0.913,0.11,1.157,0.279
				c0.019,0.013,0.024,0.039,0.01,0.058C393.912,160.35,393.9,160.355,393.889,160.356"/>
			<path fill="#351231" d="M397.807,165.843c-0.008-0.001-0.015-0.004-0.022-0.009c-0.464-0.365-0.98-1.159-1.002-1.193
				c-0.012-0.02-0.007-0.045,0.013-0.058c0.019-0.012,0.045-0.007,0.057,0.012c0.005,0.008,0.53,0.816,0.983,1.173
				c0.018,0.014,0.021,0.04,0.007,0.058C397.835,165.839,397.821,165.844,397.807,165.843"/>
			<g id="eye_00000146497892704243054330000000167455765552091548_">
				<path fill="#FFFFFF" d="M386.23,165.949c0,0,1.43-1.898,3.446-2.073c2.922-0.253,4.645,2.073,4.645,2.073
					s-1.348,1.308-4.22,1.431C387.828,167.478,386.23,165.949,386.23,165.949"/>
				<path fill="#998FCD" d="M392.02,165.498c0,0.953-0.781,1.725-1.745,1.725s-1.746-0.772-1.746-1.725s0.782-1.725,1.746-1.725
					S392.02,164.545,392.02,165.498"/>
				<path fill="#351231" d="M390.944,165.498c0,0.365-0.299,0.661-0.669,0.661s-0.67-0.296-0.67-0.661c0-0.366,0.3-0.661,0.67-0.661
					S390.944,165.132,390.944,165.498"/>
				<path fill="#351231" d="M386.23,165.949c0,0,1.124-2.233,4.045-2.326c2.922-0.092,4.045,2.326,4.045,2.326
					s-1.691-2.092-4.045-1.961C387.753,164.129,386.23,165.949,386.23,165.949"/>
				<path fill="#351231" d="M390.275,163.347c-0.026,0-0.048-0.021-0.048-0.048v-2.39c0-0.026,0.022-0.048,0.048-0.048
					s0.048,0.021,0.048,0.048v2.39C390.322,163.326,390.301,163.347,390.275,163.347"/>
				<path fill="#351231" d="M389.227,163.519c-0.019,0-0.037-0.011-0.044-0.03l-0.758-1.918c-0.009-0.024,0.003-0.052,0.027-0.061
					c0.025-0.01,0.052,0.002,0.062,0.026l0.758,1.918c0.01,0.024-0.003,0.052-0.027,0.061
					C389.239,163.518,389.233,163.519,389.227,163.519"/>
				<path fill="#351231" d="M388.169,163.905c-0.015,0-0.03-0.007-0.039-0.021l-0.907-1.344c-0.015-0.022-0.009-0.052,0.013-0.067
					c0.022-0.014,0.052-0.009,0.066,0.013l0.907,1.345c0.014,0.022,0.009,0.051-0.013,0.066
					C388.188,163.902,388.179,163.905,388.169,163.905"/>
				<path fill="#351231" d="M391.458,163.471c-0.006,0-0.012-0.001-0.018-0.004c-0.024-0.009-0.036-0.037-0.027-0.062l0.758-1.917
					c0.01-0.024,0.038-0.037,0.062-0.027c0.025,0.01,0.037,0.038,0.027,0.062l-0.758,1.917
					C391.494,163.46,391.476,163.471,391.458,163.471"/>
				<path fill="#351231" d="M392.372,163.809c-0.009,0-0.018-0.003-0.026-0.008c-0.022-0.014-0.028-0.044-0.013-0.066l0.907-1.345
					c0.014-0.022,0.044-0.027,0.066-0.012c0.022,0.014,0.027,0.044,0.013,0.066l-0.907,1.344
					C392.403,163.802,392.388,163.809,392.372,163.809"/>
				<path fill="#351231" d="M393.183,164.286c-0.01,0-0.021-0.004-0.029-0.01c-0.021-0.017-0.024-0.046-0.008-0.067l0.706-0.891
					c0.016-0.021,0.046-0.024,0.067-0.008c0.021,0.017,0.024,0.046,0.008,0.067l-0.706,0.891
					C393.211,164.28,393.197,164.286,393.183,164.286"/>
				<path fill="#351231" d="M387.358,164.382c-0.014,0-0.028-0.006-0.038-0.019l-0.706-0.891c-0.017-0.021-0.013-0.051,0.008-0.067
					c0.021-0.017,0.051-0.013,0.067,0.008l0.706,0.891c0.016,0.021,0.013,0.051-0.008,0.067
					C387.379,164.378,387.369,164.382,387.358,164.382"/>
				<path fill="#351231" d="M390.266,170.344c-0.026,0-0.048-0.022-0.048-0.048v-2.389c0-0.027,0.022-0.048,0.048-0.048
					c0.026,0,0.048,0.021,0.048,0.048v2.389C390.314,170.322,390.292,170.344,390.266,170.344"/>
				<path fill="#351231" d="M392.071,169.7c-0.019,0-0.037-0.011-0.044-0.03l-0.758-1.917c-0.009-0.024,0.003-0.052,0.027-0.062
					c0.024-0.01,0.052,0.002,0.062,0.027l0.758,1.917c0.01,0.025-0.003,0.053-0.027,0.062
					C392.083,169.699,392.077,169.7,392.071,169.7"/>
				<path fill="#351231" d="M393.278,168.741c-0.016,0-0.03-0.007-0.04-0.021l-0.907-1.344c-0.014-0.022-0.009-0.052,0.013-0.066
					c0.022-0.015,0.051-0.009,0.066,0.012l0.907,1.345c0.015,0.022,0.009,0.051-0.012,0.066
					C393.297,168.739,393.288,168.741,393.278,168.741"/>
				<path fill="#351231" d="M388.325,169.748c-0.006,0-0.012-0.001-0.018-0.004c-0.025-0.009-0.037-0.037-0.027-0.061l0.758-1.918
					c0.01-0.024,0.037-0.036,0.062-0.026c0.024,0.009,0.036,0.037,0.027,0.061l-0.758,1.918
					C388.362,169.736,388.344,169.748,388.325,169.748"/>
				<path fill="#351231" d="M387.261,168.837c-0.009,0-0.019-0.003-0.027-0.008c-0.022-0.015-0.027-0.044-0.012-0.066l0.907-1.345
					c0.015-0.022,0.044-0.027,0.067-0.013c0.022,0.015,0.027,0.044,0.012,0.066l-0.907,1.345
					C387.292,168.83,387.277,168.837,387.261,168.837"/>
				<path fill="#351231" d="M386.652,167.907c-0.01,0-0.021-0.004-0.029-0.011c-0.021-0.016-0.024-0.046-0.008-0.067l0.706-0.891
					c0.017-0.021,0.046-0.024,0.067-0.008c0.021,0.016,0.024,0.046,0.008,0.067l-0.706,0.891
					C386.68,167.9,386.666,167.907,386.652,167.907"/>
				<path fill="#351231" d="M393.889,167.811c-0.014,0-0.028-0.006-0.037-0.018l-0.706-0.891c-0.017-0.021-0.013-0.051,0.008-0.067
					s0.051-0.013,0.067,0.008l0.706,0.891c0.017,0.021,0.013,0.051-0.008,0.067C393.91,167.808,393.899,167.811,393.889,167.811"/>
			</g>
		</g>
		<g id="sarah-hand_00000181776213132193699120000016984925574895531931_">
			<path fill="#998FCD" d="M338.151,314.108c0.073-0.016,0.146-0.028,0.217-0.037c2.005-0.235,2.736,0.978,2.938,1.434
				c-0.156-0.535-0.267-1.88-0.158-2.883c0.087-0.799,0.072-1.319,0.063-1.837c-0.004-0.219,0.108-0.472,0.096-0.678
				c-0.039-0.695-0.134-2.812-0.204-3.53c-0.059-0.598,0.028-1.975-0.516-2.371c-0.109-0.081-0.244-0.121-0.412-0.107
				c-0.219,0.018-0.382,0.064-0.503,0.137c-0.429,0.257-0.337,0.839-0.405,1.613c-0.088,0.993-0.157,2.123-0.271,2.923
				c-0.114,0.8-0.093,1.974-0.246,3.312c-0.137,1.206-0.297,1.755-0.611,1.87L338.151,314.108"/>
			<path fill="#998FCD" d="M336.627,303.604c0.014,0.447,0.077,2.654-0.133,3.33c-0.21,0.676-0.054,1.585-0.092,2.223
				c-0.038,0.638-0.261,1.173-0.204,1.96c0.056,0.775-0.022,2.32-0.234,2.346l0.038,0.489c0.937-0.416,1.855-0.7,2.585-0.68
				l0.024-0.153c-0.036,0.004-0.073,0.003-0.111-0.004c-0.384-0.068-0.116-0.766-0.107-1.379c0.008-0.613,0.357-2.893,0.195-3.747
				c-0.162-0.855,0.06-2.45-0.093-3.387c-0.122-0.75-0.283-1.536-0.682-1.801c-0.1-0.067-0.215-0.1-0.348-0.092
				c-0.266,0.015-0.45,0.083-0.576,0.18C336.652,303.072,336.619,303.36,336.627,303.604"/>
			<path fill="#998FCD" d="M333.508,307.766c0.058,0.509-0.074,1.779-0.043,2.284c0.031,0.506,0.062,2.468,0.195,3.349
				c0.113,0.754,0.201,1.494-0.014,1.796c0.741-0.452,1.587-0.923,2.418-1.291l-0.038-0.489c-0.003,0.001-0.007,0.001-0.01,0
				c-0.22-0.023-0.404-3.084-0.514-3.626c-0.111-0.542-0.223-2.144-0.227-3.177c-0.004-0.881,0.105-2.056-0.599-2.302
				c-0.121-0.043-0.266-0.058-0.44-0.039c-0.162,0.017-0.294,0.086-0.402,0.193C333.153,305.136,333.458,307.328,333.508,307.766"/>
			<path fill="#998FCD" d="M330.783,310.517c0.078,0.894,0.146,1.773,0.231,2.061c0.131,0.446,0.567,2.638,0.646,3.405
				c0.013-0.01,0.967-0.676,2.162-1.419c-0.225-0.001-0.218-0.608-0.429-1.262c-0.239-0.741-0.527-1.639-0.692-2.458
				c-0.099-0.489-0.092-0.963-0.174-1.321c-0.201-0.888-0.241-1.76-0.865-1.801c-0.036-0.003-0.074-0.002-0.114,0.001
				c-0.254,0.021-0.428,0.059-0.555,0.187c-0.148,0.149-0.232,0.42-0.306,0.928C330.628,309.257,330.729,309.894,330.783,310.517"/>
			<path fill="#998FCD" d="M347.47,314.824c-0.049-0.011-0.097-0.022-0.146-0.031c-0.418-0.08-0.885-0.058-1.956,0.405
				c-1.197,0.517-2.458,1.641-2.626,2.182s-0.726,1.348-0.938,1.242c-0.212-0.106-0.41-2.75-0.511-3.123
				c-0.004-0.013-0.007-0.027-0.009-0.042c-0.004-0.023-0.007-0.048-0.009-0.076v-0.001c-0.002-0.019-0.003-0.039-0.004-0.06
				c-0.01-0.06-0.026-0.132-0.049-0.214c-0.139-0.502-0.551-1.351-1.755-1.728c-0.211-0.066-0.445-0.117-0.707-0.15
				c-0.053-0.007-0.106-0.012-0.161-0.017c-0.009-0.001-0.018-0.002-0.026-0.003c0,0,0,0-0.001,0c-0.474-0.037-1.008,0-1.572,0.104
				c-0.199,0.037-0.401,0.082-0.605,0.135c-0.119,0.031-0.238,0.065-0.357,0.101c-0.022,0.007-0.043,0.013-0.065,0.02
				c-0.292,0.091-0.586,0.197-0.877,0.319c-0.026,0.011-0.053,0.022-0.079,0.033c-0.083,0.036-0.166,0.072-0.248,0.11
				c-0.139,0.064-0.278,0.131-0.415,0.201c-0.09,0.046-0.179,0.095-0.268,0.144c-0.078,0.043-0.156,0.088-0.233,0.134
				c-0.022,0.013-0.044,0.026-0.066,0.04c-0.003,0.002-0.005,0.003-0.007,0.004c-0.01,0.007-0.021,0.013-0.031,0.019
				c-0.031,0.044-0.104,0.03-0.149,0.054c-0.04,0.022-0.066,0.054-0.094,0.054c-0.599,0.373-1.065,0.653-1.381,0.842
				c-0.026,0.015-0.051,0.03-0.074,0.044c-0.236,0.14-0.375,0.22-0.407,0.24c-0.004,0.003-0.007,0.004-0.008,0.005
				c0.008,0.074,0.012,0.136,0.012,0.18c0.003,0.503,0.134,2.797,0.146,3.217s0.368,2.035,0.69,2.682
				c0.081,0.163,0.215,0.392,0.37,0.646c0.085,0.14,0.177,0.287,0.27,0.434c0.343,0.541,0.701,1.077,0.806,1.234
				c0.003,0.004,0.005,0.008,0.007,0.011c0.016,0.022,0.024,0.034,0.024,0.034c0.025,0.028,0.053,0.054,0.082,0.077
				c0.18,0.142,0.678,0.515,1.261,0.576c0.072,0.008,0.145,0.01,0.218,0.008c0.343-0.013,0.701-0.06,1.016-0.102
				c0.178-0.023,0.345-0.045,0.49-0.058c0.001,0,0.001,0,0.002-0.001c0.025-0.002,0.051-0.004,0.076-0.006
				c0.001,0,0.002-0.001,0.003-0.001c0.144-0.01,0.259-0.009,0.332,0.013c0.296,0.088,1.202-0.183,1.241-0.192l0.067-0.014
				c1.305-0.217,1.545-0.488,1.835-0.793c0.001,0,0.001,0,0.001,0c0.386-0.538,1.057-0.848,1.799-1.307
				c1.044-0.644,1.419-0.772,1.555-1.54c0.135-0.767,0.92-1.606,1.37-2.174c0.41-0.517,1.347-1.63,2.109-2.31
				c0.012-0.011,0.025-0.022,0.037-0.033c0.06-0.053,0.12-0.103,0.178-0.15c0.102-0.083,0.183-0.166,0.245-0.248
				C348.295,315.438,347.873,314.921,347.47,314.824"/>
			<path fill="#351231" d="M331.107,311.104c-0.016-0.002-0.03-0.012-0.035-0.028c-0.008-0.022,0.004-0.045,0.026-0.053l0.713-0.242
				c0.022-0.007,0.045,0.004,0.053,0.026c0.008,0.022-0.004,0.045-0.026,0.053l-0.713,0.242
				C331.119,311.104,331.113,311.104,331.107,311.104"/>
			<path fill="#351231" d="M333.814,307.671c-0.02-0.002-0.035-0.017-0.037-0.037c-0.002-0.023,0.014-0.043,0.037-0.045l1.015-0.099
				c0.023-0.003,0.043,0.014,0.045,0.037c0.002,0.023-0.014,0.043-0.037,0.045l-1.015,0.099
				C333.82,307.671,333.817,307.671,333.814,307.671"/>
			<path fill="#351231" d="M337.123,305.839c-0.021-0.002-0.037-0.02-0.037-0.041c-0.001-0.023,0.018-0.042,0.041-0.042l0.787-0.011
				c0.023,0,0.042,0.018,0.042,0.041c0.001,0.023-0.018,0.042-0.041,0.042l-0.787,0.011
				C337.126,305.839,337.124,305.839,337.123,305.839"/>
			<path fill="#351231" d="M340.676,307.016c-0.003,0.001-0.007,0.001-0.01,0l-0.824-0.132c-0.023-0.004-0.038-0.025-0.035-0.048
				c0.004-0.023,0.025-0.038,0.047-0.034l0.824,0.132c0.023,0.004,0.038,0.025,0.035,0.047
				C340.71,307,340.695,307.014,340.676,307.016"/>
			<path fill="#351231" d="M340.732,310.15c-0.004,0.001-0.007,0-0.011,0l-1.017-0.171c-0.023-0.004-0.038-0.025-0.035-0.048
				c0.004-0.023,0.025-0.038,0.048-0.034l1.018,0.171c0.023,0.004,0.038,0.025,0.034,0.048
				C340.766,310.135,340.75,310.149,340.732,310.15"/>
			<path fill="#351231" d="M336.906,308.868c-0.022-0.003-0.038-0.021-0.037-0.043c0.001-0.023,0.02-0.041,0.043-0.04l0.982,0.028
				c0.024,0.001,0.041,0.02,0.041,0.043c-0.001,0.023-0.02,0.041-0.043,0.04l-0.983-0.028
				C336.908,308.868,336.907,308.868,336.906,308.868"/>
			<path fill="#351231" d="M333.998,310.723c-0.017-0.002-0.031-0.014-0.036-0.032c-0.005-0.022,0.008-0.045,0.03-0.051l0.897-0.223
				c0.022-0.006,0.044,0.008,0.05,0.03c0.006,0.022-0.008,0.045-0.03,0.05l-0.897,0.223
				C334.008,310.723,334.003,310.724,333.998,310.723"/>
			<path fill="#351231" d="M332.454,312.63c-0.035-0.003-0.244,0.061-0.469,0.135c-0.034,0.011-0.069,0.023-0.104,0.035
				c-0.104,0.035-0.206,0.069-0.29,0.098c-0.022,0.008-0.034,0.031-0.026,0.053c0.005,0.016,0.019,0.026,0.035,0.028
				c0.006,0.001,0.011,0,0.018-0.002c0.075-0.026,0.151-0.052,0.226-0.077c0.034-0.011,0.067-0.022,0.1-0.033
				c0.251-0.083,0.467-0.15,0.503-0.153c0.001,0,0.001,0,0.001,0c0.022,0.002,0.042-0.015,0.044-0.037
				C332.494,312.653,332.477,312.633,332.454,312.63"/>
			<path fill="#351231" d="M332.006,315.289c-0.012-0.001-0.024-0.008-0.031-0.019c-0.012-0.02-0.006-0.045,0.013-0.057
				c0.359-0.224,1.012-0.41,1.039-0.419c0.022-0.006,0.045,0.007,0.052,0.029c0.006,0.022-0.007,0.045-0.028,0.051
				c-0.007,0.002-0.669,0.192-1.018,0.409C332.024,315.288,332.016,315.29,332.006,315.289"/>
			<path fill="#351231" d="M334.381,313.972c-0.009-0.001-0.018-0.005-0.025-0.012c-0.016-0.017-0.016-0.043,0.001-0.059
				c0.315-0.308,0.968-0.426,0.995-0.431c0.023-0.004,0.044,0.011,0.048,0.034c0.004,0.023-0.011,0.044-0.034,0.049
				c-0.007,0.001-0.654,0.118-0.952,0.408C334.405,313.97,334.392,313.974,334.381,313.972"/>
			<path fill="#351231" d="M336.572,312.964c-0.019-0.002-0.035-0.017-0.037-0.037c-0.003-0.023,0.013-0.043,0.037-0.046
				c0.497-0.057,1.064-0.02,1.069-0.02c0.023,0.002,0.04,0.022,0.039,0.044c-0.002,0.023-0.022,0.04-0.044,0.039
				c-0.006-0.001-0.565-0.037-1.054,0.019C336.578,312.964,336.575,312.964,336.572,312.964"/>
			<path fill="#351231" d="M340.449,313.5c-0.009,0.001-0.019-0.002-0.027-0.007c-0.226-0.157-1.11-0.264-1.119-0.265
				c-0.023-0.003-0.039-0.023-0.036-0.046c0.003-0.023,0.023-0.039,0.046-0.037c0.037,0.005,0.913,0.11,1.157,0.279
				c0.019,0.013,0.024,0.039,0.01,0.058C340.473,313.493,340.461,313.499,340.449,313.5"/>
			<path fill="#351231" d="M344.368,318.987c-0.008-0.001-0.015-0.004-0.022-0.009c-0.464-0.365-0.98-1.159-1.002-1.193
				c-0.012-0.02-0.007-0.045,0.013-0.058c0.019-0.012,0.045-0.007,0.057,0.012c0.005,0.008,0.53,0.816,0.983,1.173
				c0.018,0.014,0.021,0.04,0.007,0.058C344.396,318.983,344.381,318.988,344.368,318.987"/>
			<g id="eye_00000057144963855117297900000005456689876061092745_">
				<path fill="#FFFFFF" d="M332.79,319.093c0,0,1.43-1.898,3.446-2.073c2.922-0.253,4.645,2.073,4.645,2.073
					s-1.348,1.308-4.22,1.431C334.389,320.622,332.79,319.093,332.79,319.093"/>
				<path fill="#998FCD" d="M338.581,318.641c0,0.953-0.781,1.725-1.745,1.725s-1.746-0.772-1.746-1.725s0.782-1.725,1.746-1.725
					S338.581,317.689,338.581,318.641"/>
				<path fill="#351231" d="M337.504,318.641c0,0.365-0.299,0.661-0.669,0.661s-0.67-0.296-0.67-0.661c0-0.366,0.3-0.661,0.67-0.661
					S337.504,318.276,337.504,318.641"/>
				<path fill="#351231" d="M332.79,319.093c0,0,1.124-2.233,4.045-2.326c2.922-0.092,4.045,2.326,4.045,2.326
					s-1.691-2.092-4.045-1.961C334.314,317.272,332.79,319.093,332.79,319.093"/>
				<path fill="#351231" d="M336.835,316.491c-0.026,0-0.048-0.021-0.048-0.048v-2.39c0-0.026,0.022-0.048,0.048-0.048
					s0.048,0.021,0.048,0.048v2.39C336.883,316.47,336.862,316.491,336.835,316.491"/>
				<path fill="#351231" d="M335.788,316.663c-0.019,0-0.037-0.011-0.044-0.03l-0.758-1.918c-0.009-0.024,0.003-0.052,0.027-0.061
					c0.025-0.01,0.052,0.002,0.062,0.026l0.758,1.918c0.01,0.024-0.003,0.052-0.027,0.061
					C335.8,316.662,335.794,316.663,335.788,316.663"/>
				<path fill="#351231" d="M334.73,317.048c-0.015,0-0.03-0.007-0.039-0.021l-0.907-1.344c-0.015-0.022-0.009-0.052,0.013-0.067
					c0.022-0.014,0.052-0.009,0.066,0.013l0.907,1.345c0.014,0.022,0.009,0.051-0.013,0.066
					C334.749,317.046,334.739,317.048,334.73,317.048"/>
				<path fill="#351231" d="M338.018,316.615c-0.006,0-0.012-0.001-0.018-0.004c-0.024-0.009-0.036-0.037-0.027-0.062l0.758-1.917
					c0.01-0.024,0.038-0.037,0.062-0.027c0.025,0.01,0.037,0.038,0.027,0.062l-0.758,1.917
					C338.055,316.604,338.037,316.615,338.018,316.615"/>
				<path fill="#351231" d="M338.933,316.953c-0.009,0-0.018-0.003-0.026-0.008c-0.022-0.014-0.028-0.044-0.013-0.066l0.907-1.345
					c0.014-0.022,0.044-0.027,0.066-0.012c0.022,0.014,0.027,0.044,0.013,0.066l-0.907,1.344
					C338.963,316.946,338.948,316.953,338.933,316.953"/>
				<path fill="#351231" d="M339.743,317.43c-0.01,0-0.021-0.004-0.029-0.01c-0.021-0.017-0.024-0.046-0.008-0.067l0.706-0.891
					c0.016-0.021,0.046-0.024,0.067-0.008c0.021,0.017,0.024,0.046,0.008,0.067l-0.706,0.891
					C339.771,317.424,339.757,317.43,339.743,317.43"/>
				<path fill="#351231" d="M333.919,317.526c-0.014,0-0.028-0.006-0.038-0.019l-0.706-0.891c-0.017-0.021-0.013-0.051,0.008-0.067
					c0.021-0.017,0.051-0.013,0.067,0.008l0.706,0.891c0.016,0.021,0.013,0.051-0.008,0.067
					C333.94,317.522,333.929,317.526,333.919,317.526"/>
				<path fill="#351231" d="M336.827,323.488c-0.026,0-0.048-0.022-0.048-0.048v-2.389c0-0.027,0.022-0.048,0.048-0.048
					c0.026,0,0.048,0.021,0.048,0.048v2.389C336.875,323.466,336.853,323.488,336.827,323.488"/>
				<path fill="#351231" d="M338.632,322.844c-0.019,0-0.037-0.011-0.044-0.03l-0.758-1.917c-0.009-0.024,0.003-0.052,0.027-0.062
					c0.024-0.01,0.052,0.002,0.062,0.027l0.758,1.917c0.01,0.025-0.003,0.053-0.027,0.062
					C338.644,322.843,338.637,322.844,338.632,322.844"/>
				<path fill="#351231" d="M339.839,321.885c-0.016,0-0.03-0.007-0.04-0.021l-0.907-1.344c-0.014-0.022-0.009-0.052,0.013-0.066
					c0.022-0.015,0.051-0.009,0.066,0.012l0.907,1.345c0.015,0.022,0.009,0.051-0.012,0.066
					C339.858,321.883,339.848,321.885,339.839,321.885"/>
				<path fill="#351231" d="M334.886,322.891c-0.006,0-0.012-0.001-0.018-0.004c-0.025-0.009-0.037-0.037-0.027-0.061l0.758-1.918
					c0.01-0.024,0.037-0.036,0.062-0.026c0.024,0.009,0.036,0.037,0.027,0.061l-0.758,1.918
					C334.923,322.88,334.905,322.891,334.886,322.891"/>
				<path fill="#351231" d="M333.822,321.981c-0.009,0-0.019-0.003-0.027-0.008c-0.022-0.015-0.027-0.044-0.012-0.066l0.907-1.345
					c0.015-0.022,0.044-0.027,0.067-0.013c0.022,0.015,0.027,0.044,0.012,0.066l-0.907,1.345
					C333.852,321.973,333.837,321.981,333.822,321.981"/>
				<path fill="#351231" d="M333.213,321.051c-0.01,0-0.021-0.004-0.029-0.011c-0.021-0.016-0.024-0.046-0.008-0.067l0.706-0.891
					c0.017-0.021,0.046-0.024,0.067-0.008c0.021,0.016,0.024,0.046,0.008,0.067l-0.706,0.891
					C333.24,321.044,333.227,321.051,333.213,321.051"/>
				<path fill="#351231" d="M340.449,320.955c-0.014,0-0.028-0.006-0.037-0.018l-0.706-0.891c-0.017-0.021-0.013-0.051,0.008-0.067
					c0.021-0.017,0.051-0.013,0.067,0.008l0.706,0.891c0.017,0.021,0.013,0.051-0.008,0.067
					C340.47,320.952,340.46,320.955,340.449,320.955"/>
			</g>
		</g>
		<g id="lisa-hand_00000165940485987704754590000002904344166708456579_">
			<path fill="#998FCD" d="M320.675,458.183c0.073-0.016,0.146-0.028,0.217-0.037c2.005-0.235,2.736,0.978,2.938,1.434
				c-0.156-0.535-0.267-1.88-0.158-2.883c0.087-0.799,0.072-1.319,0.063-1.837c-0.004-0.219,0.108-0.472,0.096-0.678
				c-0.039-0.695-0.134-2.812-0.204-3.53c-0.059-0.598,0.028-1.975-0.516-2.371c-0.109-0.081-0.244-0.121-0.412-0.107
				c-0.219,0.018-0.382,0.064-0.503,0.137c-0.429,0.257-0.337,0.839-0.405,1.613c-0.088,0.993-0.157,2.123-0.271,2.923
				s-0.093,1.974-0.246,3.312c-0.137,1.206-0.297,1.755-0.611,1.87L320.675,458.183"/>
			<path fill="#998FCD" d="M319.151,447.678c0.014,0.447,0.077,2.654-0.133,3.33c-0.21,0.676-0.054,1.585-0.092,2.223
				c-0.038,0.638-0.261,1.173-0.204,1.96c0.056,0.775-0.022,2.32-0.234,2.346l0.038,0.489c0.937-0.416,1.855-0.7,2.585-0.68
				l0.024-0.153c-0.036,0.004-0.073,0.003-0.111-0.004c-0.384-0.068-0.116-0.766-0.107-1.379c0.008-0.613,0.357-2.893,0.195-3.747
				c-0.162-0.855,0.06-2.45-0.093-3.387c-0.122-0.75-0.283-1.536-0.682-1.801c-0.1-0.067-0.215-0.1-0.348-0.092
				c-0.266,0.015-0.45,0.083-0.576,0.18C319.176,447.146,319.144,447.435,319.151,447.678"/>
			<path fill="#998FCD" d="M316.033,451.841c0.058,0.509-0.074,1.779-0.043,2.284c0.031,0.506,0.062,2.468,0.195,3.349
				c0.113,0.754,0.201,1.494-0.014,1.796c0.741-0.452,1.587-0.923,2.418-1.291l-0.038-0.489c-0.003,0.001-0.007,0.001-0.01,0
				c-0.22-0.023-0.404-3.084-0.514-3.626c-0.111-0.542-0.223-2.144-0.227-3.177c-0.004-0.881,0.105-2.056-0.599-2.302
				c-0.121-0.043-0.266-0.058-0.44-0.039c-0.162,0.017-0.294,0.086-0.402,0.193C315.677,449.211,315.982,451.402,316.033,451.841"/>
			<path fill="#998FCD" d="M313.307,454.591c0.078,0.894,0.146,1.773,0.231,2.061c0.131,0.446,0.567,2.638,0.646,3.405
				c0.013-0.01,0.967-0.676,2.163-1.419c-0.225-0.001-0.218-0.608-0.429-1.263c-0.239-0.741-0.527-1.639-0.692-2.458
				c-0.099-0.489-0.092-0.963-0.174-1.321c-0.201-0.888-0.241-1.76-0.865-1.801c-0.036-0.003-0.074-0.002-0.114,0.001
				c-0.254,0.021-0.428,0.059-0.555,0.187c-0.148,0.149-0.232,0.42-0.306,0.928C313.152,453.331,313.253,453.968,313.307,454.591"/>
			<path fill="#998FCD" d="M329.994,458.899c-0.049-0.011-0.097-0.022-0.146-0.031c-0.418-0.08-0.885-0.058-1.956,0.405
				c-1.197,0.517-2.458,1.641-2.626,2.182s-0.726,1.348-0.938,1.242c-0.212-0.106-0.41-2.75-0.511-3.123
				c-0.004-0.013-0.007-0.027-0.009-0.042c-0.004-0.023-0.007-0.048-0.009-0.076v-0.001c-0.002-0.019-0.003-0.039-0.004-0.06
				c-0.01-0.06-0.026-0.132-0.049-0.214c-0.139-0.502-0.551-1.351-1.755-1.728c-0.211-0.066-0.445-0.117-0.707-0.15
				c-0.053-0.007-0.106-0.012-0.161-0.017c-0.009-0.001-0.018-0.002-0.026-0.003c0,0,0,0-0.001,0c-0.474-0.037-1.008,0-1.572,0.104
				c-0.199,0.037-0.401,0.082-0.605,0.135c-0.119,0.031-0.238,0.065-0.357,0.101c-0.022,0.007-0.043,0.013-0.065,0.02
				c-0.292,0.091-0.586,0.197-0.877,0.319c-0.026,0.011-0.053,0.022-0.079,0.033c-0.083,0.036-0.166,0.072-0.248,0.111
				c-0.139,0.064-0.278,0.131-0.415,0.201c-0.09,0.046-0.179,0.094-0.268,0.144c-0.078,0.043-0.156,0.088-0.233,0.134
				c-0.022,0.013-0.044,0.026-0.066,0.04c-0.003,0.002-0.005,0.003-0.007,0.004c-0.01,0.007-0.021,0.013-0.031,0.019
				c-0.031,0.044-0.104,0.03-0.149,0.054c-0.04,0.022-0.066,0.054-0.095,0.054c-0.599,0.373-1.065,0.653-1.381,0.842
				c-0.026,0.015-0.051,0.03-0.074,0.044c-0.236,0.14-0.375,0.22-0.407,0.24c-0.004,0.003-0.007,0.004-0.008,0.005
				c0.008,0.074,0.012,0.136,0.012,0.18c0.003,0.503,0.134,2.797,0.146,3.217s0.368,2.035,0.69,2.682
				c0.081,0.163,0.215,0.392,0.37,0.646c0.085,0.14,0.177,0.287,0.27,0.434c0.343,0.541,0.701,1.077,0.806,1.234
				c0.003,0.004,0.005,0.008,0.007,0.011c0.016,0.022,0.024,0.034,0.024,0.034c0.025,0.028,0.053,0.054,0.082,0.077
				c0.18,0.142,0.678,0.515,1.261,0.576c0.072,0.008,0.145,0.01,0.218,0.008c0.343-0.013,0.701-0.06,1.016-0.102
				c0.178-0.023,0.345-0.045,0.49-0.058c0.001,0,0.001,0,0.002-0.001c0.025-0.002,0.051-0.004,0.076-0.006
				c0.001,0,0.002-0.001,0.003-0.001c0.144-0.01,0.259-0.009,0.332,0.013c0.296,0.088,1.202-0.183,1.241-0.192l0.067-0.014
				c1.305-0.217,1.545-0.488,1.835-0.793c0.001,0,0.001,0,0.001,0c0.386-0.538,1.057-0.848,1.799-1.307
				c1.044-0.644,1.419-0.772,1.555-1.54c0.135-0.767,0.92-1.606,1.37-2.174c0.41-0.517,1.347-1.63,2.109-2.31
				c0.012-0.011,0.025-0.022,0.037-0.033c0.06-0.053,0.12-0.103,0.178-0.15c0.102-0.083,0.183-0.166,0.245-0.248
				C330.819,459.513,330.397,458.995,329.994,458.899"/>
			<path fill="#351231" d="M313.632,455.178c-0.016-0.002-0.03-0.012-0.035-0.028c-0.008-0.022,0.004-0.045,0.026-0.053l0.713-0.242
				c0.022-0.007,0.045,0.004,0.053,0.026c0.008,0.022-0.004,0.045-0.026,0.053l-0.713,0.242
				C313.643,455.178,313.637,455.179,313.632,455.178"/>
			<path fill="#351231" d="M316.338,451.746c-0.02-0.002-0.035-0.017-0.037-0.037c-0.002-0.023,0.014-0.043,0.037-0.045l1.015-0.099
				c0.023-0.003,0.043,0.014,0.045,0.037c0.002,0.023-0.014,0.043-0.037,0.045l-1.015,0.099
				C316.344,451.746,316.341,451.746,316.338,451.746"/>
			<path fill="#351231" d="M319.647,449.914c-0.021-0.002-0.037-0.02-0.037-0.041c-0.001-0.023,0.018-0.042,0.041-0.042l0.787-0.011
				c0.023,0,0.042,0.018,0.042,0.041c0.001,0.023-0.018,0.042-0.041,0.042l-0.787,0.011
				C319.65,449.914,319.649,449.914,319.647,449.914"/>
			<path fill="#351231" d="M323.2,451.09c-0.003,0.001-0.007,0.001-0.01,0l-0.824-0.132c-0.023-0.004-0.038-0.025-0.035-0.048
				c0.004-0.023,0.025-0.038,0.048-0.034l0.824,0.132c0.023,0.004,0.038,0.025,0.035,0.048
				C323.234,451.075,323.219,451.089,323.2,451.09"/>
			<path fill="#351231" d="M323.256,454.225c-0.004,0.001-0.007,0-0.011-0.001l-1.017-0.171c-0.023-0.004-0.038-0.025-0.035-0.048
				c0.004-0.023,0.025-0.038,0.048-0.034l1.018,0.171c0.023,0.004,0.038,0.025,0.034,0.048
				C323.29,454.21,323.274,454.224,323.256,454.225"/>
			<path fill="#351231" d="M319.43,452.943c-0.022-0.003-0.038-0.021-0.037-0.043c0.001-0.023,0.02-0.041,0.043-0.04l0.982,0.028
				c0.024,0.001,0.041,0.02,0.041,0.043c-0.001,0.023-0.02,0.041-0.043,0.04l-0.983-0.028
				C319.432,452.943,319.431,452.943,319.43,452.943"/>
			<path fill="#351231" d="M316.522,454.798c-0.017-0.002-0.031-0.014-0.036-0.031c-0.005-0.022,0.008-0.045,0.03-0.051l0.897-0.223
				c0.022-0.006,0.044,0.008,0.05,0.03s-0.008,0.045-0.03,0.05l-0.897,0.223C316.532,454.798,316.527,454.798,316.522,454.798"/>
			<path fill="#351231" d="M314.978,456.705c-0.035-0.003-0.244,0.061-0.469,0.135c-0.034,0.011-0.069,0.023-0.104,0.035
				c-0.104,0.035-0.206,0.069-0.29,0.098c-0.022,0.008-0.034,0.031-0.026,0.053c0.005,0.016,0.019,0.026,0.035,0.028
				c0.006,0.001,0.011,0,0.018-0.002c0.075-0.026,0.151-0.052,0.226-0.077c0.034-0.011,0.067-0.022,0.1-0.033
				c0.251-0.083,0.467-0.15,0.503-0.153c0.001,0,0.001,0,0.001,0c0.022,0.002,0.042-0.015,0.044-0.037
				C315.018,456.728,315.001,456.707,314.978,456.705"/>
			<path fill="#351231" d="M314.53,459.363c-0.012-0.001-0.024-0.008-0.031-0.019c-0.012-0.02-0.006-0.045,0.013-0.057
				c0.359-0.224,1.012-0.41,1.039-0.419c0.022-0.006,0.045,0.007,0.052,0.029c0.006,0.022-0.007,0.045-0.028,0.051
				c-0.007,0.002-0.669,0.192-1.018,0.409C314.549,459.362,314.54,459.364,314.53,459.363"/>
			<path fill="#351231" d="M316.905,458.047c-0.009-0.001-0.018-0.005-0.025-0.012c-0.016-0.017-0.016-0.043,0.001-0.059
				c0.315-0.308,0.968-0.426,0.995-0.431c0.023-0.004,0.044,0.011,0.048,0.034c0.004,0.023-0.011,0.044-0.034,0.049
				c-0.007,0.001-0.654,0.118-0.952,0.408C316.929,458.045,316.917,458.048,316.905,458.047"/>
			<path fill="#351231" d="M319.097,457.038c-0.019-0.002-0.035-0.017-0.037-0.037c-0.003-0.023,0.013-0.043,0.037-0.046
				c0.497-0.057,1.064-0.02,1.069-0.02c0.023,0.002,0.04,0.022,0.039,0.044c-0.002,0.023-0.022,0.04-0.044,0.039
				c-0.006-0.001-0.565-0.037-1.054,0.019C319.102,457.039,319.099,457.039,319.097,457.038"/>
			<path fill="#351231" d="M322.973,457.575c-0.009,0.001-0.019-0.002-0.027-0.007c-0.226-0.157-1.11-0.264-1.119-0.265
				c-0.023-0.003-0.039-0.023-0.036-0.046c0.003-0.023,0.023-0.039,0.046-0.037c0.037,0.005,0.913,0.11,1.157,0.279
				c0.019,0.013,0.024,0.039,0.01,0.058C322.997,457.568,322.985,457.574,322.973,457.575"/>
			<path fill="#351231" d="M326.892,463.061c-0.008-0.001-0.015-0.004-0.022-0.009c-0.464-0.365-0.98-1.159-1.002-1.193
				c-0.012-0.02-0.007-0.045,0.013-0.058c0.019-0.012,0.045-0.007,0.057,0.012c0.005,0.008,0.53,0.816,0.983,1.173
				c0.018,0.014,0.021,0.04,0.007,0.058C326.92,463.057,326.905,463.062,326.892,463.061"/>
			<g id="eye_00000079475416145703739790000012651799844917403281_">
				<path fill="#FFFFFF" d="M315.314,463.167c0,0,1.43-1.898,3.446-2.073c2.922-0.253,4.645,2.073,4.645,2.073
					s-1.348,1.308-4.22,1.431C316.913,464.696,315.314,463.167,315.314,463.167"/>
				<path fill="#998FCD" d="M321.105,462.716c0,0.953-0.781,1.725-1.745,1.725c-0.964,0-1.746-0.772-1.746-1.725
					s0.782-1.725,1.746-1.725C320.323,460.991,321.105,461.763,321.105,462.716"/>
				<path fill="#351231" d="M320.029,462.716c0,0.365-0.299,0.661-0.669,0.661s-0.67-0.296-0.67-0.661c0-0.366,0.3-0.661,0.67-0.661
					S320.029,462.35,320.029,462.716"/>
				<path fill="#351231" d="M315.314,463.167c0,0,1.124-2.233,4.045-2.326c2.922-0.092,4.045,2.326,4.045,2.326
					s-1.691-2.092-4.045-1.961C316.838,461.347,315.314,463.167,315.314,463.167"/>
				<path fill="#351231" d="M319.359,460.565c-0.026,0-0.048-0.021-0.048-0.048v-2.39c0-0.026,0.022-0.048,0.048-0.048
					s0.048,0.021,0.048,0.048v2.39C319.407,460.544,319.386,460.565,319.359,460.565"/>
				<path fill="#351231" d="M318.312,460.737c-0.019,0-0.037-0.011-0.044-0.03l-0.758-1.918c-0.009-0.024,0.003-0.052,0.027-0.061
					c0.025-0.01,0.052,0.002,0.062,0.026l0.758,1.918c0.01,0.024-0.003,0.052-0.027,0.061
					C318.324,460.736,318.318,460.737,318.312,460.737"/>
				<path fill="#351231" d="M317.254,461.123c-0.015,0-0.03-0.007-0.039-0.021l-0.907-1.344c-0.015-0.022-0.009-0.052,0.013-0.067
					c0.022-0.014,0.052-0.009,0.066,0.013l0.907,1.345c0.014,0.022,0.009,0.051-0.013,0.066
					C317.273,461.12,317.264,461.123,317.254,461.123"/>
				<path fill="#351231" d="M320.542,460.69c-0.006,0-0.012-0.001-0.018-0.004c-0.024-0.009-0.036-0.037-0.027-0.062l0.758-1.917
					c0.01-0.024,0.038-0.037,0.062-0.027c0.025,0.01,0.037,0.038,0.027,0.062l-0.758,1.917
					C320.579,460.678,320.561,460.69,320.542,460.69"/>
				<path fill="#351231" d="M321.457,461.028c-0.009,0-0.018-0.003-0.026-0.008c-0.022-0.014-0.028-0.044-0.013-0.066l0.907-1.345
					c0.014-0.022,0.044-0.027,0.066-0.012c0.022,0.014,0.027,0.044,0.013,0.066l-0.907,1.344
					C321.487,461.02,321.472,461.028,321.457,461.028"/>
				<path fill="#351231" d="M322.268,461.505c-0.01,0-0.021-0.004-0.029-0.01c-0.021-0.017-0.024-0.046-0.008-0.067l0.706-0.891
					c0.016-0.021,0.046-0.024,0.067-0.008c0.021,0.017,0.024,0.046,0.008,0.067l-0.706,0.891
					C322.295,461.498,322.281,461.505,322.268,461.505"/>
				<path fill="#351231" d="M316.443,461.6c-0.014,0-0.028-0.006-0.038-0.019l-0.706-0.891c-0.017-0.021-0.013-0.051,0.008-0.067
					c0.021-0.017,0.051-0.013,0.067,0.008l0.706,0.891c0.016,0.021,0.013,0.051-0.008,0.067
					C316.464,461.597,316.453,461.6,316.443,461.6"/>
				<path fill="#351231" d="M319.351,467.562c-0.026,0-0.048-0.022-0.048-0.048v-2.389c0-0.027,0.022-0.048,0.048-0.048
					c0.026,0,0.048,0.021,0.048,0.048v2.389C319.399,467.541,319.377,467.562,319.351,467.562"/>
				<path fill="#351231" d="M321.156,466.919c-0.019,0-0.037-0.011-0.044-0.03l-0.758-1.917c-0.009-0.024,0.003-0.052,0.027-0.062
					c0.024-0.01,0.052,0.002,0.062,0.027l0.758,1.917c0.01,0.025-0.003,0.053-0.027,0.062
					C321.168,466.918,321.161,466.919,321.156,466.919"/>
				<path fill="#351231" d="M322.363,465.96c-0.016,0-0.03-0.007-0.04-0.021l-0.907-1.344c-0.014-0.022-0.009-0.052,0.013-0.066
					c0.022-0.015,0.051-0.009,0.066,0.012l0.907,1.345c0.015,0.022,0.009,0.051-0.012,0.066
					C322.382,465.957,322.372,465.96,322.363,465.96"/>
				<path fill="#351231" d="M317.41,466.966c-0.006,0-0.012-0.001-0.018-0.004c-0.025-0.009-0.037-0.037-0.027-0.061l0.758-1.918
					c0.01-0.024,0.037-0.036,0.062-0.026c0.024,0.009,0.036,0.037,0.027,0.061l-0.758,1.918
					C317.447,466.955,317.429,466.966,317.41,466.966"/>
				<path fill="#351231" d="M316.346,466.055c-0.009,0-0.019-0.003-0.027-0.008c-0.022-0.015-0.027-0.044-0.012-0.066l0.907-1.345
					c0.015-0.022,0.044-0.027,0.067-0.013c0.022,0.015,0.027,0.044,0.012,0.066l-0.907,1.345
					C316.376,466.048,316.361,466.055,316.346,466.055"/>
				<path fill="#351231" d="M315.737,465.125c-0.01,0-0.021-0.004-0.029-0.011c-0.021-0.016-0.024-0.046-0.008-0.067l0.706-0.891
					c0.017-0.021,0.046-0.024,0.067-0.008c0.021,0.016,0.024,0.046,0.008,0.067l-0.706,0.891
					C315.765,465.119,315.751,465.125,315.737,465.125"/>
				<path fill="#351231" d="M322.973,465.03c-0.014,0-0.028-0.006-0.037-0.018l-0.706-0.891c-0.017-0.021-0.013-0.051,0.008-0.067
					c0.021-0.017,0.051-0.013,0.067,0.008l0.706,0.891c0.017,0.021,0.013,0.051-0.008,0.067
					C322.995,465.026,322.984,465.03,322.973,465.03"/>
			</g>
		</g>
	</g>
	<g id="heritage_00000137823487885676688430000013804496824092007586_">
		<g id="_x32_1_00000118369264589477792280000011318459859075063958_" transform="translate(280, 391)">
			<g id="svg-id-m23-svg_00000071528250963056461270000005609816665556453509_" transform="translate(-6.3, -6.3)">
				<path fill="#DD221C" stroke="#722B2B" stroke-miterlimit="10" d="M81.15,87.794c0,1.139-0.928,2.062-2.073,2.062
					s-2.073-0.923-2.073-2.062c0-1.139,0.928-2.062,2.073-2.062S81.15,86.655,81.15,87.794z"/>
			</g>
		</g>
		<g id="_x32_0_00000083774182194904983760000009690761965653729215_" transform="translate(291, 292)">
			<g id="svg-id-m22-svg_00000114791271527168372960000007259995304518411675_" transform="translate(-6.3, -6.3)">
				<path fill="#DD221C" stroke="#722B2B" stroke-miterlimit="10" d="M83.476,67.482c0,1.139-0.928,2.062-2.073,2.062
					c-1.145,0-2.073-0.923-2.073-2.062c0-1.139,0.928-2.062,2.073-2.062C82.548,65.42,83.476,66.343,83.476,67.482z"/>
			</g>
		</g>
		<g id="_x31_9_00000157986646467119908740000017985049360457485979_" transform="translate(276, 364)">
			<g id="svg-id-m21-svg_00000134220210934802607490000008434656991241808536_" transform="translate(-6.3, -6.3)">
				<path fill="#DD221C" stroke="#722B2B" stroke-miterlimit="10" d="M80.304,82.254c0,1.139-0.928,2.062-2.073,2.062
					c-1.145,0-2.073-0.923-2.073-2.062s0.928-2.062,2.073-2.062C79.376,80.192,80.304,81.116,80.304,82.254z"/>
			</g>
		</g>
		<g id="_x31_4_00000121974244884418353500000000879184063563070594_" transform="translate(254, 419)">
			<g id="svg-id-m16-svg_00000082354046091985676880000015580929250090026663_" transform="translate(-6.3, -6.3)">
				<path fill="#DD221C" stroke="#722B2B" stroke-miterlimit="10" d="M73.876,93.539c0,1.139-0.928,2.062-2.073,2.062
					c-1.145,0-2.073-0.923-2.073-2.062c0-1.139,0.928-2.062,2.073-2.062C72.948,91.477,73.876,92.4,73.876,93.539z"/>
			</g>
		</g>
		<g id="_x31_3_00000163763640932558961580000000041507175754936744_" transform="translate(243, 357)">
			<g id="svg-id-m15-svg_00000041290188873987102450000008734776789313254326_" transform="translate(-6.3, -6.3)">
				<path fill="#DD221C" stroke="#722B2B" stroke-miterlimit="10" d="M73.327,80.818c0,1.139-0.928,2.062-2.073,2.062
					c-1.145,0-2.073-0.923-2.073-2.062s0.928-2.062,2.073-2.062C72.399,78.756,73.327,79.679,73.327,80.818z"/>
			</g>
		</g>
		<g id="_x31_0_00000132075570451551641410000015628622973016439432_" transform="translate(259, 354)">
			<g id="svg-id-m12-svg_00000132796556123361443320000016837139840291658656_" transform="translate(-6.3, -6.3)">
				<path fill="#DD221C" stroke="#722B2B" stroke-miterlimit="10" d="M76.71,80.203c0,1.139-0.928,2.062-2.073,2.062
					c-1.145,0-2.073-0.923-2.073-2.062s0.928-2.062,2.073-2.062C75.782,78.141,76.71,79.064,76.71,80.203z"/>
			</g>
		</g>
		<g id="_x38__00000116919194833923878020000009301869356237864632_" transform="translate(367, 216)">
			<g id="svg-id-m10-svg_00000091696339310262380960000009089900904833270175_" transform="translate(-6.3, -6.3)">
				<path fill="#DD221C" stroke="#722B2B" stroke-miterlimit="10" d="M99.545,51.888c0,1.139-0.928,2.062-2.073,2.062
					c-1.145,0-2.073-0.923-2.073-2.062c0-1.139,0.928-2.062,2.073-2.062C98.617,49.826,99.545,50.749,99.545,51.888z"/>
			</g>
		</g>
		<g id="_x37__00000098941530971828694830000011150403223843542206_" transform="translate(243, 351)">
			<g id="svg-id-m9-svg_00000142858257195030669940000014722441306333986237_" transform="translate(-6.3, -6.3)">
				<path fill="#DD221C" stroke="#722B2B" stroke-miterlimit="10" d="M73.327,79.587c0,1.139-0.928,2.062-2.073,2.062
					c-1.145,0-2.073-0.923-2.073-2.062c0-1.139,0.928-2.062,2.073-2.062C72.399,77.525,73.327,78.448,73.327,79.587z"/>
			</g>
		</g>
		<g id="_x36__00000097467407107935833630000017191569172369170560_" transform="translate(258, 376)">
			<g id="svg-id-m8-svg_00000078009921010316765480000002780470473391795893_" transform="translate(-6.3, -6.3)">
				<path fill="#DD221C" stroke="#722B2B" stroke-miterlimit="10" d="M76.498,84.717c0,1.139-0.928,2.062-2.073,2.062
					c-1.145,0-2.073-0.923-2.073-2.062c0-1.139,0.928-2.062,2.073-2.062C75.57,82.655,76.498,83.578,76.498,84.717z"/>
			</g>
		</g>
		<g id="_x35__00000013879692383865997690000003924628937854102452_" transform="translate(261, 370)">
			<g id="svg-id-m7-svg_00000103965158225933993920000011927157286816776365_" transform="translate(-6.3, -6.3)">
				<path fill="#DD221C" stroke="#722B2B" stroke-miterlimit="10" d="M77.133,83.486c0,1.139-0.928,2.062-2.073,2.062
					s-2.073-0.923-2.073-2.062s0.928-2.062,2.073-2.062S77.133,82.347,77.133,83.486z"/>
			</g>
		</g>
		<g id="_x34__00000135672432048657516020000014703256836092465832_" transform="translate(278, 401)">
			<g id="svg-id-m5-svg_00000140003647839935372890000003038999697144483249_" transform="translate(-6.3, -6.3)">
				<path fill="#DD221C" stroke="#722B2B" stroke-miterlimit="10" d="M80.727,89.846c0,1.139-0.928,2.062-2.073,2.062
					s-2.073-0.923-2.073-2.062s0.928-2.062,2.073-2.062S80.727,88.707,80.727,89.846z"/>
			</g>
		</g>
		<g id="_x31__00000174588810038665278760000016626238984431424151_" transform="translate(264, 426)">
			<g id="svg-id-m0-svg_00000085929965238164986510000001711042630625066139_" transform="translate(-6.3, -6.3)">
				<path fill="#DD221C" stroke="#722B2B" stroke-miterlimit="10" d="M77.767,94.976c0,1.139-0.928,2.062-2.073,2.062
					c-1.145,0-2.073-0.923-2.073-2.062s0.928-2.062,2.073-2.062C76.839,92.914,77.767,93.837,77.767,94.976z"/>
			</g>
		</g>
		<g id="lisa-dot_00000145022761276504097090000007749931277720322239_" transform="translate(253, 382)">
			<g id="lisa-dot_00000098929414870389668710000016018908894802580874_" transform="translate(-6.3, -6.3)">
				<path fill="#DD221C" stroke="#722B2B" stroke-miterlimit="10" d="M75.441,85.948c0,1.139-0.928,2.062-2.073,2.062
					s-2.073-0.923-2.073-2.062c0-1.139,0.928-2.062,2.073-2.062S75.441,84.809,75.441,85.948z"/>
			</g>
		</g>
		<g id="derek-dot_00000165195290421638004850000012001753004444528540_" transform="translate(-6.3, -6.3)">
			<path fill="#DD221C" stroke="#722B2B" stroke-miterlimit="10" d="M398.705,173.884c0,1.139-0.928,2.062-2.073,2.062
				s-2.073-0.923-2.073-2.062s0.928-2.062,2.073-2.062S398.705,172.745,398.705,173.884z"/>
		</g>
		<g id="drew-dot_00000059311030062161165750000004921590085459374746_" transform="translate(-6.3, -6.3)">
			<path fill="#DD221C" stroke="#722B2B" stroke-miterlimit="10" d="M482.294,37.699c0,1.139-0.928,2.062-2.073,2.062
				c-1.145,0-2.073-0.923-2.073-2.062c0-1.139,0.928-2.062,2.073-2.062C481.366,35.637,482.294,36.56,482.294,37.699z"/>
		</g>
		<g id="sarah-dot_00000173125787491432882010000014903772186612647098_" transform="translate(270, 221)">
			<g id="svg-id-m24-svg_00000016796344135302482430000001759043768450166660_" transform="translate(-6.3, -6.3)">
				<path fill="#DD221C" stroke="#722B2B" stroke-miterlimit="10" d="M76.366,106.735c0,1.139-0.928,2.062-2.073,2.062
					s-2.073-0.923-2.073-2.062c0-1.139,0.928-2.062,2.073-2.062S76.366,105.596,76.366,106.735z"/>
			</g>
		</g>
	</g>
</g>
<style>
#g-psychics-Prancheta_1-interactions-img rect, #g-psychics-Prancheta_1-interactions-img circle, #g-psychics-Prancheta_1-interactions-img path, #g-psychics-Prancheta_1-interactions-img line, #g-psychics-Prancheta_1-interactions-img polyline, #g-psychics-Prancheta_1-interactions-img polygon { vector-effect: non-scaling-stroke; }
</style>
</svg>

