<?xml version="1.0" encoding="utf-8"?>
<!-- Generator: Adobe Illustrator 27.6.1, SVG Export Plug-In . SVG Version: 6.00 Build 0)  -->
<svg version="1.2" baseProfile="tiny" id="g-title_2-Prancheta_1-interactions-img"
	 xmlns="http://www.w3.org/2000/svg" xmlns:xlink="http://www.w3.org/1999/xlink" x="0px" y="0px" viewBox="0 0 1920 944"
	 overflow="visible" xml:space="preserve">
<g>
	<g id="string2_00000173869547783324291470000012609443217129053847_">
		<path d="M781.114,689.142c-15.462,0-28.376-5.067-37.622-14.844c-1.728-1.815-3.272-3.861-4.623-6.1
			c-10.028,4.363-25.934,9.391-45.758,9.266c-9.005-0.058-17.875-1.216-26.368-3.446c-9.266-2.432-18.155-6.148-26.407-11.061
			c-15.973-9.507-28.81-22.865-38.172-39.717c-6.36-11.466-9.545-21.745-11.099-28.337c-0.28-1.187,0.463-2.384,1.66-2.664
			c1.197-0.27,2.394,0.463,2.674,1.66c2.384,10.134,12.817,44.793,47.226,65.255c32.864,19.554,69.994,15.52,94.152,5.125
			c-2.104-4.527-3.504-9.613-4.073-14.989c-1.013-9.603,0.627-19.371,4.633-27.507c3.697-7.499,10.076-14.883,17.064-19.747
			c8.078-5.637,16.359-7.596,23.318-5.511c4.884,1.457,11.379,5.627,13.618,12.576c2.78,8.571-2.065,19.969-13.628,32.082
			c-9.314,9.758-22.093,18.975-34.765,25.143c1.12,1.795,2.374,3.455,3.783,4.942c12.094,12.779,28.762,14.217,40.614,13.174
			c14.564-1.284,31.078-7.133,45.305-16.06c7.084-4.43,14.14-9.459,20.963-14.323c19.506-13.889,39.678-28.26,63.701-31.532
			c15.105-2.056,30.306,0.56,45.006,3.089c5.955,1.023,12.103,2.075,18.126,2.799c11.283,1.351,26.532,2.789,44.388,1.872
			c18.299-0.936,61.162-3.127,131.233-42.4c1.062-0.598,2.422-0.222,3.021,0.849c0.608,1.062,0.232,2.413-0.84,3.011
			c-30.181,16.91-59,28.974-85.668,35.846c-22.633,5.839-38.819,6.669-47.515,7.113c-18.193,0.936-33.684-0.531-45.15-1.901
			c-6.138-0.734-12.344-1.805-18.348-2.838c-14.362-2.461-29.225-5.019-43.645-3.05c-22.942,3.117-42.651,17.161-61.713,30.74
			c-6.882,4.893-13.995,9.961-21.176,14.468c-15.028,9.42-31.821,15.365-47.283,16.726c-2.258,0.193-4.469,0.29-6.621,0.29H781.114z
			 M771.993,600.135c-11.428,0-24.66,11.428-30.663,23.598c-5.897,11.958-5.791,27.208-0.483,38.684
			c12.258-5.945,24.631-14.854,33.636-24.284c10.24-10.733,14.844-20.819,12.624-27.691c-1.602-4.961-6.515-8.435-10.675-9.681
			C775.005,600.338,773.518,600.135,771.993,600.135z"/>
	</g>
	<g id="string1_00000033364699490682357300000012501593400869054117_">
		<path d="M1224.033,235.424c4.382,1.728,8.445,3.957,11.92,6.582c12.441,9.372,21.33,24.631,19.438,40.653
			c0.318,1.486-1.004,4.855,0.965,5.299c13.995-1.071,38.201-18.454,42.516-31.725c1.467-3.079,6.206-0.878,3.648,2.712
			c-4.961,9.343-12.769,17.141-21.504,22.99c-4.391,2.934-9.102,5.415-14.043,7.277c-3.484,1.303-12.045,1.93-13.869,5.714
			c-4.913,10.24-13.647,18.232-18.792,28.357c-0.656,3.668,5.974,1.573,8.194,2.258c14.439,1.921,30.229,4.063,41.473,14.13
			c7.605,7.19,15.578,16.746,16.07,27.613c-0.154,9.449-3.127,20.703-12.016,25.451c-17.469,10.636-41.849,5.289-54.464-10.376
			c-6.389-7.393-8.706-16.446-9.632-25.963c-1.921-8.667,0.714-17.479,1.216-26.05c-0.203-0.676-1.062-0.608-1.621-0.676
			c-9.208,0.048-18.222,2.432-26.677,5.984c-8.416,3.523-17.479,7.731-24.853,13.136c-13.754,10.067-26.822,21.041-41.299,30.055
			c-9.912,5.521-21.05,8.6-32.333,9.449c-11.341,0.859-24.361,0.492-33.607-7.007c-0.965-0.656-2.172-0.039-3.05,0.502
			c-2.741,1.824-5.714,3.224-8.667,4.623c-12.885,4.971-26.523,9.893-40.469,10.105c-32.401,0.502-60.593-18.782-77.956-45.334
			c-1.969-2.538-5.945-11.563-2.316-12.837c3.117,0,2.616,4.121,3.716,6.167c2.075,6.235,6.833,11.157,10.626,16.417
			c8.677,9.256,17.971,17.981,29.447,23.714c15.336,7.663,35.344,11.437,52.061,6.167c10.723-3.504,22.305-5.579,31.677-12.161
			c2.442-1.708-6.38-9.227-7.577-10.887c-3.243-4.507-5.608-9.652-6.872-15.066c-3.011-12.933,0.174-28.038,10.318-37.13
			c7.76-6.959,19.014-8.252,27.884-2.616c14.313,9.082,13.358,35.161,3.195,46.946c-5.415,6.274-11.736,11.765-18.145,17.026
			c-3.639,2.982,6.245,6.389,7.528,6.785c5.202,1.621,10.713,2.114,16.147,1.93c4.585-0.154,9.14-0.782,13.667-1.554
			c5.897-1.033,10.964-1.602,16.514-4.112c8.281-3.755,15.086-9.787,22.401-15.066c8.185-5.926,16.446-11.785,24.312-18.126
			c10.462-7.538,22.508-12.673,34.312-17.691c37.149-8.986,15.539,6.158,41.763-28.743c0.656-0.888,3.542-3.504,2.722-4.913
			c-0.695-1.197-3.581-0.29-4.565-0.097c-5.617,1.091-11.215,2.664-16.997,2.355c-5.945-0.319-12.036-1.4-17.817-2.751
			c-11.958-2.799-23.859-8.001-31.986-17.537c-4.951-6.293-5.723-16.273-3.793-23.811
			C1178.844,230.106,1204.508,227.713,1224.033,235.424z M1251.55,391.627c16.408,8.773,42.313,3.32,44.948-17.624
			c3.33-15.115-9.652-28.424-21.147-36.252c-12.895-6.38-27.662-8.677-41.946-8.686c-7.789-0.318-6.64,23.936-5.54,29.312
			C1229.043,372.864,1237.845,386.289,1251.55,391.627z M1224.12,238.947c-11.427-5.328-26.822-6.457-37.68,0.685
			c-5.231,5.472-10.974,11.428-10.443,19.612c-0.907,10.433,3.127,18.193,12.335,23.289c16.601,10.076,37.767,14.227,56.597,8.522
			c2.162-0.676,5.202-0.772,5.849-3.407c2.384-10.279,0.55-21.948-5.405-30.75C1239.225,249.95,1233.106,242.19,1224.12,238.947z
			 M1051.433,327.453c-1.1,3.446-2.538,6.36-2.944,9.98c-0.386,3.417-0.357,6.872,0.058,10.269
			c0.82,6.698,3.117,14.719,7.702,19.853c1.776,1.998,6.264,8.049,9.159,6.988c8.735-6.534,18.097-13.927,22.43-24.206
			c3.648-8.648,3.832-25.384-3.542-32.343C1072.531,306.876,1057.542,314.288,1051.433,327.453z"/>
	</g>
	<g id="eye_00000164495600838172850280000010473360375467568024_">
		<path fill="#FFFFFF" d="M879.501,543.215c0,0,26.725-35.479,64.405-38.742c54.609-4.729,86.817,38.742,86.817,38.742
			s-25.2,24.448-78.883,26.754C909.383,571.793,879.501,543.215,879.501,543.215"/>
		<path fill="#998FCD" d="M987.735,534.779c0,17.807-14.603,32.246-32.623,32.246c-18.02,0-32.632-14.439-32.632-32.246
			c0-17.807,14.613-32.246,32.632-32.246C973.132,502.533,987.735,516.972,987.735,534.779"/>
		<path fill="#351231" d="M967.621,534.779c0,6.824-5.598,12.364-12.509,12.364s-12.518-5.54-12.518-12.364
			c0-6.833,5.608-12.364,12.518-12.364S967.621,527.946,967.621,534.779"/>
		<path fill="#351231" d="M879.501,543.215c0,0,21.002-41.743,75.611-43.471s75.611,43.471,75.611,43.471
			s-31.599-39.108-75.611-36.647C907.983,509.193,879.501,543.215,879.501,543.215"/>
		<path fill="#351231" d="M955.112,494.58c-0.492,0-0.898-0.396-0.898-0.888v-44.668c0-0.492,0.405-0.888,0.898-0.888
			s0.888,0.396,0.888,0.888v44.668C956,494.184,955.604,494.58,955.112,494.58"/>
		<path fill="#351231" d="M935.539,497.794c-0.357,0-0.695-0.212-0.83-0.56l-14.169-35.846c-0.174-0.454,0.048-0.975,0.502-1.149
			c0.463-0.183,0.975,0.039,1.158,0.492l14.169,35.846c0.183,0.454-0.048,0.975-0.502,1.149
			C935.76,497.775,935.645,497.794,935.539,497.794"/>
		<path fill="#351231" d="M915.762,505.004c-0.28,0-0.569-0.135-0.734-0.396l-16.958-25.123c-0.28-0.415-0.174-0.965,0.241-1.245
			c0.405-0.27,0.965-0.164,1.235,0.241l16.958,25.133c0.27,0.405,0.164,0.956-0.241,1.235
			C916.11,504.955,915.936,505.004,915.762,505.004"/>
		<path fill="#351231" d="M977.224,496.906c-0.116,0-0.222-0.019-0.338-0.068c-0.454-0.174-0.676-0.695-0.502-1.158l14.169-35.837
			c0.183-0.454,0.705-0.685,1.158-0.502c0.463,0.183,0.685,0.705,0.502,1.158l-14.169,35.837
			C977.909,496.694,977.571,496.906,977.224,496.906"/>
		<path fill="#351231" d="M994.317,503.218c-0.174,0-0.338-0.048-0.492-0.154c-0.405-0.27-0.521-0.83-0.241-1.235l16.958-25.133
			c0.27-0.405,0.83-0.512,1.235-0.232c0.405,0.27,0.512,0.82,0.241,1.235l-16.958,25.123
			C994.886,503.083,994.607,503.218,994.317,503.218"/>
		<path fill="#351231" d="M1009.47,512.136c-0.193,0-0.386-0.068-0.55-0.193c-0.386-0.309-0.454-0.869-0.145-1.255l13.194-16.659
			c0.299-0.386,0.859-0.444,1.245-0.145c0.386,0.309,0.454,0.869,0.145,1.255l-13.194,16.659
			C1009.991,512.02,1009.731,512.136,1009.47,512.136"/>
		<path fill="#351231" d="M900.6,513.922c-0.27,0-0.531-0.116-0.705-0.347l-13.194-16.649c-0.309-0.386-0.241-0.946,0.145-1.255
			c0.386-0.309,0.946-0.241,1.245,0.145l13.203,16.659c0.299,0.386,0.241,0.946-0.145,1.255
			C900.986,513.854,900.793,513.922,900.6,513.922"/>
		<path fill="#351231" d="M954.958,625.369c-0.492,0-0.898-0.405-0.898-0.898v-44.658c0-0.502,0.405-0.898,0.898-0.898
			c0.483,0,0.888,0.396,0.888,0.898v44.658C955.846,624.964,955.44,625.369,954.958,625.369"/>
		<path fill="#351231" d="M988.69,613.334c-0.357,0-0.685-0.212-0.83-0.569l-14.169-35.837c-0.174-0.454,0.048-0.975,0.502-1.158
			c0.454-0.183,0.975,0.039,1.158,0.502l14.169,35.837c0.183,0.463-0.048,0.984-0.502,1.158
			C988.912,613.314,988.796,613.334,988.69,613.334"/>
		<path fill="#351231" d="M1011.256,595.411c-0.29,0-0.569-0.135-0.743-0.396l-16.958-25.123c-0.27-0.415-0.164-0.965,0.251-1.235
			c0.405-0.28,0.956-0.174,1.235,0.232l16.948,25.133c0.28,0.405,0.174,0.956-0.232,1.235
			C1011.603,595.362,1011.429,595.411,1011.256,595.411"/>
		<path fill="#351231" d="M918.677,614.222c-0.106,0-0.222-0.019-0.328-0.068c-0.463-0.174-0.685-0.695-0.502-1.149l14.169-35.846
			c0.183-0.454,0.695-0.676,1.158-0.492c0.454,0.174,0.676,0.695,0.502,1.149l-14.169,35.846
			C919.362,614.009,919.034,614.222,918.677,614.222"/>
		<path fill="#351231" d="M898.785,597.196c-0.174,0-0.347-0.048-0.502-0.154c-0.405-0.28-0.512-0.83-0.232-1.235L915,570.674
			c0.28-0.405,0.83-0.512,1.245-0.241c0.405,0.28,0.512,0.83,0.232,1.235L899.528,596.8
			C899.354,597.061,899.075,597.196,898.785,597.196"/>
		<path fill="#351231" d="M887.396,579.814c-0.193,0-0.386-0.068-0.55-0.203c-0.386-0.299-0.454-0.859-0.145-1.245l13.194-16.659
			c0.309-0.386,0.869-0.454,1.255-0.145c0.386,0.299,0.444,0.869,0.145,1.245l-13.203,16.659
			C887.917,579.688,887.657,579.814,887.396,579.814"/>
		<path fill="#351231" d="M1022.664,578.028c-0.261,0-0.521-0.116-0.695-0.338l-13.194-16.659c-0.309-0.386-0.241-0.946,0.145-1.255
			c0.386-0.309,0.946-0.241,1.245,0.145l13.194,16.659c0.309,0.386,0.241,0.946-0.145,1.255
			C1023.06,577.961,1022.857,578.028,1022.664,578.028"/>
	</g>
</g>
<style>
#g-title_2-Prancheta_1-interactions-img rect, #g-title_2-Prancheta_1-interactions-img circle, #g-title_2-Prancheta_1-interactions-img path, #g-title_2-Prancheta_1-interactions-img line, #g-title_2-Prancheta_1-interactions-img polyline, #g-title_2-Prancheta_1-interactions-img polygon { vector-effect: non-scaling-stroke; }
</style>
</svg>

